  0
SECTION
  2
HEADER
  9
$ACADVER
  1
AC1014
  9
$ACADMAINTVER
 70
     9
  9
$DWGCODEPAGE
  3
ANSI_932
  9
$INSBASE
 10
0.0
 20
0.0
 30
0.0
  9
$EXTMIN
 10
1.000000000000000E+20
 20
1.000000000000000E+20
 30
1.000000000000000E+20
  9
$EXTMAX
 10
-1.000000000000000E+20
 20
-1.000000000000000E+20
 30
-1.000000000000000E+20
  9
$LIMMIN
 10
0.0
 20
0.0
  9
$LIMMAX
 10
12.0
 20
9.0
  9
$ORTHOMODE
 70
     0
  9
$REGENMODE
 70
     1
  9
$FILLMODE
 70
     1
  9
$QTEXTMODE
 70
     0
  9
$MIRRTEXT
 70
     1
  9
$DRAGMODE
 70
     2
  9
$LTSCALE
 40
1.0
  9
$OSMODE
 70
    37
  9
$ATTMODE
 70
     1
  9
$TEXTSIZE
 40
0.2
  9
$TRACEWID
 40
0.05
  9
$TEXTSTYLE
  7
STANDARD
  9
$CLAYER
  8
0
  9
$CELTYPE
  6
BYLAYER
  9
$CECOLOR
 62
   256
  9
$CELTSCALE
 40
1.0
  9
$DELOBJ
 70
     1
  9
$DISPSILH
 70
     0
  9
$DIMSCALE
 40
1.0
  9
$DIMASZ
 40
0.18
  9
$DIMEXO
 40
0.0625
  9
$DIMDLI
 40
0.38
  9
$DIMRND
 40
0.0
  9
$DIMDLE
 40
0.0
  9
$DIMEXE
 40
0.18
  9
$DIMTP
 40
0.0
  9
$DIMTM
 40
0.0
  9
$DIMTXT
 40
0.18
  9
$DIMCEN
 40
0.09
  9
$DIMTSZ
 40
0.0
  9
$DIMTOL
 70
     0
  9
$DIMLIM
 70
     0
  9
$DIMTIH
 70
     1
  9
$DIMTOH
 70
     1
  9
$DIMSE1
 70
     0
  9
$DIMSE2
 70
     0
  9
$DIMTAD
 70
     0
  9
$DIMZIN
 70
     0
  9
$DIMBLK
  1

  9
$DIMASO
 70
     1
  9
$DIMSHO
 70
     1
  9
$DIMPOST
  1

  9
$DIMAPOST
  1

  9
$DIMALT
 70
     0
  9
$DIMALTD
 70
     2
  9
$DIMALTF
 40
25.4
  9
$DIMLFAC
 40
1.0
  9
$DIMTOFL
 70
     0
  9
$DIMTVP
 40
0.0
  9
$DIMTIX
 70
     0
  9
$DIMSOXD
 70
     0
  9
$DIMSAH
 70
     0
  9
$DIMBLK1
  1

  9
$DIMBLK2
  1

  9
$DIMSTYLE
  2
STANDARD
  9
$DIMCLRD
 70
     0
  9
$DIMCLRE
 70
     0
  9
$DIMCLRT
 70
     0
  9
$DIMTFAC
 40
1.0
  9
$DIMGAP
 40
0.09
  9
$DIMJUST
 70
     0
  9
$DIMSD1
 70
     0
  9
$DIMSD2
 70
     0
  9
$DIMTOLJ
 70
     1
  9
$DIMTZIN
 70
     0
  9
$DIMALTZ
 70
     0
  9
$DIMALTTZ
 70
     0
  9
$DIMFIT
 70
     3
  9
$DIMUPT
 70
     0
  9
$DIMUNIT
 70
     2
  9
$DIMDEC
 70
     4
  9
$DIMTDEC
 70
     4
  9
$DIMALTU
 70
     2
  9
$DIMALTTD
 70
     2
  9
$DIMTXSTY
  7
STANDARD
  9
$DIMAUNIT
 70
     0
  9
$LUNITS
 70
     2
  9
$LUPREC
 70
     4
  9
$SKETCHINC
 40
0.1
  9
$FILLETRAD
 40
0.5
  9
$AUNITS
 70
     0
  9
$AUPREC
 70
     0
  9
$MENU
  1
.
  9
$ELEVATION
 40
0.0
  9
$PELEVATION
 40
0.0
  9
$THICKNESS
 40
0.0
  9
$LIMCHECK
 70
     0
  9
$CHAMFERA
 40
0.5
  9
$CHAMFERB
 40
0.5
  9
$CHAMFERC
 40
1.0
  9
$CHAMFERD
 40
0.0
  9
$SKPOLY
 70
     0
  9
$TDCREATE
 40
2458613.920754062
  9
$TDUPDATE
 40
2458613.920754248
  9
$TDINDWG
 40
0.0000000116
  9
$TDUSRTIMER
 40
0.0000000116
  9
$USRTIMER
 70
     1
  9
$ANGBASE
 50
0.0
  9
$ANGDIR
 70
     0
  9
$PDMODE
 70
     0
  9
$PDSIZE
 40
0.0
  9
$PLINEWID
 40
0.0
  9
$COORDS
 70
     1
  9
$SPLFRAME
 70
     0
  9
$SPLINETYPE
 70
     6
  9
$SPLINESEGS
 70
     8
  9
$ATTDIA
 70
     0
  9
$ATTREQ
 70
     1
  9
$HANDLING
 70
     1
  9
$HANDSEED
  5
143
  9
$SURFTAB1
 70
     6
  9
$SURFTAB2
 70
     6
  9
$SURFTYPE
 70
     6
  9
$SURFU
 70
     6
  9
$SURFV
 70
     6
  9
$UCSNAME
  2

  9
$UCSORG
 10
0.0
 20
0.0
 30
0.0
  9
$UCSXDIR
 10
1.0
 20
0.0
 30
0.0
  9
$UCSYDIR
 10
0.0
 20
1.0
 30
0.0
  9
$PUCSNAME
  2

  9
$PUCSORG
 10
0.0
 20
0.0
 30
0.0
  9
$PUCSXDIR
 10
1.0
 20
0.0
 30
0.0
  9
$PUCSYDIR
 10
0.0
 20
1.0
 30
0.0
  9
$USERI1
 70
     0
  9
$USERI2
 70
     0
  9
$USERI3
 70
     0
  9
$USERI4
 70
     0
  9
$USERI5
 70
     0
  9
$USERR1
 40
0.0
  9
$USERR2
 40
0.0
  9
$USERR3
 40
0.0
  9
$USERR4
 40
0.0
  9
$USERR5
 40
0.0
  9
$WORLDVIEW
 70
     1
  9
$SHADEDGE
 70
     3
  9
$SHADEDIF
 70
    70
  9
$TILEMODE
 70
     1
  9
$MAXACTVP
 70
    64
  9
$PINSBASE
 10
0.0
 20
0.0
 30
0.0
  9
$PLIMCHECK
 70
     0
  9
$PEXTMIN
 10
1.000000000000000E+20
 20
1.000000000000000E+20
 30
1.000000000000000E+20
  9
$PEXTMAX
 10
-1.000000000000000E+20
 20
-1.000000000000000E+20
 30
-1.000000000000000E+20
  9
$PLIMMIN
 10
0.0
 20
0.0
  9
$PLIMMAX
 10
12.0
 20
9.0
  9
$UNITMODE
 70
     0
  9
$VISRETAIN
 70
     1
  9
$PLINEGEN
 70
     0
  9
$PSLTSCALE
 70
     1
  9
$TREEDEPTH
 70
  3020
  9
$PICKSTYLE
 70
     1
  9
$CMLSTYLE
  2
STANDARD
  9
$CMLJUST
 70
     0
  9
$CMLSCALE
 40
1.0
  9
$PROXYGRAPHICS
 70
     1
  9
$MEASUREMENT
 70
     0
  0
ENDSEC
  0
SECTION
  2
CLASSES
  0
CLASS
  1
ACDBDICTIONARYWDFLT
  2
AcDbDictionaryWithDefault
  3
ObjectDBX Classes
 90
        0
280
     0
281
     0
  0
CLASS
  1
VISUALSTYLE
  2
AcDbVisualStyle
  3
ObjectDBX Classes
 90
     4095
280
     0
281
     0
  0
CLASS
  1
MATERIAL
  2
AcDbMaterial
  3
ObjectDBX Classes
 90
     1153
280
     0
281
     0
  0
CLASS
  1
SUN
  2
AcDbSun
  3
SCENEOE
 90
     1024
280
     0
281
     0
  0
CLASS
  1
DICTIONARYVAR
  2
AcDbDictionaryVar
  3
ObjectDBX Classes
 90
        0
280
     0
281
     0
  0
CLASS
  1
XRECORD
  2
AcDbXrecord
  3
AutoCAD 2000
 90
        0
280
     0
281
     0
  0
CLASS
  1
LWPOLYLINE
  2
AcDbPolyline
  3
AutoCAD 2000
 90
        0
280
     0
281
     1
  0
CLASS
  1
HATCH
  2
AcDbHatch
  3
AutoCAD 2000
 90
        0
280
     0
281
     1
  0
CLASS
  1
ACDBPLACEHOLDER
  2
AcDbPlaceHolder
  3
ObjectDBX Classes
 90
        0
280
     0
281
     0
  0
CLASS
  1
LAYOUT
  2
AcDbLayout
  3
ObjectDBX Classes
 90
        0
280
     0
281
     0
  0
ENDSEC
  0
SECTION
  2
TABLES
  0
TABLE
  2
VPORT
  5
8
330
0
100
AcDbSymbolTable
 70
     1
  0
VPORT
  5
29
330
8
100
AcDbSymbolTableRecord
100
AcDbViewportTableRecord
  2
*ACTIVE
 70
     0
 10
0.0
 20
0.0
 11
1.0
 21
1.0
 12
0.0
 22
0.0
 13
0.0
 23
0.0
 14
0.5
 24
0.5
 15
0.5
 25
0.5
 16
0.0
 26
0.0
 36
1.0
 17
107.9499999730125
 27
139.699999965075
 37
0.0
 40
279.39999993015
 41
0.7727272727272728
 42
50.0
 43
0.0
 44
0.0
 50
0.0
 51
0.0
 71
     0
 72
   100
 73
     1
 74
     3
 75
     0
 76
     0
 77
     0
 78
     0
  0
ENDTAB
  0
TABLE
  2
LTYPE
  5
5
330
0
100
AcDbSymbolTable
 70
     1
  0
LTYPE
  5
14
330
5
100
AcDbSymbolTableRecord
100
AcDbLinetypeTableRecord
  2
BYBLOCK
 70
     0
  3

 72
    65
 73
     0
 40
0.0
  0
LTYPE
  5
15
330
5
100
AcDbSymbolTableRecord
100
AcDbLinetypeTableRecord
  2
BYLAYER
 70
     0
  3

 72
    65
 73
     0
 40
0.0
  0
LTYPE
  5
16
330
5
100
AcDbSymbolTableRecord
100
AcDbLinetypeTableRecord
  2
CONTINUOUS
 70
     0
  3
Solid line
 72
    65
 73
     0
 40
0.0
  0
ENDTAB
  0
TABLE
  2
LAYER
  5
2
330
0
100
AcDbSymbolTable
 70
     7
  0
LAYER
  5
10
330
2
100
AcDbSymbolTableRecord
100
AcDbLayerTableRecord
  2
0
 70
     0
 62
     7
  6
CONTINUOUS
  0
LAYER
  5
40
330
2
100
AcDbSymbolTableRecord
100
AcDbLayerTableRecord
  2
SWITCH
 70
     1
 62
     7
  6
CONTINUOUS
  0
LAYER
  5
41
330
2
100
AcDbSymbolTableRecord
100
AcDbLayerTableRecord
  2
TOP
 70
     1
 62
     7
  6
CONTINUOUS
  0
LAYER
  5
42
330
2
100
AcDbSymbolTableRecord
100
AcDbLayerTableRecord
  2
BOTTOM
 70
     1
 62
     7
  6
CONTINUOUS
  0
LAYER
  5
43
330
2
100
AcDbSymbolTableRecord
100
AcDbLayerTableRecord
  2
BOTTOM_U_306E_U_30B3_U_30D
 70
     0
 62
     7
  6
CONTINUOUS
  0
LAYER
  5
115
330
2
100
AcDbSymbolTableRecord
100
AcDbLayerTableRecord
  2
_U_30EC_U_30A4_U_30E4_U_30
 70
     1
 62
     7
  6
CONTINUOUS
  0
LAYER
  5
116
330
2
100
AcDbSymbolTableRecord
100
AcDbLayerTableRecord
  2
_U_30EC_U_30A4_U_30E4_U_31
 70
     1
 62
     7
  6
CONTINUOUS
  0
ENDTAB
  0
TABLE
  2
STYLE
  5
3
330
0
100
AcDbSymbolTable
 70
     1
  0
STYLE
  5
11
330
3
100
AcDbSymbolTableRecord
100
AcDbTextStyleTableRecord
  2
STANDARD
 70
     0
 40
0.0
 41
1.0
 50
0.0
 71
     0
 42
0.2
  3
txt
  4

  0
ENDTAB
  0
TABLE
  2
VIEW
  5
6
330
0
100
AcDbSymbolTable
 70
     0
  0
ENDTAB
  0
TABLE
  2
UCS
  5
7
330
0
100
AcDbSymbolTable
 70
     0
  0
ENDTAB
  0
TABLE
  2
APPID
  5
9
330
0
100
AcDbSymbolTable
 70
     1
  0
APPID
  5
12
330
9
100
AcDbSymbolTableRecord
100
AcDbRegAppTableRecord
  2
ACAD
 70
     0
  0
ENDTAB
  0
TABLE
  2
DIMSTYLE
  5
A
330
0
100
AcDbSymbolTable
 70
     1
  0
DIMSTYLE
105
27
330
A
100
AcDbSymbolTableRecord
100
AcDbDimStyleTableRecord
  2
STANDARD
 70
     0
  3

  4

  5

  6

  7

 40
1.0
 41
0.18
 42
0.0625
 43
0.38
 44
0.18
 45
0.0
 46
0.0
 47
0.0
 48
0.0
140
0.18
141
0.09
142
0.0
143
25.4
144
1.0
145
0.0
146
1.0
147
0.09
 71
     0
 72
     0
 73
     1
 74
     1
 75
     0
 76
     0
 77
     0
 78
     0
170
     0
171
     2
172
     0
173
     0
174
     0
175
     0
176
     0
177
     0
178
     0
270
     2
271
     4
272
     4
273
     2
274
     2
340
11
275
     0
280
     0
281
     0
282
     0
283
     1
284
     0
285
     0
286
     0
287
     3
288
     0
  0
ENDTAB
  0
TABLE
  2
BLOCK_RECORD
  5
1
330
0
100
AcDbSymbolTable
 70
     1
  0
BLOCK_RECORD
  5
1F
330
1
100
AcDbSymbolTableRecord
100
AcDbBlockTableRecord
  2
*MODEL_SPACE
  0
BLOCK_RECORD
  5
1B
330
1
100
AcDbSymbolTableRecord
100
AcDbBlockTableRecord
  2
*PAPER_SPACE
  0
ENDTAB
  0
ENDSEC
  0
SECTION
  2
BLOCKS
  0
BLOCK
  5
20
330
1F
100
AcDbEntity
  8
0
100
AcDbBlockBegin
  2
*MODEL_SPACE
 70
     0
 10
0.0
 20
0.0
 30
0.0
  3
*MODEL_SPACE
  1

  0
ENDBLK
  5
21
330
1F
100
AcDbEntity
  8
0
100
AcDbBlockEnd
  0
BLOCK
  5
1C
330
1B
100
AcDbEntity
 67
     1
  8
0
100
AcDbBlockBegin
  2
*PAPER_SPACE
 70
     0
 10
0.0
 20
0.0
 30
0.0
  3
*PAPER_SPACE
  1

  0
ENDBLK
  5
1D
330
1B
100
AcDbEntity
 67
     1
  8
0
100
AcDbBlockEnd
  0
ENDSEC
  0
SECTION
  2
ENTITIES
  0
POLYLINE
  5
44
330
1F
100
AcDbEntity
  8
BOTTOM_U_306E_U_30B3_U_30D
100
AcDb2dPolyline
 66
     1
 10
0.0
 20
0.0
 30
0.0
  0
VERTEX
  5
45
330
44
100
AcDbEntity
  8
BOTTOM_U_306E_U_30B3_U_30D
100
AcDbVertex
100
AcDb2dVertex
 10
164.6096376662937
 20
75.5616536015187
 30
0.0
  0
VERTEX
  5
46
330
44
100
AcDbEntity
  8
BOTTOM_U_306E_U_30B3_U_30D
100
AcDbVertex
100
AcDb2dVertex
 10
165.1578917578016
 20
75.24768159300898
 30
0.0
  0
VERTEX
  5
47
330
44
100
AcDbEntity
  8
BOTTOM_U_306E_U_30B3_U_30D
100
AcDbVertex
100
AcDb2dVertex
 10
165.6239365714109
 20
74.97269821138906
 30
0.0
  0
VERTEX
  5
48
330
44
100
AcDbEntity
  8
BOTTOM_U_306E_U_30B3_U_30D
100
AcDbVertex
100
AcDb2dVertex
 10
166.015361010389
 20
74.73604856337415
 30
0.0
  0
VERTEX
  5
49
330
44
100
AcDbEntity
  8
BOTTOM_U_306E_U_30B3_U_30D
100
AcDbVertex
100
AcDb2dVertex
 10
166.3397539780035
 20
74.53707775568006
 30
0.0
  0
VERTEX
  5
4A
330
44
100
AcDbEntity
  8
BOTTOM_U_306E_U_30B3_U_30D
100
AcDbVertex
100
AcDb2dVertex
 10
166.6047043775216
 20
74.37513089502328
 30
0.0
  0
VERTEX
  5
4B
330
44
100
AcDbEntity
  8
BOTTOM_U_306E_U_30B3_U_30D
100
AcDbVertex
100
AcDb2dVertex
 10
166.8178011122098
 20
74.24955308811963
 30
0.0
  0
VERTEX
  5
4C
330
44
100
AcDbEntity
  8
BOTTOM_U_306E_U_30B3_U_30D
100
AcDbVertex
100
AcDb2dVertex
 10
166.9866330853366
 20
74.15968944168492
 30
0.0
  0
VERTEX
  5
4D
330
44
100
AcDbEntity
  8
BOTTOM_U_306E_U_30B3_U_30D
100
AcDbVertex
100
AcDb2dVertex
 10
167.1187892001697
 20
74.104885062435
 30
0.0
  0
VERTEX
  5
4E
330
44
100
AcDbEntity
  8
BOTTOM_U_306E_U_30B3_U_30D
100
AcDbVertex
100
AcDb2dVertex
 10
167.221858359975
 20
74.08448505708635
 30
0.0
  0
VERTEX
  5
4F
330
44
100
AcDbEntity
  8
BOTTOM_U_306E_U_30B3_U_30D
100
AcDbVertex
100
AcDb2dVertex
 10
167.3034294680215
 20
74.0978345323548
 30
0.0
  0
VERTEX
  5
50
330
44
100
AcDbEntity
  8
BOTTOM_U_306E_U_30B3_U_30D
100
AcDbVertex
100
AcDb2dVertex
 10
167.3710914275752
 20
74.1442785949555
 30
0.0
  0
VERTEX
  5
51
330
44
100
AcDbEntity
  8
BOTTOM_U_306E_U_30B3_U_30D
100
AcDbVertex
100
AcDb2dVertex
 10
167.4324331419045
 20
74.22316235160561
 30
0.0
  0
VERTEX
  5
52
330
44
100
AcDbEntity
  8
BOTTOM_U_306E_U_30B3_U_30D
100
AcDbVertex
100
AcDb2dVertex
 10
167.4950435142758
 20
74.33383090902028
 30
0.0
  0
VERTEX
  5
53
330
44
100
AcDbEntity
  8
BOTTOM_U_306E_U_30B3_U_30D
100
AcDbVertex
100
AcDb2dVertex
 10
167.566511447957
 20
74.47562937391537
 30
0.0
  0
VERTEX
  5
54
330
44
100
AcDbEntity
  8
BOTTOM_U_306E_U_30B3_U_30D
100
AcDbVertex
100
AcDb2dVertex
 10
167.6544258462152
 20
74.64790285300734
 30
0.0
  0
VERTEX
  5
55
330
44
100
AcDbEntity
  8
BOTTOM_U_306E_U_30B3_U_30D
100
AcDbVertex
100
AcDb2dVertex
 10
167.7663756123183
 20
74.849996453012
 30
0.0
  0
SEQEND
  5
56
330
44
100
AcDbEntity
  8
BOTTOM_U_306E_U_30B3_U_30D
  0
POLYLINE
  5
57
330
1F
100
AcDbEntity
  8
BOTTOM_U_306E_U_30B3_U_30D
100
AcDb2dPolyline
 66
     1
 10
0.0
 20
0.0
 30
0.0
  0
VERTEX
  5
58
330
57
100
AcDbEntity
  8
BOTTOM_U_306E_U_30B3_U_30D
100
AcDbVertex
100
AcDb2dVertex
 10
167.7663756123183
 20
74.849996453012
 30
0.0
  0
VERTEX
  5
59
330
57
100
AcDbEntity
  8
BOTTOM_U_306E_U_30B3_U_30D
100
AcDbVertex
100
AcDb2dVertex
 10
168.6481316890632
 20
76.37724277780946
 30
0.0
  0
VERTEX
  5
5A
330
57
100
AcDbEntity
  8
BOTTOM_U_306E_U_30B3_U_30D
100
AcDbVertex
100
AcDb2dVertex
 10
169.5298877658068
 20
77.90448910260756
 30
0.0
  0
VERTEX
  5
5B
330
57
100
AcDbEntity
  8
BOTTOM_U_306E_U_30B3_U_30D
100
AcDbVertex
100
AcDb2dVertex
 10
170.4116438425504
 20
79.4317354274063
 30
0.0
  0
VERTEX
  5
5C
330
57
100
AcDbEntity
  8
BOTTOM_U_306E_U_30B3_U_30D
100
AcDbVertex
100
AcDb2dVertex
 10
171.2933999192933
 20
80.95898175220505
 30
0.0
  0
VERTEX
  5
5D
330
57
100
AcDbEntity
  8
BOTTOM_U_306E_U_30B3_U_30D
100
AcDbVertex
100
AcDb2dVertex
 10
172.1751559960356
 20
82.48622807700443
 30
0.0
  0
VERTEX
  5
5E
330
57
100
AcDbEntity
  8
BOTTOM_U_306E_U_30B3_U_30D
100
AcDbVertex
100
AcDb2dVertex
 10
173.0569120727773
 20
84.0134744018038
 30
0.0
  0
VERTEX
  5
5F
330
57
100
AcDbEntity
  8
BOTTOM_U_306E_U_30B3_U_30D
100
AcDbVertex
100
AcDb2dVertex
 10
173.938668149519
 20
85.54072072660318
 30
0.0
  0
VERTEX
  5
60
330
57
100
AcDbEntity
  8
BOTTOM_U_306E_U_30B3_U_30D
100
AcDbVertex
100
AcDb2dVertex
 10
174.82042422626
 20
87.06796705140322
 30
0.0
  0
VERTEX
  5
61
330
57
100
AcDbEntity
  8
BOTTOM_U_306E_U_30B3_U_30D
100
AcDbVertex
100
AcDb2dVertex
 10
175.7021803030011
 20
88.59521337620323
 30
0.0
  0
VERTEX
  5
62
330
57
100
AcDbEntity
  8
BOTTOM_U_306E_U_30B3_U_30D
100
AcDbVertex
100
AcDb2dVertex
 10
176.5839363797415
 20
90.12245970100327
 30
0.0
  0
VERTEX
  5
63
330
57
100
AcDbEntity
  8
BOTTOM_U_306E_U_30B3_U_30D
100
AcDbVertex
100
AcDb2dVertex
 10
177.4656924564825
 20
91.64970602580328
 30
0.0
  0
VERTEX
  5
64
330
57
100
AcDbEntity
  8
BOTTOM_U_306E_U_30B3_U_30D
100
AcDbVertex
100
AcDb2dVertex
 10
178.3474485332235
 20
93.17695235060332
 30
0.0
  0
VERTEX
  5
65
330
57
100
AcDbEntity
  8
BOTTOM_U_306E_U_30B3_U_30D
100
AcDbVertex
100
AcDb2dVertex
 10
179.2292046099639
 20
94.70419867540333
 30
0.0
  0
VERTEX
  5
66
330
57
100
AcDbEntity
  8
BOTTOM_U_306E_U_30B3_U_30D
100
AcDbVertex
100
AcDb2dVertex
 10
180.110960686705
 20
96.23144500020337
 30
0.0
  0
VERTEX
  5
67
330
57
100
AcDbEntity
  8
BOTTOM_U_306E_U_30B3_U_30D
100
AcDbVertex
100
AcDb2dVertex
 10
180.9927167634466
 20
97.75869132500338
 30
0.0
  0
VERTEX
  5
68
330
57
100
AcDbEntity
  8
BOTTOM_U_306E_U_30B3_U_30D
100
AcDbVertex
100
AcDb2dVertex
 10
181.8744728401877
 20
99.28593764980276
 30
0.0
  0
VERTEX
  5
69
330
57
100
AcDbEntity
  8
BOTTOM_U_306E_U_30B3_U_30D
100
AcDbVertex
100
AcDb2dVertex
 10
182.154846892239
 20
99.77155975308062
 30
0.0
  0
VERTEX
  5
6A
330
57
100
AcDbEntity
  8
BOTTOM_U_306E_U_30B3_U_30D
100
AcDbVertex
100
AcDb2dVertex
 10
182.4352209442903
 20
100.2571818563578
 30
0.0
  0
VERTEX
  5
6B
330
57
100
AcDbEntity
  8
BOTTOM_U_306E_U_30B3_U_30D
100
AcDbVertex
100
AcDb2dVertex
 10
182.7155949963409
 20
100.7428039596357
 30
0.0
  0
VERTEX
  5
6C
330
57
100
AcDbEntity
  8
BOTTOM_U_306E_U_30B3_U_30D
100
AcDbVertex
100
AcDb2dVertex
 10
182.9959690483923
 20
101.2284260629136
 30
0.0
  0
VERTEX
  5
6D
330
57
100
AcDbEntity
  8
BOTTOM_U_306E_U_30B3_U_30D
100
AcDbVertex
100
AcDb2dVertex
 10
183.2763431004429
 20
101.7140481661908
 30
0.0
  0
VERTEX
  5
6E
330
57
100
AcDbEntity
  8
BOTTOM_U_306E_U_30B3_U_30D
100
AcDbVertex
100
AcDb2dVertex
 10
183.5567171524936
 20
102.1996702694687
 30
0.0
  0
VERTEX
  5
6F
330
57
100
AcDbEntity
  8
BOTTOM_U_306E_U_30B3_U_30D
100
AcDbVertex
100
AcDb2dVertex
 10
183.8370912045436
 20
102.6852923727465
 30
0.0
  0
VERTEX
  5
70
330
57
100
AcDbEntity
  8
BOTTOM_U_306E_U_30B3_U_30D
100
AcDbVertex
100
AcDb2dVertex
 10
184.1174652565949
 20
103.1709144760244
 30
0.0
  0
VERTEX
  5
71
330
57
100
AcDbEntity
  8
BOTTOM_U_306E_U_30B3_U_30D
100
AcDbVertex
100
AcDb2dVertex
 10
184.3978393086462
 20
103.6565365793022
 30
0.0
  0
VERTEX
  5
72
330
57
100
AcDbEntity
  8
BOTTOM_U_306E_U_30B3_U_30D
100
AcDbVertex
100
AcDb2dVertex
 10
184.6782133606976
 20
104.1421586825795
 30
0.0
  0
VERTEX
  5
73
330
57
100
AcDbEntity
  8
BOTTOM_U_306E_U_30B3_U_30D
100
AcDbVertex
100
AcDb2dVertex
 10
184.9585874127488
 20
104.6277807858567
 30
0.0
  0
VERTEX
  5
74
330
57
100
AcDbEntity
  8
BOTTOM_U_306E_U_30B3_U_30D
100
AcDbVertex
100
AcDb2dVertex
 10
185.2389614648008
 20
105.1134028891339
 30
0.0
  0
VERTEX
  5
75
330
57
100
AcDbEntity
  8
BOTTOM_U_306E_U_30B3_U_30D
100
AcDbVertex
100
AcDb2dVertex
 10
185.5193355168527
 20
105.5990249924105
 30
0.0
  0
VERTEX
  5
76
330
57
100
AcDbEntity
  8
BOTTOM_U_306E_U_30B3_U_30D
100
AcDbVertex
100
AcDb2dVertex
 10
185.7997095689053
 20
106.0846470956871
 30
0.0
  0
VERTEX
  5
77
330
57
100
AcDbEntity
  8
BOTTOM_U_306E_U_30B3_U_30D
100
AcDbVertex
100
AcDb2dVertex
 10
186.0800836209586
 20
106.5702691989636
 30
0.0
  0
VERTEX
  5
78
330
57
100
AcDbEntity
  8
BOTTOM_U_306E_U_30B3_U_30D
100
AcDbVertex
100
AcDb2dVertex
 10
186.3604576730125
 20
107.0558913022396
 30
0.0
  0
SEQEND
  5
79
330
57
100
AcDbEntity
  8
BOTTOM_U_306E_U_30B3_U_30D
  0
POLYLINE
  5
7A
330
1F
100
AcDbEntity
  8
BOTTOM_U_306E_U_30B3_U_30D
100
AcDb2dPolyline
 66
     1
 10
0.0
 20
0.0
 30
0.0
  0
VERTEX
  5
7B
330
7A
100
AcDbEntity
  8
BOTTOM_U_306E_U_30B3_U_30D
100
AcDbVertex
100
AcDb2dVertex
 10
186.3604576730125
 20
164.9665610978996
 30
0.0
  0
VERTEX
  5
7C
330
7A
100
AcDbEntity
  8
BOTTOM_U_306E_U_30B3_U_30D
100
AcDbVertex
100
AcDb2dVertex
 10
186.3604576730125
 20
161.3471442356709
 30
0.0
  0
VERTEX
  5
7D
330
7A
100
AcDbEntity
  8
BOTTOM_U_306E_U_30B3_U_30D
100
AcDbVertex
100
AcDb2dVertex
 10
186.3604576730125
 20
157.7277273734422
 30
0.0
  0
VERTEX
  5
7E
330
7A
100
AcDbEntity
  8
BOTTOM_U_306E_U_30B3_U_30D
100
AcDbVertex
100
AcDb2dVertex
 10
186.3604576730125
 20
154.1083105112135
 30
0.0
  0
VERTEX
  5
7F
330
7A
100
AcDbEntity
  8
BOTTOM_U_306E_U_30B3_U_30D
100
AcDbVertex
100
AcDb2dVertex
 10
186.3604576730125
 20
150.4888936489845
 30
0.0
  0
VERTEX
  5
80
330
7A
100
AcDbEntity
  8
BOTTOM_U_306E_U_30B3_U_30D
100
AcDbVertex
100
AcDb2dVertex
 10
186.3604576730125
 20
146.8694767867558
 30
0.0
  0
VERTEX
  5
81
330
7A
100
AcDbEntity
  8
BOTTOM_U_306E_U_30B3_U_30D
100
AcDbVertex
100
AcDb2dVertex
 10
186.3604576730125
 20
143.2500599245271
 30
0.0
  0
VERTEX
  5
82
330
7A
100
AcDbEntity
  8
BOTTOM_U_306E_U_30B3_U_30D
100
AcDbVertex
100
AcDb2dVertex
 10
186.3604576730125
 20
139.6306430622988
 30
0.0
  0
VERTEX
  5
83
330
7A
100
AcDbEntity
  8
BOTTOM_U_306E_U_30B3_U_30D
100
AcDbVertex
100
AcDb2dVertex
 10
186.3604576730125
 20
136.0112262000698
 30
0.0
  0
VERTEX
  5
84
330
7A
100
AcDbEntity
  8
BOTTOM_U_306E_U_30B3_U_30D
100
AcDbVertex
100
AcDb2dVertex
 10
186.3604576730125
 20
132.3918093378407
 30
0.0
  0
VERTEX
  5
85
330
7A
100
AcDbEntity
  8
BOTTOM_U_306E_U_30B3_U_30D
100
AcDbVertex
100
AcDb2dVertex
 10
186.3604576730125
 20
128.7723924756124
 30
0.0
  0
VERTEX
  5
86
330
7A
100
AcDbEntity
  8
BOTTOM_U_306E_U_30B3_U_30D
100
AcDbVertex
100
AcDb2dVertex
 10
186.3604576730125
 20
125.1529756133833
 30
0.0
  0
VERTEX
  5
87
330
7A
100
AcDbEntity
  8
BOTTOM_U_306E_U_30B3_U_30D
100
AcDbVertex
100
AcDb2dVertex
 10
186.3604576730125
 20
121.5335587511543
 30
0.0
  0
VERTEX
  5
88
330
7A
100
AcDbEntity
  8
BOTTOM_U_306E_U_30B3_U_30D
100
AcDbVertex
100
AcDb2dVertex
 10
186.3604576730125
 20
117.914141888926
 30
0.0
  0
VERTEX
  5
89
330
7A
100
AcDbEntity
  8
BOTTOM_U_306E_U_30B3_U_30D
100
AcDbVertex
100
AcDb2dVertex
 10
186.3604576730125
 20
114.294725026697
 30
0.0
  0
VERTEX
  5
8A
330
7A
100
AcDbEntity
  8
BOTTOM_U_306E_U_30B3_U_30D
100
AcDbVertex
100
AcDb2dVertex
 10
186.3604576730125
 20
110.6753081644686
 30
0.0
  0
VERTEX
  5
8B
330
7A
100
AcDbEntity
  8
BOTTOM_U_306E_U_30B3_U_30D
100
AcDbVertex
100
AcDb2dVertex
 10
186.3604576730125
 20
107.0558913022396
 30
0.0
  0
SEQEND
  5
8C
330
7A
100
AcDbEntity
  8
BOTTOM_U_306E_U_30B3_U_30D
  0
POLYLINE
  5
8D
330
1F
100
AcDbEntity
  8
BOTTOM_U_306E_U_30B3_U_30D
100
AcDb2dPolyline
 66
     1
 10
0.0
 20
0.0
 30
0.0
  0
VERTEX
  5
8E
330
8D
100
AcDbEntity
  8
BOTTOM_U_306E_U_30B3_U_30D
100
AcDbVertex
100
AcDb2dVertex
 10
186.3604576730125
 20
164.9665611404279
 30
0.0
  0
VERTEX
  5
117
330
8D
100
AcDbEntity
  8
0
100
AcDbVertex
100
AcDb2dVertex
 10
186.3604576730125
 20
164.9665611404279
 30
0.0
  0
SEQEND
  5
8F
330
8D
100
AcDbEntity
  8
BOTTOM_U_306E_U_30B3_U_30D
  0
POLYLINE
  5
90
330
1F
100
AcDbEntity
  8
BOTTOM_U_306E_U_30B3_U_30D
100
AcDb2dPolyline
 66
     1
 10
0.0
 20
0.0
 30
0.0
  0
VERTEX
  5
91
330
90
100
AcDbEntity
  8
BOTTOM_U_306E_U_30B3_U_30D
100
AcDbVertex
100
AcDb2dVertex
 10
164.6096376662937
 20
75.5616536015187
 30
0.0
  0
VERTEX
  5
92
330
90
100
AcDbEntity
  8
BOTTOM_U_306E_U_30B3_U_30D
100
AcDbVertex
100
AcDb2dVertex
 10
162.7162532899254
 20
76.65361077730189
 30
0.0
  0
VERTEX
  5
93
330
90
100
AcDbEntity
  8
BOTTOM_U_306E_U_30B3_U_30D
100
AcDbVertex
100
AcDb2dVertex
 10
160.8228689135577
 20
77.7455679530851
 30
0.0
  0
VERTEX
  5
94
330
90
100
AcDbEntity
  8
BOTTOM_U_306E_U_30B3_U_30D
100
AcDbVertex
100
AcDb2dVertex
 10
158.9294845371894
 20
78.83752512886831
 30
0.0
  0
VERTEX
  5
95
330
90
100
AcDbEntity
  8
BOTTOM_U_306E_U_30B3_U_30D
100
AcDbVertex
100
AcDb2dVertex
 10
157.0361001608211
 20
79.9294823046515
 30
0.0
  0
VERTEX
  5
96
330
90
100
AcDbEntity
  8
BOTTOM_U_306E_U_30B3_U_30D
100
AcDbVertex
100
AcDb2dVertex
 10
155.1427157844535
 20
81.02143948043471
 30
0.0
  0
VERTEX
  5
97
330
90
100
AcDbEntity
  8
BOTTOM_U_306E_U_30B3_U_30D
100
AcDbVertex
100
AcDb2dVertex
 10
153.2493314080852
 20
82.11339665621792
 30
0.0
  0
VERTEX
  5
98
330
90
100
AcDbEntity
  8
BOTTOM_U_306E_U_30B3_U_30D
100
AcDbVertex
100
AcDb2dVertex
 10
151.3559470317169
 20
83.20535383200047
 30
0.0
  0
VERTEX
  5
99
330
90
100
AcDbEntity
  8
BOTTOM_U_306E_U_30B3_U_30D
100
AcDbVertex
100
AcDb2dVertex
 10
149.4625626553492
 20
84.29731100778368
 30
0.0
  0
VERTEX
  5
9A
330
90
100
AcDbEntity
  8
BOTTOM_U_306E_U_30B3_U_30D
100
AcDbVertex
100
AcDb2dVertex
 10
147.5691782789809
 20
85.38926818356688
 30
0.0
  0
VERTEX
  5
9B
330
90
100
AcDbEntity
  8
BOTTOM_U_306E_U_30B3_U_30D
100
AcDbVertex
100
AcDb2dVertex
 10
145.6757939026126
 20
86.48122535934944
 30
0.0
  0
VERTEX
  5
9C
330
90
100
AcDbEntity
  8
BOTTOM_U_306E_U_30B3_U_30D
100
AcDbVertex
100
AcDb2dVertex
 10
143.7824095262449
 20
87.57318253513264
 30
0.0
  0
VERTEX
  5
9D
330
90
100
AcDbEntity
  8
BOTTOM_U_306E_U_30B3_U_30D
100
AcDbVertex
100
AcDb2dVertex
 10
141.8890251498767
 20
88.66513971091584
 30
0.0
  0
VERTEX
  5
9E
330
90
100
AcDbEntity
  8
BOTTOM_U_306E_U_30B3_U_30D
100
AcDbVertex
100
AcDb2dVertex
 10
139.9956407735083
 20
89.75709688669905
 30
0.0
  0
VERTEX
  5
9F
330
90
100
AcDbEntity
  8
BOTTOM_U_306E_U_30B3_U_30D
100
AcDbVertex
100
AcDb2dVertex
 10
138.1022563971407
 20
90.84905406248225
 30
0.0
  0
VERTEX
  5
A0
330
90
100
AcDbEntity
  8
BOTTOM_U_306E_U_30B3_U_30D
100
AcDbVertex
100
AcDb2dVertex
 10
136.2088720207724
 20
91.94101123826545
 30
0.0
  0
VERTEX
  5
A1
330
90
100
AcDbEntity
  8
BOTTOM_U_306E_U_30B3_U_30D
100
AcDbVertex
100
AcDb2dVertex
 10
134.3154876444041
 20
93.03296841404865
 30
0.0
  0
SEQEND
  5
A2
330
90
100
AcDbEntity
  8
BOTTOM_U_306E_U_30B3_U_30D
  0
POLYLINE
  5
A3
330
1F
100
AcDbEntity
  8
BOTTOM_U_306E_U_30B3_U_30D
100
AcDb2dPolyline
 66
     1
 10
0.0
 20
0.0
 30
0.0
  0
VERTEX
  5
A4
330
A3
100
AcDbEntity
  8
BOTTOM_U_306E_U_30B3_U_30D
100
AcDbVertex
100
AcDb2dVertex
 10
29.55075110548852
 20
111.6238191929007
 30
0.0
  0
VERTEX
  5
A5
330
A3
100
AcDbEntity
  8
BOTTOM_U_306E_U_30B3_U_30D
100
AcDbVertex
100
AcDb2dVertex
 10
29.55075110548852
 20
115.2031138369977
 30
0.0
  0
VERTEX
  5
A6
330
A3
100
AcDbEntity
  8
BOTTOM_U_306E_U_30B3_U_30D
100
AcDbVertex
100
AcDb2dVertex
 10
29.55075110548852
 20
118.7824084810941
 30
0.0
  0
VERTEX
  5
A7
330
A3
100
AcDbEntity
  8
BOTTOM_U_306E_U_30B3_U_30D
100
AcDbVertex
100
AcDb2dVertex
 10
29.55075110548852
 20
122.3617031251911
 30
0.0
  0
VERTEX
  5
A8
330
A3
100
AcDbEntity
  8
BOTTOM_U_306E_U_30B3_U_30D
100
AcDbVertex
100
AcDb2dVertex
 10
29.55075110548852
 20
125.9409977692881
 30
0.0
  0
VERTEX
  5
A9
330
A3
100
AcDbEntity
  8
BOTTOM_U_306E_U_30B3_U_30D
100
AcDbVertex
100
AcDb2dVertex
 10
29.55075110548852
 20
129.5202924133851
 30
0.0
  0
VERTEX
  5
AA
330
A3
100
AcDbEntity
  8
BOTTOM_U_306E_U_30B3_U_30D
100
AcDbVertex
100
AcDb2dVertex
 10
29.55075110548852
 20
133.0995870574821
 30
0.0
  0
VERTEX
  5
AB
330
A3
100
AcDbEntity
  8
BOTTOM_U_306E_U_30B3_U_30D
100
AcDbVertex
100
AcDb2dVertex
 10
29.55075110548852
 20
136.6788817015791
 30
0.0
  0
VERTEX
  5
AC
330
A3
100
AcDbEntity
  8
BOTTOM_U_306E_U_30B3_U_30D
100
AcDbVertex
100
AcDb2dVertex
 10
29.55075110548852
 20
140.2581763456758
 30
0.0
  0
VERTEX
  5
AD
330
A3
100
AcDbEntity
  8
BOTTOM_U_306E_U_30B3_U_30D
100
AcDbVertex
100
AcDb2dVertex
 10
29.55075110548852
 20
143.8374709897725
 30
0.0
  0
VERTEX
  5
AE
330
A3
100
AcDbEntity
  8
BOTTOM_U_306E_U_30B3_U_30D
100
AcDbVertex
100
AcDb2dVertex
 10
29.55075110548852
 20
147.4167656338695
 30
0.0
  0
VERTEX
  5
AF
330
A3
100
AcDbEntity
  8
BOTTOM_U_306E_U_30B3_U_30D
100
AcDbVertex
100
AcDb2dVertex
 10
29.55075110548852
 20
150.9960602779665
 30
0.0
  0
VERTEX
  5
B0
330
A3
100
AcDbEntity
  8
BOTTOM_U_306E_U_30B3_U_30D
100
AcDbVertex
100
AcDb2dVertex
 10
29.55075110548852
 20
154.5753549220635
 30
0.0
  0
VERTEX
  5
B1
330
A3
100
AcDbEntity
  8
BOTTOM_U_306E_U_30B3_U_30D
100
AcDbVertex
100
AcDb2dVertex
 10
29.55075110548852
 20
158.1546495661605
 30
0.0
  0
VERTEX
  5
B2
330
A3
100
AcDbEntity
  8
BOTTOM_U_306E_U_30B3_U_30D
100
AcDbVertex
100
AcDb2dVertex
 10
29.55075110548852
 20
161.7339442102572
 30
0.0
  0
VERTEX
  5
B3
330
A3
100
AcDbEntity
  8
BOTTOM_U_306E_U_30B3_U_30D
100
AcDbVertex
100
AcDb2dVertex
 10
29.55075110548852
 20
165.3132388543538
 30
0.0
  0
VERTEX
  5
B4
330
A3
100
AcDbEntity
  8
BOTTOM_U_306E_U_30B3_U_30D
100
AcDbVertex
100
AcDb2dVertex
 10
29.55075110548852
 20
168.8925334984508
 30
0.0
  0
SEQEND
  5
B5
330
A3
100
AcDbEntity
  8
BOTTOM_U_306E_U_30B3_U_30D
  0
POLYLINE
  5
B6
330
1F
100
AcDbEntity
  8
BOTTOM_U_306E_U_30B3_U_30D
100
AcDb2dPolyline
 66
     1
 10
0.0
 20
0.0
 30
0.0
  0
VERTEX
  5
B7
330
B6
100
AcDbEntity
  8
BOTTOM_U_306E_U_30B3_U_30D
100
AcDbVertex
100
AcDb2dVertex
 10
134.3154876444041
 20
93.03296841404865
 30
0.0
  0
VERTEX
  5
B8
330
B6
100
AcDbEntity
  8
BOTTOM_U_306E_U_30B3_U_30D
100
AcDbVertex
100
AcDb2dVertex
 10
125.5201900447132
 20
97.28038622945355
 30
0.0
  0
VERTEX
  5
B9
330
B6
100
AcDbEntity
  8
BOTTOM_U_306E_U_30B3_U_30D
100
AcDbVertex
100
AcDb2dVertex
 10
117.028618157002
 20
100.8511145197291
 30
0.0
  0
VERTEX
  5
BA
330
B6
100
AcDbEntity
  8
BOTTOM_U_306E_U_30B3_U_30D
100
AcDbVertex
100
AcDb2dVertex
 10
108.8461977861552
 20
103.7938631851318
 30
0.0
  0
VERTEX
  5
BB
330
B6
100
AcDbEntity
  8
BOTTOM_U_306E_U_30B3_U_30D
100
AcDbVertex
100
AcDb2dVertex
 10
100.9783547370587
 20
106.157342125915
 30
0.0
  0
VERTEX
  5
BC
330
B6
100
AcDbEntity
  8
BOTTOM_U_306E_U_30B3_U_30D
100
AcDbVertex
100
AcDb2dVertex
 10
93.43051481459713
 20
107.9902612423346
 30
0.0
  0
VERTEX
  5
BD
330
B6
100
AcDbEntity
  8
BOTTOM_U_306E_U_30B3_U_30D
100
AcDbVertex
100
AcDb2dVertex
 10
86.20810382365667
 20
109.3413304346458
 30
0.0
  0
VERTEX
  5
BE
330
B6
100
AcDbEntity
  8
BOTTOM_U_306E_U_30B3_U_30D
100
AcDbVertex
100
AcDb2dVertex
 10
79.3165475691221
 20
110.2592596031021
 30
0.0
  0
VERTEX
  5
BF
330
B6
100
AcDbEntity
  8
BOTTOM_U_306E_U_30B3_U_30D
100
AcDbVertex
100
AcDb2dVertex
 10
72.7612718558782
 20
110.7927586479599
 30
0.0
  0
VERTEX
  5
C0
330
B6
100
AcDbEntity
  8
BOTTOM_U_306E_U_30B3_U_30D
100
AcDbVertex
100
AcDb2dVertex
 10
66.54770248881074
 20
110.9905374694726
 30
0.0
  0
VERTEX
  5
C1
330
B6
100
AcDbEntity
  8
BOTTOM_U_306E_U_30B3_U_30D
100
AcDbVertex
100
AcDb2dVertex
 10
60.68126527280547
 20
110.901305967896
 30
0.0
  0
VERTEX
  5
C2
330
B6
100
AcDbEntity
  8
BOTTOM_U_306E_U_30B3_U_30D
100
AcDbVertex
100
AcDb2dVertex
 10
55.16738601274718
 20
110.5737740434855
 30
0.0
  0
VERTEX
  5
C3
330
B6
100
AcDbEntity
  8
BOTTOM_U_306E_U_30B3_U_30D
100
AcDbVertex
100
AcDb2dVertex
 10
50.01149051352067
 20
110.056651596495
 30
0.0
  0
VERTEX
  5
C4
330
B6
100
AcDbEntity
  8
BOTTOM_U_306E_U_30B3_U_30D
100
AcDbVertex
100
AcDb2dVertex
 10
45.2190045800117
 20
109.3986485271797
 30
0.0
  0
VERTEX
  5
C5
330
B6
100
AcDbEntity
  8
BOTTOM_U_306E_U_30B3_U_30D
100
AcDbVertex
100
AcDb2dVertex
 10
40.79535401710601
 20
108.6484747357944
 30
0.0
  0
VERTEX
  5
C6
330
B6
100
AcDbEntity
  8
BOTTOM_U_306E_U_30B3_U_30D
100
AcDbVertex
100
AcDb2dVertex
 10
36.74596462968842
 20
107.8548401225948
 30
0.0
  0
VERTEX
  5
C7
330
B6
100
AcDbEntity
  8
BOTTOM_U_306E_U_30B3_U_30D
100
AcDbVertex
100
AcDb2dVertex
 10
33.07626222264403
 20
107.066454587835
 30
0.0
  0
SEQEND
  5
C8
330
B6
100
AcDbEntity
  8
BOTTOM_U_306E_U_30B3_U_30D
  0
POLYLINE
  5
C9
330
1F
100
AcDbEntity
  8
BOTTOM_U_306E_U_30B3_U_30D
100
AcDb2dPolyline
 66
     1
 10
0.0
 20
0.0
 30
0.0
  0
VERTEX
  5
CA
330
C9
100
AcDbEntity
  8
BOTTOM_U_306E_U_30B3_U_30D
100
AcDbVertex
100
AcDb2dVertex
 10
29.55075110548852
 20
111.7425899372425
 30
0.0
  0
VERTEX
  5
CB
330
C9
100
AcDbEntity
  8
BOTTOM_U_306E_U_30B3_U_30D
100
AcDbVertex
100
AcDb2dVertex
 10
29.5689355068834
 20
111.2641357789984
 30
0.0
  0
VERTEX
  5
CC
330
C9
100
AcDbEntity
  8
BOTTOM_U_306E_U_30B3_U_30D
100
AcDbVertex
100
AcDb2dVertex
 10
29.62231194477665
 20
110.7995819139943
 30
0.0
  0
VERTEX
  5
CD
330
C9
100
AcDbEntity
  8
BOTTOM_U_306E_U_30B3_U_30D
100
AcDbVertex
100
AcDb2dVertex
 10
29.70911526973099
 20
110.3512695850757
 30
0.0
  0
VERTEX
  5
CE
330
C9
100
AcDbEntity
  8
BOTTOM_U_306E_U_30B3_U_30D
100
AcDbVertex
100
AcDb2dVertex
 10
29.82758033230852
 20
109.9215400350888
 30
0.0
  0
VERTEX
  5
CF
330
C9
100
AcDbEntity
  8
BOTTOM_U_306E_U_30B3_U_30D
100
AcDbVertex
100
AcDb2dVertex
 10
29.9759419830723
 20
109.5127345068792
 30
0.0
  0
VERTEX
  5
D0
330
C9
100
AcDbEntity
  8
BOTTOM_U_306E_U_30B3_U_30D
100
AcDbVertex
100
AcDb2dVertex
 10
30.15243507258441
 20
109.1271942432931
 30
0.0
  0
VERTEX
  5
D1
330
C9
100
AcDbEntity
  8
BOTTOM_U_306E_U_30B3_U_30D
100
AcDbVertex
100
AcDb2dVertex
 10
30.35529445140791
 20
108.7672604871768
 30
0.0
  0
VERTEX
  5
D2
330
C9
100
AcDbEntity
  8
BOTTOM_U_306E_U_30B3_U_30D
100
AcDbVertex
100
AcDb2dVertex
 10
30.58275497010521
 20
108.4352744813752
 30
0.0
  0
VERTEX
  5
D3
330
C9
100
AcDbEntity
  8
BOTTOM_U_306E_U_30B3_U_30D
100
AcDbVertex
100
AcDb2dVertex
 10
30.83305147923872
 20
108.1335774687352
 30
0.0
  0
VERTEX
  5
D4
330
C9
100
AcDbEntity
  8
BOTTOM_U_306E_U_30B3_U_30D
100
AcDbVertex
100
AcDb2dVertex
 10
31.10441882937085
 20
107.864510692103
 30
0.0
  0
VERTEX
  5
D5
330
C9
100
AcDbEntity
  8
BOTTOM_U_306E_U_30B3_U_30D
100
AcDbVertex
100
AcDb2dVertex
 10
31.39509187106435
 20
107.6304153943234
 30
0.0
  0
VERTEX
  5
D6
330
C9
100
AcDbEntity
  8
BOTTOM_U_306E_U_30B3_U_30D
100
AcDbVertex
100
AcDb2dVertex
 10
31.70330545488226
 20
107.4336328182436
 30
0.0
  0
VERTEX
  5
D7
330
C9
100
AcDbEntity
  8
BOTTOM_U_306E_U_30B3_U_30D
100
AcDbVertex
100
AcDb2dVertex
 10
32.02729443138635
 20
107.2765042067089
 30
0.0
  0
VERTEX
  5
D8
330
C9
100
AcDbEntity
  8
BOTTOM_U_306E_U_30B3_U_30D
100
AcDbVertex
100
AcDb2dVertex
 10
32.36529365113968
 20
107.1613708025649
 30
0.0
  0
VERTEX
  5
D9
330
C9
100
AcDbEntity
  8
BOTTOM_U_306E_U_30B3_U_30D
100
AcDbVertex
100
AcDb2dVertex
 10
32.71553796470467
 20
107.0905738486587
 30
0.0
  0
VERTEX
  5
DA
330
C9
100
AcDbEntity
  8
BOTTOM_U_306E_U_30B3_U_30D
100
AcDbVertex
100
AcDb2dVertex
 10
33.07626222264403
 20
107.066454587835
 30
0.0
  0
SEQEND
  5
DB
330
C9
100
AcDbEntity
  8
BOTTOM_U_306E_U_30B3_U_30D
  0
POLYLINE
  5
DC
330
1F
100
AcDbEntity
  8
BOTTOM_U_306E_U_30B3_U_30D
100
AcDb2dPolyline
 66
     1
 10
0.0
 20
0.0
 30
0.0
  0
VERTEX
  5
DD
330
DC
100
AcDbEntity
  8
BOTTOM_U_306E_U_30B3_U_30D
100
AcDbVertex
100
AcDb2dVertex
 10
29.55075110548852
 20
168.8925334984508
 30
0.0
  0
VERTEX
  5
DE
330
DC
100
AcDbEntity
  8
BOTTOM_U_306E_U_30B3_U_30D
100
AcDbVertex
100
AcDb2dVertex
 10
29.55231925408719
 20
169.1842361606823
 30
0.0
  0
VERTEX
  5
DF
330
DC
100
AcDbEntity
  8
BOTTOM_U_306E_U_30B3_U_30D
100
AcDbVertex
100
AcDb2dVertex
 10
29.57488342650057
 20
169.478823029926
 30
0.0
  0
VERTEX
  5
E0
330
DC
100
AcDbEntity
  8
BOTTOM_U_306E_U_30B3_U_30D
100
AcDbVertex
100
AcDb2dVertex
 10
29.64523017447974
 20
169.7841928306221
 30
0.0
  0
VERTEX
  5
E1
330
DC
100
AcDbEntity
  8
BOTTOM_U_306E_U_30B3_U_30D
100
AcDbVertex
100
AcDb2dVertex
 10
29.79014604977578
 20
170.1082442872104
 30
0.0
  0
VERTEX
  5
E2
330
DC
100
AcDbEntity
  8
BOTTOM_U_306E_U_30B3_U_30D
100
AcDbVertex
100
AcDb2dVertex
 10
30.03641760414074
 20
170.4588761241314
 30
0.0
  0
VERTEX
  5
E3
330
DC
100
AcDbEntity
  8
BOTTOM_U_306E_U_30B3_U_30D
100
AcDbVertex
100
AcDb2dVertex
 10
30.41083138932506
 20
170.843987065825
 30
0.0
  0
VERTEX
  5
E4
330
DC
100
AcDbEntity
  8
BOTTOM_U_306E_U_30B3_U_30D
100
AcDbVertex
100
AcDb2dVertex
 10
30.94017395708079
 20
171.2714758367314
 30
0.0
  0
VERTEX
  5
E5
330
DC
100
AcDbEntity
  8
BOTTOM_U_306E_U_30B3_U_30D
100
AcDbVertex
100
AcDb2dVertex
 10
31.65123185915933
 20
171.7492411612905
 30
0.0
  0
VERTEX
  5
E6
330
DC
100
AcDbEntity
  8
BOTTOM_U_306E_U_30B3_U_30D
100
AcDbVertex
100
AcDb2dVertex
 10
32.57079164731145
 20
172.2851817639429
 30
0.0
  0
VERTEX
  5
E7
330
DC
100
AcDbEntity
  8
BOTTOM_U_306E_U_30B3_U_30D
100
AcDbVertex
100
AcDb2dVertex
 10
33.72563987328886
 20
172.8871963691283
 30
0.0
  0
VERTEX
  5
E8
330
DC
100
AcDbEntity
  8
BOTTOM_U_306E_U_30B3_U_30D
100
AcDbVertex
100
AcDb2dVertex
 10
35.14256308884297
 20
173.563183701287
 30
0.0
  0
VERTEX
  5
E9
330
DC
100
AcDbEntity
  8
BOTTOM_U_306E_U_30B3_U_30D
100
AcDbVertex
100
AcDb2dVertex
 10
36.84834784572487
 20
174.3210424848591
 30
0.0
  0
VERTEX
  5
EA
330
DC
100
AcDbEntity
  8
BOTTOM_U_306E_U_30B3_U_30D
100
AcDbVertex
100
AcDb2dVertex
 10
38.86978069568628
 20
175.1686714442847
 30
0.0
  0
VERTEX
  5
EB
330
DC
100
AcDbEntity
  8
BOTTOM_U_306E_U_30B3_U_30D
100
AcDbVertex
100
AcDb2dVertex
 10
41.23364819047828
 20
176.1139693040041
 30
0.0
  0
VERTEX
  5
EC
330
DC
100
AcDbEntity
  8
BOTTOM_U_306E_U_30B3_U_30D
100
AcDbVertex
100
AcDb2dVertex
 10
43.96673688185197
 20
177.1648347884573
 30
0.0
  0
VERTEX
  5
ED
330
DC
100
AcDbEntity
  8
BOTTOM_U_306E_U_30B3_U_30D
100
AcDbVertex
100
AcDb2dVertex
 10
47.09583332155938
 20
178.3291666220844
 30
0.0
  0
SEQEND
  5
EE
330
DC
100
AcDbEntity
  8
BOTTOM_U_306E_U_30B3_U_30D
  0
POLYLINE
  5
EF
330
1F
100
AcDbEntity
  8
BOTTOM_U_306E_U_30B3_U_30D
100
AcDb2dPolyline
 66
     1
 10
0.0
 20
0.0
 30
0.0
  0
VERTEX
  5
F0
330
EF
100
AcDbEntity
  8
BOTTOM_U_306E_U_30B3_U_30D
100
AcDbVertex
100
AcDb2dVertex
 10
100.486525651208
 20
188.9247558875963
 30
0.0
  0
VERTEX
  5
F1
330
EF
100
AcDbEntity
  8
BOTTOM_U_306E_U_30B3_U_30D
100
AcDbVertex
100
AcDb2dVertex
 10
105.3696621959996
 20
188.6246190241771
 30
0.0
  0
VERTEX
  5
F2
330
EF
100
AcDbEntity
  8
BOTTOM_U_306E_U_30B3_U_30D
100
AcDbVertex
100
AcDb2dVertex
 10
111.0037232017002
 20
187.9569427689972
 30
0.0
  0
VERTEX
  5
F3
330
EF
100
AcDbEntity
  8
BOTTOM_U_306E_U_30B3_U_30D
100
AcDbVertex
100
AcDb2dVertex
 10
117.2416244040165
 20
186.9662784114062
 30
0.0
  0
VERTEX
  5
F4
330
EF
100
AcDbEntity
  8
BOTTOM_U_306E_U_30B3_U_30D
100
AcDbVertex
100
AcDb2dVertex
 10
123.9362815386555
 20
185.6971772407552
 30
0.0
  0
VERTEX
  5
F5
330
EF
100
AcDbEntity
  8
BOTTOM_U_306E_U_30B3_U_30D
100
AcDbVertex
100
AcDb2dVertex
 10
130.9406103413249
 20
184.1941905463948
 30
0.0
  0
VERTEX
  5
F6
330
EF
100
AcDbEntity
  8
BOTTOM_U_306E_U_30B3_U_30D
100
AcDbVertex
100
AcDb2dVertex
 10
138.1075265477326
 20
182.5018696176758
 30
0.0
  0
VERTEX
  5
F7
330
EF
100
AcDbEntity
  8
BOTTOM_U_306E_U_30B3_U_30D
100
AcDbVertex
100
AcDb2dVertex
 10
145.2899458935852
 20
180.6647657439487
 30
0.0
  0
VERTEX
  5
F8
330
EF
100
AcDbEntity
  8
BOTTOM_U_306E_U_30B3_U_30D
100
AcDbVertex
100
AcDb2dVertex
 10
152.3407841145909
 20
178.7274302145643
 30
0.0
  0
VERTEX
  5
F9
330
EF
100
AcDbEntity
  8
BOTTOM_U_306E_U_30B3_U_30D
100
AcDbVertex
100
AcDb2dVertex
 10
159.1129569464556
 20
176.7344143188729
 30
0.0
  0
VERTEX
  5
FA
330
EF
100
AcDbEntity
  8
BOTTOM_U_306E_U_30B3_U_30D
100
AcDbVertex
100
AcDb2dVertex
 10
165.4593801248885
 20
174.7302693462256
 30
0.0
  0
VERTEX
  5
FB
330
EF
100
AcDbEntity
  8
BOTTOM_U_306E_U_30B3_U_30D
100
AcDbVertex
100
AcDb2dVertex
 10
171.232969385596
 20
172.7595465859729
 30
0.0
  0
VERTEX
  5
FC
330
EF
100
AcDbEntity
  8
BOTTOM_U_306E_U_30B3_U_30D
100
AcDbVertex
100
AcDb2dVertex
 10
176.2866404642858
 20
170.8667973274653
 30
0.0
  0
VERTEX
  5
FD
330
EF
100
AcDbEntity
  8
BOTTOM_U_306E_U_30B3_U_30D
100
AcDbVertex
100
AcDb2dVertex
 10
180.4733090966645
 20
169.0965728600536
 30
0.0
  0
VERTEX
  5
FE
330
EF
100
AcDbEntity
  8
BOTTOM_U_306E_U_30B3_U_30D
100
AcDbVertex
100
AcDb2dVertex
 10
183.6458910184406
 20
167.4934244730881
 30
0.0
  0
VERTEX
  5
FF
330
EF
100
AcDbEntity
  8
BOTTOM_U_306E_U_30B3_U_30D
100
AcDbVertex
100
AcDb2dVertex
 10
185.6573019653204
 20
166.10190345592
 30
0.0
  0
VERTEX
  5
100
330
EF
100
AcDbEntity
  8
BOTTOM_U_306E_U_30B3_U_30D
100
AcDbVertex
100
AcDb2dVertex
 10
186.3604576730125
 20
164.9665610978996
 30
0.0
  0
SEQEND
  5
101
330
EF
100
AcDbEntity
  8
BOTTOM_U_306E_U_30B3_U_30D
  0
POLYLINE
  5
102
330
1F
100
AcDbEntity
  8
BOTTOM_U_306E_U_30B3_U_30D
100
AcDb2dPolyline
 66
     1
 10
0.0
 20
0.0
 30
0.0
  0
VERTEX
  5
103
330
102
100
AcDbEntity
  8
BOTTOM_U_306E_U_30B3_U_30D
100
AcDbVertex
100
AcDb2dVertex
 10
47.09583332155938
 20
178.3291666220844
 30
0.0
  0
VERTEX
  5
104
330
102
100
AcDbEntity
  8
BOTTOM_U_306E_U_30B3_U_30D
100
AcDbVertex
100
AcDb2dVertex
 10
47.36242857160524
 20
178.4538390071286
 30
0.0
  0
VERTEX
  5
105
330
102
100
AcDbEntity
  8
BOTTOM_U_306E_U_30B3_U_30D
100
AcDbVertex
100
AcDb2dVertex
 10
48.14673755957448
 20
178.8056472650672
 30
0.0
  0
VERTEX
  5
106
330
102
100
AcDbEntity
  8
BOTTOM_U_306E_U_30B3_U_30D
100
AcDbVertex
100
AcDb2dVertex
 10
49.42554514221364
 20
179.3512780501104
 30
0.0
  0
VERTEX
  5
107
330
102
100
AcDbEntity
  8
BOTTOM_U_306E_U_30B3_U_30D
100
AcDbVertex
100
AcDb2dVertex
 10
51.17563617626895
 20
180.0574180164673
 30
0.0
  0
VERTEX
  5
108
330
102
100
AcDbEntity
  8
BOTTOM_U_306E_U_30B3_U_30D
100
AcDbVertex
100
AcDb2dVertex
 10
53.37379551848728
 20
180.8907538183482
 30
0.0
  0
VERTEX
  5
109
330
102
100
AcDbEntity
  8
BOTTOM_U_306E_U_30B3_U_30D
100
AcDbVertex
100
AcDb2dVertex
 10
55.99680802561614
 20
181.8179721099629
 30
0.0
  0
VERTEX
  5
10A
330
102
100
AcDbEntity
  8
BOTTOM_U_306E_U_30B3_U_30D
100
AcDbVertex
100
AcDb2dVertex
 10
59.0214585544011
 20
182.8057595455206
 30
0.0
  0
VERTEX
  5
10B
330
102
100
AcDbEntity
  8
BOTTOM_U_306E_U_30B3_U_30D
100
AcDbVertex
100
AcDb2dVertex
 10
62.42453196158903
 20
183.8208027792315
 30
0.0
  0
VERTEX
  5
10C
330
102
100
AcDbEntity
  8
BOTTOM_U_306E_U_30B3_U_30D
100
AcDbVertex
100
AcDb2dVertex
 10
66.18281310392679
 20
184.829788465305
 30
0.0
  0
VERTEX
  5
10D
330
102
100
AcDbEntity
  8
BOTTOM_U_306E_U_30B3_U_30D
100
AcDbVertex
100
AcDb2dVertex
 10
70.27308683816125
 20
185.7994032579514
 30
0.0
  0
VERTEX
  5
10E
330
102
100
AcDbEntity
  8
BOTTOM_U_306E_U_30B3_U_30D
100
AcDbVertex
100
AcDb2dVertex
 10
74.67213802103895
 20
186.6963338113798
 30
0.0
  0
VERTEX
  5
10F
330
102
100
AcDbEntity
  8
BOTTOM_U_306E_U_30B3_U_30D
100
AcDbVertex
100
AcDb2dVertex
 10
79.35675150930643
 20
187.4872667798001
 30
0.0
  0
VERTEX
  5
110
330
102
100
AcDbEntity
  8
BOTTOM_U_306E_U_30B3_U_30D
100
AcDbVertex
100
AcDb2dVertex
 10
84.30371215971024
 20
188.1388888174222
 30
0.0
  0
VERTEX
  5
111
330
102
100
AcDbEntity
  8
BOTTOM_U_306E_U_30B3_U_30D
100
AcDbVertex
100
AcDb2dVertex
 10
89.48980482899758
 20
188.6178865784558
 30
0.0
  0
VERTEX
  5
112
330
102
100
AcDbEntity
  8
BOTTOM_U_306E_U_30B3_U_30D
100
AcDbVertex
100
AcDb2dVertex
 10
94.89181437391433
 20
188.8909467171106
 30
0.0
  0
VERTEX
  5
113
330
102
100
AcDbEntity
  8
BOTTOM_U_306E_U_30B3_U_30D
100
AcDbVertex
100
AcDb2dVertex
 10
100.486525651208
 20
188.9247558875963
 30
0.0
  0
SEQEND
  5
114
330
102
100
AcDbEntity
  8
BOTTOM_U_306E_U_30B3_U_30D
  0
ENDSEC
  0
SECTION
  2
OBJECTS
  0
DICTIONARY
  5
C
330
0
100
AcDbDictionary
  3
ACAD_GROUP
350
D
  3
ACAD_LAYOUT
350
1A
  3
ACAD_MATERIAL
350
3B
  3
ACAD_MLEADERSTYLE
350
13A
  3
ACAD_MLINESTYLE
350
17
  3
ACAD_PLOTSETTINGS
350
19
  3
ACAD_VISUALSTYLE
350
2A
  3
ACDBHEADERROUNDTRIPXREC
350
118
  3
ACDBVARIABLEDICTIONARY
350
138
  0
DICTIONARY
  5
D
102
{ACAD_REACTORS
330
C
102
}
330
C
100
AcDbDictionary
  0
DICTIONARY
  5
1A
102
{ACAD_REACTORS
330
C
102
}
330
C
100
AcDbDictionary
  0
DICTIONARY
  5
3B
102
{ACAD_REACTORS
330
C
102
}
330
C
100
AcDbDictionary
  3
BYBLOCK
350
3D
  3
BYLAYER
350
3C
  3
GLOBAL
350
3E
  0
DICTIONARY
  5
13A
102
{ACAD_REACTORS
330
C
102
}
330
C
100
AcDbDictionary
  0
DICTIONARY
  5
17
102
{ACAD_REACTORS
330
C
102
}
330
C
100
AcDbDictionary
  3
STANDARD
350
18
  0
DICTIONARY
  5
19
102
{ACAD_REACTORS
330
C
102
}
330
C
100
AcDbDictionary
  0
DICTIONARY
  5
2A
102
{ACAD_REACTORS
330
C
102
}
330
C
100
AcDbDictionary
  3
2DWIREFRAME
350
2F
  3
3D_HIDDEN
350
31
  3
3DWIREFRAME
350
30
  3
BASIC
350
32
  3
BRIGHTEN
350
36
  3
COLORCHANGE
350
3A
  3
CONCEPTUAL
350
34
  3
DIM
350
35
  3
FACEPATTERN
350
39
  3
FLAT
350
2B
  3
FLATWITHEDGES
350
2C
  3
GOURAUD
350
2D
  3
GOURAUDWITHEDGES
350
2E
  3
LINEPATTERN
350
38
  3
REALISTIC
350
33
  3
THICKEN
350
37
  0
DICTIONARY
  5
118
102
{ACAD_REACTORS
330
C
102
}
330
C
100
AcDbDictionary
  3
CEPSNTYPE
350
121
  3
DIMSTYLEDATA
350
137
  3
FINGERPRINTGUID
350
122
  3
HYPERLINKBASE
350
11B
  3
INSUNITS
350
120
  3
LAYOUTDICT
350
11D
  3
LWETCUNION
350
11F
  3
PLOTSETDICT
350
11E
  3
PSVPSCALE
350
124
  3
PUCSBASE
350
127
  3
PUCSORGBACK
350
12D
  3
PUCSORGBOTTOM
350
129
  3
PUCSORGFRONT
350
12C
  3
PUCSORGLEFT
350
12A
  3
PUCSORGRIGHT
350
12B
  3
PUCSORGTOP
350
128
  3
PUCSORTHOREF
350
125
  3
PUCSORTHOVIEW
350
126
  3
STYLESHEET
350
11C
  3
TSTACKALIGN
350
119
  3
TSTACKSIZE
350
11A
  3
UCSBASE
350
130
  3
UCSORGBACK
350
136
  3
UCSORGBOTTOM
350
132
  3
UCSORGFRONT
350
135
  3
UCSORGLEFT
350
133
  3
UCSORGRIGHT
350
134
  3
UCSORGTOP
350
131
  3
UCSORTHOREF
350
12E
  3
UCSORTHOVIEW
350
12F
  3
VERSIONGUID
350
123
  0
DICTIONARY
  5
138
102
{ACAD_REACTORS
330
C
102
}
330
C
100
AcDbDictionary
  3
DIMASSOC
350
13B
  3
HIDETEXT
350
13C
  0
MATERIAL
  5
3D
102
{ACAD_REACTORS
330
3B
102
}
102
{ACAD_XDICTIONARY
360
13F
102
}
330
3B
100
AcDbMaterial
  1
ByBlock
  0
MATERIAL
  5
3C
102
{ACAD_REACTORS
330
3B
102
}
102
{ACAD_XDICTIONARY
360
13D
102
}
330
3B
100
AcDbMaterial
  1
ByLayer
  0
MATERIAL
  5
3E
102
{ACAD_REACTORS
330
3B
102
}
102
{ACAD_XDICTIONARY
360
141
102
}
330
3B
100
AcDbMaterial
  1
Global
  0
MLINESTYLE
  5
18
102
{ACAD_REACTORS
330
17
102
}
330
17
100
AcDbMlineStyle
  2
Standard
 70
     0
  3

 62
   256
 51
90.0
 52
90.0
 71
     2
 49
0.5
 62
   256
  6
BYLAYER
 49
-0.5
 62
   256
  6
BYLAYER
  0
ACAD_PROXY_OBJECT
  5
2F
102
{ACAD_REACTORS
330
2A
102
}
330
2A
100
AcDbProxyObject
 90
      499
 91
      501
 93
      436
310
42CC9915DA5C99599C985B595049028333333333333E3BF0000000000000FB0107901411070040501600405405064090741402480A0340
1001
ACAD
1000
AcDbSavedByObjectVersion
1070
     0
  0
ACAD_PROXY_OBJECT
  5
31
102
{ACAD_REACTORS
330
2A
102
}
330
2A
100
AcDbProxyObject
 90
      499
 91
      501
 93
      500
310
424CD108121A5919195B90640502408333333333333E3BF0000000000000FB01079024090700405020000000000001110200405405064090740C02480A0340
1001
ACAD
1000
AcDbSavedByObjectVersion
1070
     0
  0
ACAD_PROXY_OBJECT
  5
30
102
{ACAD_REACTORS
330
2A
102
}
330
2A
100
AcDbProxyObject
 90
      499
 91
      501
 93
      436
310
42CCD915DA5C99599C985B595059028333333333333E3BF0000000000000FB0107901411070040501600405405064090741402480A0340
1001
ACAD
1000
AcDbSavedByObjectVersion
1070
     0
  0
ACAD_PROXY_OBJECT
  5
32
102
{ACAD_REACTORS
330
2A
102
}
330
2A
100
AcDbProxyObject
 90
      499
 91
      501
 93
      388
310
4150985CDA58D07406404333333333333E3BF0000000000000FB0107A41107004050150841D405064090741402480A0350
1001
ACAD
1000
AcDbSavedByObjectVersion
1070
     0
  0
ACAD_PROXY_OBJECT
  5
36
102
{ACAD_REACTORS
330
2A
102
}
330
2A
100
AcDbProxyObject
 90
      499
 91
      501
 93
      428
310
42109C9A59DA1D195B90C409028333333333333E3BF0000000000000FB010790141107004050150841D405064090741402480A029950
1001
ACAD
1000
AcDbSavedByObjectVersion
1070
     0
  0
ACAD_PROXY_OBJECT
  5
3A
102
{ACAD_REACTORS
330
2A
102
}
330
2A
100
AcDbProxyObject
 90
      499
 91
      501
 93
      452
310
42D0DBDB1BDC90DA185B99D95104090240C333333333333E3BF0000000000000FB0108901411070040501508421405064090741402480A0350
1001
ACAD
1000
AcDbSavedByObjectVersion
1070
     0
  0
ACAD_PROXY_OBJECT
  5
34
102
{ACAD_REACTORS
330
2A
102
}
330
2A
100
AcDbProxyObject
 90
      499
 91
      501
 93
      500
310
4290DBDB98D95C1D1D585B10940D028333333333333E3BF0000000000000FB0107902409070040501000000000000111010841D405064090740C02480A0340
1001
ACAD
1000
AcDbSavedByObjectVersion
1070
     0
  0
ACAD_PROXY_OBJECT
  5
35
102
{ACAD_REACTORS
330
2A
102
}
330
2A
100
AcDbProxyObject
 90
      499
 91
      501
 93
      412
310
40D11A5B50B409028333333333333E3BF0000000000000FB010790141107004050150841D405064090741402480A02677FFFFFD0
1001
ACAD
1000
AcDbSavedByObjectVersion
1070
     0
  0
ACAD_PROXY_OBJECT
  5
39
102
{ACAD_REACTORS
330
2A
102
}
330
2A
100
AcDbProxyObject
 90
      499
 91
      501
 93
      444
310
42D19858D95C185D1D195C9B90F409028333333333333E3BF0000000000000FB010790141107004050150841D405064090741402480A0350
1001
ACAD
1000
AcDbSavedByObjectVersion
1070
     0
  0
ACAD_PROXY_OBJECT
  5
2B
102
{ACAD_REACTORS
330
2A
102
}
330
2A
100
AcDbProxyObject
 90
      499
 91
      501
 93
      388
310
41119B185D240901404333333333333E3BF0000000000000F9010740A41107004050150841D405064090741402480A1B50
1001
ACAD
1000
AcDbSavedByObjectVersion
1070
     0
  0
ACAD_PROXY_OBJECT
  5
2C
102
{ACAD_REACTORS
330
2A
102
}
330
2A
100
AcDbProxyObject
 90
      499
 91
      501
 93
      476
310
43519B185D15DA5D1A115919D95CD0140901404333333333333E3BF0000000000000F9010740901411070040501600405405064090741402480A1B50
1001
ACAD
1000
AcDbSavedByObjectVersion
1070
     0
  0
ACAD_PROXY_OBJECT
  5
2D
102
{ACAD_REACTORS
330
2A
102
}
330
2A
100
AcDbProxyObject
 90
      499
 91
      501
 93
      412
310
41D1DBDD5C985D5910240902404333333333333E3BF0000000000000F9010740A411070040501641D405064090741402480A1B50
1001
ACAD
1000
AcDbSavedByObjectVersion
1070
     0
  0
ACAD_PROXY_OBJECT
  5
2E
102
{ACAD_REACTORS
330
2A
102
}
330
2A
100
AcDbProxyObject
 90
      499
 91
      501
 93
      500
310
4411DBDD5C985D5915DA5D1A115919D95CD0340902404333333333333E3BF0000000000000F9010740901411070040501600405405064090741402480A1B50
1001
ACAD
1000
AcDbSavedByObjectVersion
1070
     0
  0
ACAD_PROXY_OBJECT
  5
38
102
{ACAD_REACTORS
330
2A
102
}
330
2A
100
AcDbProxyObject
 90
      499
 91
      501
 93
      444
310
42D31A5B995C185D1D195C9B90E409028333333333333E3BF0000000000000FB010790141107004050750841D405064090741402483A0350
1001
ACAD
1000
AcDbSavedByObjectVersion
1070
     0
  0
ACAD_PROXY_OBJECT
  5
33
102
{ACAD_REACTORS
330
2A
102
}
330
2A
100
AcDbProxyObject
 90
      499
 91
      501
 93
      420
310
425499585B1A5CDD1A58D08409028333333333333E3BF0000000000000FB01079019070040501508421405064090741402480A1B40
1001
ACAD
1000
AcDbSavedByObjectVersion
1070
     0
  0
ACAD_PROXY_OBJECT
  5
37
102
{ACAD_REACTORS
330
2A
102
}
330
2A
100
AcDbProxyObject
 90
      499
 91
      501
 93
      412
310
41D51A1A58DAD95B90D409028333333333333E3BF0000000000000FB010790141107004050150C41D405064090741402480A0350
1001
ACAD
1000
AcDbSavedByObjectVersion
1070
     0
  0
XRECORD
  5
121
102
{ACAD_REACTORS
330
118
102
}
330
118
100
AcDbXrecord
 90
        0
  0
XRECORD
  5
137
102
{ACAD_REACTORS
330
118
102
}
330
118
100
AcDbXrecord
1000
DSTYLE
1002
{
1070
   340
340
11
1002
}
  0
XRECORD
  5
122
102
{ACAD_REACTORS
330
118
102
}
330
118
100
AcDbXrecord
  1
{96A3F23E-EEBD-495E-AECD-B9A2EC3D1D54}
  0
XRECORD
  5
11B
102
{ACAD_REACTORS
330
118
102
}
330
118
100
AcDbXrecord
  1

  0
XRECORD
  5
120
102
{ACAD_REACTORS
330
118
102
}
330
118
100
AcDbXrecord
 90
        1
  0
XRECORD
  5
11D
102
{ACAD_REACTORS
330
118
102
}
330
118
100
AcDbXrecord
340
1A
  0
XRECORD
  5
11F
102
{ACAD_REACTORS
330
118
102
}
330
118
100
AcDbXrecord
 90
    10269
  0
XRECORD
  5
11E
102
{ACAD_REACTORS
330
118
102
}
330
118
100
AcDbXrecord
340
19
  0
XRECORD
  5
124
102
{ACAD_REACTORS
330
118
102
}
330
118
100
AcDbXrecord
 40
0.0
  0
XRECORD
  5
127
102
{ACAD_REACTORS
330
118
102
}
330
118
100
AcDbXrecord
340
0
  0
XRECORD
  5
12D
102
{ACAD_REACTORS
330
118
102
}
330
118
100
AcDbXrecord
 10
0.0
 20
0.0
 30
0.0
  0
XRECORD
  5
129
102
{ACAD_REACTORS
330
118
102
}
330
118
100
AcDbXrecord
 10
0.0
 20
0.0
 30
0.0
  0
XRECORD
  5
12C
102
{ACAD_REACTORS
330
118
102
}
330
118
100
AcDbXrecord
 10
0.0
 20
0.0
 30
0.0
  0
XRECORD
  5
12A
102
{ACAD_REACTORS
330
118
102
}
330
118
100
AcDbXrecord
 10
0.0
 20
0.0
 30
0.0
  0
XRECORD
  5
12B
102
{ACAD_REACTORS
330
118
102
}
330
118
100
AcDbXrecord
 10
0.0
 20
0.0
 30
0.0
  0
XRECORD
  5
128
102
{ACAD_REACTORS
330
118
102
}
330
118
100
AcDbXrecord
 10
0.0
 20
0.0
 30
0.0
  0
XRECORD
  5
125
102
{ACAD_REACTORS
330
118
102
}
330
118
100
AcDbXrecord
340
0
  0
XRECORD
  5
126
102
{ACAD_REACTORS
330
118
102
}
330
118
100
AcDbXrecord
 70
     0
  0
XRECORD
  5
11C
102
{ACAD_REACTORS
330
118
102
}
330
118
100
AcDbXrecord
  1

  0
XRECORD
  5
119
102
{ACAD_REACTORS
330
118
102
}
330
118
100
AcDbXrecord
 90
        1
  0
XRECORD
  5
11A
102
{ACAD_REACTORS
330
118
102
}
330
118
100
AcDbXrecord
 90
       70
  0
XRECORD
  5
130
102
{ACAD_REACTORS
330
118
102
}
330
118
100
AcDbXrecord
340
0
  0
XRECORD
  5
136
102
{ACAD_REACTORS
330
118
102
}
330
118
100
AcDbXrecord
 10
0.0
 20
0.0
 30
0.0
  0
XRECORD
  5
132
102
{ACAD_REACTORS
330
118
102
}
330
118
100
AcDbXrecord
 10
0.0
 20
0.0
 30
0.0
  0
XRECORD
  5
135
102
{ACAD_REACTORS
330
118
102
}
330
118
100
AcDbXrecord
 10
0.0
 20
0.0
 30
0.0
  0
XRECORD
  5
133
102
{ACAD_REACTORS
330
118
102
}
330
118
100
AcDbXrecord
 10
0.0
 20
0.0
 30
0.0
  0
XRECORD
  5
134
102
{ACAD_REACTORS
330
118
102
}
330
118
100
AcDbXrecord
 10
0.0
 20
0.0
 30
0.0
  0
XRECORD
  5
131
102
{ACAD_REACTORS
330
118
102
}
330
118
100
AcDbXrecord
 10
0.0
 20
0.0
 30
0.0
  0
XRECORD
  5
12E
102
{ACAD_REACTORS
330
118
102
}
330
118
100
AcDbXrecord
340
0
  0
XRECORD
  5
12F
102
{ACAD_REACTORS
330
118
102
}
330
118
100
AcDbXrecord
 70
     0
  0
XRECORD
  5
123
102
{ACAD_REACTORS
330
118
102
}
330
118
100
AcDbXrecord
  1
{FAEB1C32-E019-11D5-929B-00C0DF256EC4}
  0
DICTIONARYVAR
  5
13B
102
{ACAD_REACTORS
330
138
102
}
330
138
100
DictionaryVariables
280
     0
  1
2
  0
DICTIONARYVAR
  5
13C
102
{ACAD_REACTORS
330
138
102
}
330
138
100
DictionaryVariables
280
     0
  1
1
  0
DICTIONARY
  5
13F
330
3D
100
AcDbDictionary
280
     1
  3
ACAD_XREC_ROUNDTRIP
360
140
  0
DICTIONARY
  5
13D
330
3C
100
AcDbDictionary
280
     1
  3
ACAD_XREC_ROUNDTRIP
360
13E
  0
DICTIONARY
  5
141
330
3E
100
AcDbDictionary
280
     1
  3
ACAD_XREC_ROUNDTRIP
360
142
  0
XRECORD
  5
140
102
{ACAD_REACTORS
330
13F
102
}
330
13F
100
AcDbXrecord
102
MATERIAL
148
0.0
149
0.0
149
0.0
 93
        0
 94
      127
282
     0
 72
     1
 77
     1
171
     1
175
     1
179
     1
273
     0
  0
XRECORD
  5
13E
102
{ACAD_REACTORS
330
13D
102
}
330
13D
100
AcDbXrecord
102
MATERIAL
148
0.0
149
0.0
149
0.0
 93
        0
 94
      127
282
     0
 72
     1
 77
     1
171
     1
175
     1
179
     1
273
     0
  0
XRECORD
  5
142
102
{ACAD_REACTORS
330
141
102
}
330
141
100
AcDbXrecord
102
MATERIAL
148
0.0
149
0.0
149
0.0
 93
        0
 94
      127
282
     0
 72
     1
 77
     1
171
     1
175
     1
179
     1
273
     0
  0
ENDSEC
  0
EOF
