  0
SECTION
  2
HEADER
  9
$ACADVER
  1
AC1014
  9
$ACADMAINTVER
 70
     9
  9
$DWGCODEPAGE
  3
ANSI_932
  9
$INSBASE
 10
0.0
 20
0.0
 30
0.0
  9
$EXTMIN
 10
1.000000000000000E+20
 20
1.000000000000000E+20
 30
1.000000000000000E+20
  9
$EXTMAX
 10
-1.000000000000000E+20
 20
-1.000000000000000E+20
 30
-1.000000000000000E+20
  9
$LIMMIN
 10
0.0
 20
0.0
  9
$LIMMAX
 10
12.0
 20
9.0
  9
$ORTHOMODE
 70
     0
  9
$REGENMODE
 70
     1
  9
$FILLMODE
 70
     1
  9
$QTEXTMODE
 70
     0
  9
$MIRRTEXT
 70
     1
  9
$DRAGMODE
 70
     2
  9
$LTSCALE
 40
1.0
  9
$OSMODE
 70
    37
  9
$ATTMODE
 70
     1
  9
$TEXTSIZE
 40
0.2
  9
$TRACEWID
 40
0.05
  9
$TEXTSTYLE
  7
STANDARD
  9
$CLAYER
  8
0
  9
$CELTYPE
  6
BYLAYER
  9
$CECOLOR
 62
   256
  9
$CELTSCALE
 40
1.0
  9
$DELOBJ
 70
     1
  9
$DISPSILH
 70
     0
  9
$DIMSCALE
 40
1.0
  9
$DIMASZ
 40
0.18
  9
$DIMEXO
 40
0.0625
  9
$DIMDLI
 40
0.38
  9
$DIMRND
 40
0.0
  9
$DIMDLE
 40
0.0
  9
$DIMEXE
 40
0.18
  9
$DIMTP
 40
0.0
  9
$DIMTM
 40
0.0
  9
$DIMTXT
 40
0.18
  9
$DIMCEN
 40
0.09
  9
$DIMTSZ
 40
0.0
  9
$DIMTOL
 70
     0
  9
$DIMLIM
 70
     0
  9
$DIMTIH
 70
     1
  9
$DIMTOH
 70
     1
  9
$DIMSE1
 70
     0
  9
$DIMSE2
 70
     0
  9
$DIMTAD
 70
     0
  9
$DIMZIN
 70
     0
  9
$DIMBLK
  1

  9
$DIMASO
 70
     1
  9
$DIMSHO
 70
     1
  9
$DIMPOST
  1

  9
$DIMAPOST
  1

  9
$DIMALT
 70
     0
  9
$DIMALTD
 70
     2
  9
$DIMALTF
 40
25.4
  9
$DIMLFAC
 40
1.0
  9
$DIMTOFL
 70
     0
  9
$DIMTVP
 40
0.0
  9
$DIMTIX
 70
     0
  9
$DIMSOXD
 70
     0
  9
$DIMSAH
 70
     0
  9
$DIMBLK1
  1

  9
$DIMBLK2
  1

  9
$DIMSTYLE
  2
STANDARD
  9
$DIMCLRD
 70
     0
  9
$DIMCLRE
 70
     0
  9
$DIMCLRT
 70
     0
  9
$DIMTFAC
 40
1.0
  9
$DIMGAP
 40
0.09
  9
$DIMJUST
 70
     0
  9
$DIMSD1
 70
     0
  9
$DIMSD2
 70
     0
  9
$DIMTOLJ
 70
     1
  9
$DIMTZIN
 70
     0
  9
$DIMALTZ
 70
     0
  9
$DIMALTTZ
 70
     0
  9
$DIMFIT
 70
     3
  9
$DIMUPT
 70
     0
  9
$DIMUNIT
 70
     2
  9
$DIMDEC
 70
     4
  9
$DIMTDEC
 70
     4
  9
$DIMALTU
 70
     2
  9
$DIMALTTD
 70
     2
  9
$DIMTXSTY
  7
STANDARD
  9
$DIMAUNIT
 70
     0
  9
$LUNITS
 70
     2
  9
$LUPREC
 70
     4
  9
$SKETCHINC
 40
0.1
  9
$FILLETRAD
 40
0.5
  9
$AUNITS
 70
     0
  9
$AUPREC
 70
     0
  9
$MENU
  1
.
  9
$ELEVATION
 40
0.0
  9
$PELEVATION
 40
0.0
  9
$THICKNESS
 40
0.0
  9
$LIMCHECK
 70
     0
  9
$CHAMFERA
 40
0.5
  9
$CHAMFERB
 40
0.5
  9
$CHAMFERC
 40
1.0
  9
$CHAMFERD
 40
0.0
  9
$SKPOLY
 70
     0
  9
$TDCREATE
 40
2458613.732522835
  9
$TDUPDATE
 40
2458613.732522951
  9
$TDINDWG
 40
0.0000000116
  9
$TDUSRTIMER
 40
0.0000000116
  9
$USRTIMER
 70
     1
  9
$ANGBASE
 50
0.0
  9
$ANGDIR
 70
     0
  9
$PDMODE
 70
     0
  9
$PDSIZE
 40
0.0
  9
$PLINEWID
 40
0.0
  9
$COORDS
 70
     1
  9
$SPLFRAME
 70
     0
  9
$SPLINETYPE
 70
     6
  9
$SPLINESEGS
 70
     8
  9
$ATTDIA
 70
     0
  9
$ATTREQ
 70
     1
  9
$HANDLING
 70
     1
  9
$HANDSEED
  5
451
  9
$SURFTAB1
 70
     6
  9
$SURFTAB2
 70
     6
  9
$SURFTYPE
 70
     6
  9
$SURFU
 70
     6
  9
$SURFV
 70
     6
  9
$UCSNAME
  2

  9
$UCSORG
 10
0.0
 20
0.0
 30
0.0
  9
$UCSXDIR
 10
1.0
 20
0.0
 30
0.0
  9
$UCSYDIR
 10
0.0
 20
1.0
 30
0.0
  9
$PUCSNAME
  2

  9
$PUCSORG
 10
0.0
 20
0.0
 30
0.0
  9
$PUCSXDIR
 10
1.0
 20
0.0
 30
0.0
  9
$PUCSYDIR
 10
0.0
 20
1.0
 30
0.0
  9
$USERI1
 70
     0
  9
$USERI2
 70
     0
  9
$USERI3
 70
     0
  9
$USERI4
 70
     0
  9
$USERI5
 70
     0
  9
$USERR1
 40
0.0
  9
$USERR2
 40
0.0
  9
$USERR3
 40
0.0
  9
$USERR4
 40
0.0
  9
$USERR5
 40
0.0
  9
$WORLDVIEW
 70
     1
  9
$SHADEDGE
 70
     3
  9
$SHADEDIF
 70
    70
  9
$TILEMODE
 70
     1
  9
$MAXACTVP
 70
    64
  9
$PINSBASE
 10
0.0
 20
0.0
 30
0.0
  9
$PLIMCHECK
 70
     0
  9
$PEXTMIN
 10
1.000000000000000E+20
 20
1.000000000000000E+20
 30
1.000000000000000E+20
  9
$PEXTMAX
 10
-1.000000000000000E+20
 20
-1.000000000000000E+20
 30
-1.000000000000000E+20
  9
$PLIMMIN
 10
0.0
 20
0.0
  9
$PLIMMAX
 10
12.0
 20
9.0
  9
$UNITMODE
 70
     0
  9
$VISRETAIN
 70
     1
  9
$PLINEGEN
 70
     0
  9
$PSLTSCALE
 70
     1
  9
$TREEDEPTH
 70
  3020
  9
$PICKSTYLE
 70
     1
  9
$CMLSTYLE
  2
STANDARD
  9
$CMLJUST
 70
     0
  9
$CMLSCALE
 40
1.0
  9
$PROXYGRAPHICS
 70
     1
  9
$MEASUREMENT
 70
     0
  0
ENDSEC
  0
SECTION
  2
CLASSES
  0
CLASS
  1
ACDBDICTIONARYWDFLT
  2
AcDbDictionaryWithDefault
  3
ObjectDBX Classes
 90
        0
280
     0
281
     0
  0
CLASS
  1
VISUALSTYLE
  2
AcDbVisualStyle
  3
ObjectDBX Classes
 90
     4095
280
     0
281
     0
  0
CLASS
  1
MATERIAL
  2
AcDbMaterial
  3
ObjectDBX Classes
 90
     1153
280
     0
281
     0
  0
CLASS
  1
SUN
  2
AcDbSun
  3
SCENEOE
 90
     1024
280
     0
281
     0
  0
CLASS
  1
DICTIONARYVAR
  2
AcDbDictionaryVar
  3
ObjectDBX Classes
 90
        0
280
     0
281
     0
  0
CLASS
  1
XRECORD
  2
AcDbXrecord
  3
AutoCAD 2000
 90
        0
280
     0
281
     0
  0
CLASS
  1
LWPOLYLINE
  2
AcDbPolyline
  3
AutoCAD 2000
 90
        0
280
     0
281
     1
  0
CLASS
  1
HATCH
  2
AcDbHatch
  3
AutoCAD 2000
 90
        0
280
     0
281
     1
  0
CLASS
  1
ACDBPLACEHOLDER
  2
AcDbPlaceHolder
  3
ObjectDBX Classes
 90
        0
280
     0
281
     0
  0
CLASS
  1
LAYOUT
  2
AcDbLayout
  3
ObjectDBX Classes
 90
        0
280
     0
281
     0
  0
ENDSEC
  0
SECTION
  2
TABLES
  0
TABLE
  2
VPORT
  5
8
330
0
100
AcDbSymbolTable
 70
     1
  0
VPORT
  5
29
330
8
100
AcDbSymbolTableRecord
100
AcDbViewportTableRecord
  2
*ACTIVE
 70
     0
 10
0.0
 20
0.0
 11
1.0
 21
1.0
 12
0.0
 22
0.0
 13
0.0
 23
0.0
 14
0.5
 24
0.5
 15
0.5
 25
0.5
 16
0.0
 26
0.0
 36
1.0
 17
107.9499999730125
 27
139.699999965075
 37
0.0
 40
279.39999993015
 41
0.7727272727272728
 42
50.0
 43
0.0
 44
0.0
 50
0.0
 51
0.0
 71
     0
 72
   100
 73
     1
 74
     3
 75
     0
 76
     0
 77
     0
 78
     0
  0
ENDTAB
  0
TABLE
  2
LTYPE
  5
5
330
0
100
AcDbSymbolTable
 70
     1
  0
LTYPE
  5
14
330
5
100
AcDbSymbolTableRecord
100
AcDbLinetypeTableRecord
  2
BYBLOCK
 70
     0
  3

 72
    65
 73
     0
 40
0.0
  0
LTYPE
  5
15
330
5
100
AcDbSymbolTableRecord
100
AcDbLinetypeTableRecord
  2
BYLAYER
 70
     0
  3

 72
    65
 73
     0
 40
0.0
  0
LTYPE
  5
16
330
5
100
AcDbSymbolTableRecord
100
AcDbLinetypeTableRecord
  2
CONTINUOUS
 70
     0
  3
Solid line
 72
    65
 73
     0
 40
0.0
  0
ENDTAB
  0
TABLE
  2
LAYER
  5
2
330
0
100
AcDbSymbolTable
 70
     6
  0
LAYER
  5
10
330
2
100
AcDbSymbolTableRecord
100
AcDbLayerTableRecord
  2
0
 70
     0
 62
     7
  6
CONTINUOUS
  0
LAYER
  5
40
330
2
100
AcDbSymbolTableRecord
100
AcDbLayerTableRecord
  2
SWITCH
 70
     1
 62
     7
  6
CONTINUOUS
  0
LAYER
  5
41
330
2
100
AcDbSymbolTableRecord
100
AcDbLayerTableRecord
  2
TOP
 70
     1
 62
     7
  6
CONTINUOUS
  0
LAYER
  5
42
330
2
100
AcDbSymbolTableRecord
100
AcDbLayerTableRecord
  2
BOTTOM
 70
     1
 62
     7
  6
CONTINUOUS
  0
LAYER
  5
43
330
2
100
AcDbSymbolTableRecord
100
AcDbLayerTableRecord
  2
TOP_U_306E_U_30B3_U_30D4_U
 70
     0
 62
     7
  6
CONTINUOUS
  0
LAYER
  5
311
330
2
100
AcDbSymbolTableRecord
100
AcDbLayerTableRecord
  2
BOTTOM_U_306E_U_30B3_U_30D
 70
     0
 62
     7
  6
CONTINUOUS
  0
ENDTAB
  0
TABLE
  2
STYLE
  5
3
330
0
100
AcDbSymbolTable
 70
     1
  0
STYLE
  5
11
330
3
100
AcDbSymbolTableRecord
100
AcDbTextStyleTableRecord
  2
STANDARD
 70
     0
 40
0.0
 41
1.0
 50
0.0
 71
     0
 42
0.2
  3
txt
  4

  0
ENDTAB
  0
TABLE
  2
VIEW
  5
6
330
0
100
AcDbSymbolTable
 70
     0
  0
ENDTAB
  0
TABLE
  2
UCS
  5
7
330
0
100
AcDbSymbolTable
 70
     0
  0
ENDTAB
  0
TABLE
  2
APPID
  5
9
330
0
100
AcDbSymbolTable
 70
     1
  0
APPID
  5
12
330
9
100
AcDbSymbolTableRecord
100
AcDbRegAppTableRecord
  2
ACAD
 70
     0
  0
ENDTAB
  0
TABLE
  2
DIMSTYLE
  5
A
330
0
100
AcDbSymbolTable
 70
     1
  0
DIMSTYLE
105
27
330
A
100
AcDbSymbolTableRecord
100
AcDbDimStyleTableRecord
  2
STANDARD
 70
     0
  3

  4

  5

  6

  7

 40
1.0
 41
0.18
 42
0.0625
 43
0.38
 44
0.18
 45
0.0
 46
0.0
 47
0.0
 48
0.0
140
0.18
141
0.09
142
0.0
143
25.4
144
1.0
145
0.0
146
1.0
147
0.09
 71
     0
 72
     0
 73
     1
 74
     1
 75
     0
 76
     0
 77
     0
 78
     0
170
     0
171
     2
172
     0
173
     0
174
     0
175
     0
176
     0
177
     0
178
     0
270
     2
271
     4
272
     4
273
     2
274
     2
340
11
275
     0
280
     0
281
     0
282
     0
283
     1
284
     0
285
     0
286
     0
287
     3
288
     0
  0
ENDTAB
  0
TABLE
  2
BLOCK_RECORD
  5
1
330
0
100
AcDbSymbolTable
 70
     1
  0
BLOCK_RECORD
  5
1F
330
1
100
AcDbSymbolTableRecord
100
AcDbBlockTableRecord
  2
*MODEL_SPACE
  0
BLOCK_RECORD
  5
1B
330
1
100
AcDbSymbolTableRecord
100
AcDbBlockTableRecord
  2
*PAPER_SPACE
  0
ENDTAB
  0
ENDSEC
  0
SECTION
  2
BLOCKS
  0
BLOCK
  5
20
330
1F
100
AcDbEntity
  8
0
100
AcDbBlockBegin
  2
*MODEL_SPACE
 70
     0
 10
0.0
 20
0.0
 30
0.0
  3
*MODEL_SPACE
  1

  0
ENDBLK
  5
21
330
1F
100
AcDbEntity
  8
0
100
AcDbBlockEnd
  0
BLOCK
  5
1C
330
1B
100
AcDbEntity
 67
     1
  8
0
100
AcDbBlockBegin
  2
*PAPER_SPACE
 70
     0
 10
0.0
 20
0.0
 30
0.0
  3
*PAPER_SPACE
  1

  0
ENDBLK
  5
1D
330
1B
100
AcDbEntity
 67
     1
  8
0
100
AcDbBlockEnd
  0
ENDSEC
  0
SECTION
  2
ENTITIES
  0
POLYLINE
  5
44
330
1F
100
AcDbEntity
  8
TOP_U_306E_U_30B3_U_30D4_U
100
AcDb2dPolyline
 66
     1
 10
0.0
 20
0.0
 30
0.0
  0
VERTEX
  5
45
330
44
100
AcDbEntity
  8
TOP_U_306E_U_30B3_U_30D4_U
100
AcDbVertex
100
AcDb2dVertex
 10
148.3841375932168
 20
135.6894801694274
 30
0.0
  0
VERTEX
  5
46
330
44
100
AcDbEntity
  8
TOP_U_306E_U_30B3_U_30D4_U
100
AcDbVertex
100
AcDb2dVertex
 10
148.3951957942722
 20
135.6848240847722
 30
0.0
  0
VERTEX
  5
47
330
44
100
AcDbEntity
  8
TOP_U_306E_U_30B3_U_30D4_U
100
AcDbVertex
100
AcDb2dVertex
 10
148.4062539953276
 20
135.6801680001177
 30
0.0
  0
VERTEX
  5
48
330
44
100
AcDbEntity
  8
TOP_U_306E_U_30B3_U_30D4_U
100
AcDbVertex
100
AcDb2dVertex
 10
148.417312196383
 20
135.6755119154631
 30
0.0
  0
VERTEX
  5
49
330
44
100
AcDbEntity
  8
TOP_U_306E_U_30B3_U_30D4_U
100
AcDbVertex
100
AcDb2dVertex
 10
148.4283703974384
 20
135.670855830808
 30
0.0
  0
VERTEX
  5
4A
330
44
100
AcDbEntity
  8
TOP_U_306E_U_30B3_U_30D4_U
100
AcDbVertex
100
AcDb2dVertex
 10
148.4394285984938
 20
135.6661997461528
 30
0.0
  0
VERTEX
  5
4B
330
44
100
AcDbEntity
  8
TOP_U_306E_U_30B3_U_30D4_U
100
AcDbVertex
100
AcDb2dVertex
 10
148.4504867995492
 20
135.6615436614976
 30
0.0
  0
VERTEX
  5
4C
330
44
100
AcDbEntity
  8
TOP_U_306E_U_30B3_U_30D4_U
100
AcDbVertex
100
AcDb2dVertex
 10
148.4615450006046
 20
135.6568875768424
 30
0.0
  0
VERTEX
  5
4D
330
44
100
AcDbEntity
  8
TOP_U_306E_U_30B3_U_30D4_U
100
AcDbVertex
100
AcDb2dVertex
 10
148.47260320166
 20
135.6522314921879
 30
0.0
  0
VERTEX
  5
4E
330
44
100
AcDbEntity
  8
TOP_U_306E_U_30B3_U_30D4_U
100
AcDbVertex
100
AcDb2dVertex
 10
148.4865714556249
 20
135.6464113863696
 30
0.0
  0
VERTEX
  5
4F
330
44
100
AcDbEntity
  8
TOP_U_306E_U_30B3_U_30D4_U
100
AcDbVertex
100
AcDb2dVertex
 10
148.5005397095891
 20
135.6405912805506
 30
0.0
  0
VERTEX
  5
50
330
44
100
AcDbEntity
  8
TOP_U_306E_U_30B3_U_30D4_U
100
AcDbVertex
100
AcDb2dVertex
 10
148.514507963554
 20
135.6347711747316
 30
0.0
  0
VERTEX
  5
51
330
44
100
AcDbEntity
  8
TOP_U_306E_U_30B3_U_30D4_U
100
AcDbVertex
100
AcDb2dVertex
 10
148.5284762175189
 20
135.6289510689133
 30
0.0
  0
VERTEX
  5
52
330
44
100
AcDbEntity
  8
TOP_U_306E_U_30B3_U_30D4_U
100
AcDbVertex
100
AcDb2dVertex
 10
148.5424444714838
 20
135.623130963095
 30
0.0
  0
VERTEX
  5
53
330
44
100
AcDbEntity
  8
TOP_U_306E_U_30B3_U_30D4_U
100
AcDbVertex
100
AcDb2dVertex
 10
148.5564127254487
 20
135.617310857276
 30
0.0
  0
VERTEX
  5
54
330
44
100
AcDbEntity
  8
TOP_U_306E_U_30B3_U_30D4_U
100
AcDbVertex
100
AcDb2dVertex
 10
148.5703809794129
 20
135.611490751457
 30
0.0
  0
VERTEX
  5
55
330
44
100
AcDbEntity
  8
TOP_U_306E_U_30B3_U_30D4_U
100
AcDbVertex
100
AcDb2dVertex
 10
148.5843492333778
 20
135.6056706456387
 30
0.0
  0
VERTEX
  5
56
330
44
100
AcDbEntity
  8
TOP_U_306E_U_30B3_U_30D4_U
100
AcDbVertex
100
AcDb2dVertex
 10
148.6070476460712
 20
135.590829375801
 30
0.0
  0
VERTEX
  5
57
330
44
100
AcDbEntity
  8
TOP_U_306E_U_30B3_U_30D4_U
100
AcDbVertex
100
AcDb2dVertex
 10
148.6297460587639
 20
135.5759881059639
 30
0.0
  0
VERTEX
  5
58
330
44
100
AcDbEntity
  8
TOP_U_306E_U_30B3_U_30D4_U
100
AcDbVertex
100
AcDb2dVertex
 10
148.6524444714566
 20
135.5611468361261
 30
0.0
  0
VERTEX
  5
59
330
44
100
AcDbEntity
  8
TOP_U_306E_U_30B3_U_30D4_U
100
AcDbVertex
100
AcDb2dVertex
 10
148.6751428841493
 20
135.5463055662884
 30
0.0
  0
VERTEX
  5
5A
330
44
100
AcDbEntity
  8
TOP_U_306E_U_30B3_U_30D4_U
100
AcDbVertex
100
AcDb2dVertex
 10
148.697841296842
 20
135.5314642964507
 30
0.0
  0
VERTEX
  5
5B
330
44
100
AcDbEntity
  8
TOP_U_306E_U_30B3_U_30D4_U
100
AcDbVertex
100
AcDb2dVertex
 10
148.7205397095347
 20
135.516623026613
 30
0.0
  0
VERTEX
  5
5C
330
44
100
AcDbEntity
  8
TOP_U_306E_U_30B3_U_30D4_U
100
AcDbVertex
100
AcDb2dVertex
 10
148.7432381222274
 20
135.5017817567759
 30
0.0
  0
VERTEX
  5
5D
330
44
100
AcDbEntity
  8
TOP_U_306E_U_30B3_U_30D4_U
100
AcDbVertex
100
AcDb2dVertex
 10
148.7659365349201
 20
135.4869404869381
 30
0.0
  0
VERTEX
  5
5E
330
44
100
AcDbEntity
  8
TOP_U_306E_U_30B3_U_30D4_U
100
AcDbVertex
100
AcDb2dVertex
 10
148.7848518788304
 20
135.4677341377362
 30
0.0
  0
VERTEX
  5
5F
330
44
100
AcDbEntity
  8
TOP_U_306E_U_30B3_U_30D4_U
100
AcDbVertex
100
AcDb2dVertex
 10
148.8037672227414
 20
135.4485277885348
 30
0.0
  0
VERTEX
  5
60
330
44
100
AcDbEntity
  8
TOP_U_306E_U_30B3_U_30D4_U
100
AcDbVertex
100
AcDb2dVertex
 10
148.8226825666525
 20
135.4293214393335
 30
0.0
  0
VERTEX
  5
61
330
44
100
AcDbEntity
  8
TOP_U_306E_U_30B3_U_30D4_U
100
AcDbVertex
100
AcDb2dVertex
 10
148.8415979105628
 20
135.4101150901322
 30
0.0
  0
VERTEX
  5
62
330
44
100
AcDbEntity
  8
TOP_U_306E_U_30B3_U_30D4_U
100
AcDbVertex
100
AcDb2dVertex
 10
148.8605132544732
 20
135.3909087409309
 30
0.0
  0
VERTEX
  5
63
330
44
100
AcDbEntity
  8
TOP_U_306E_U_30B3_U_30D4_U
100
AcDbVertex
100
AcDb2dVertex
 10
148.8794285983836
 20
135.3717023917289
 30
0.0
  0
VERTEX
  5
64
330
44
100
AcDbEntity
  8
TOP_U_306E_U_30B3_U_30D4_U
100
AcDbVertex
100
AcDb2dVertex
 10
148.8983439422939
 20
135.352496042527
 30
0.0
  0
VERTEX
  5
65
330
44
100
AcDbEntity
  8
TOP_U_306E_U_30B3_U_30D4_U
100
AcDbVertex
100
AcDb2dVertex
 10
148.917259286205
 20
135.3332896933257
 30
0.0
  0
VERTEX
  5
66
330
44
100
AcDbEntity
  8
TOP_U_306E_U_30B3_U_30D4_U
100
AcDbVertex
100
AcDb2dVertex
 10
148.9323915613336
 20
135.310591280633
 30
0.0
  0
VERTEX
  5
67
330
44
100
AcDbEntity
  8
TOP_U_306E_U_30B3_U_30D4_U
100
AcDbVertex
100
AcDb2dVertex
 10
148.9475238364617
 20
135.2878928679403
 30
0.0
  0
VERTEX
  5
68
330
44
100
AcDbEntity
  8
TOP_U_306E_U_30B3_U_30D4_U
100
AcDbVertex
100
AcDb2dVertex
 10
148.9626561115903
 20
135.2651944552476
 30
0.0
  0
VERTEX
  5
69
330
44
100
AcDbEntity
  8
TOP_U_306E_U_30B3_U_30D4_U
100
AcDbVertex
100
AcDb2dVertex
 10
148.977788386719
 20
135.2424960425548
 30
0.0
  0
VERTEX
  5
6A
330
44
100
AcDbEntity
  8
TOP_U_306E_U_30B3_U_30D4_U
100
AcDbVertex
100
AcDb2dVertex
 10
148.9929206618477
 20
135.2197976298621
 30
0.0
  0
VERTEX
  5
6B
330
44
100
AcDbEntity
  8
TOP_U_306E_U_30B3_U_30D4_U
100
AcDbVertex
100
AcDb2dVertex
 10
149.0080529369764
 20
135.1970992171694
 30
0.0
  0
VERTEX
  5
6C
330
44
100
AcDbEntity
  8
TOP_U_306E_U_30B3_U_30D4_U
100
AcDbVertex
100
AcDb2dVertex
 10
149.0231852121044
 20
135.1744008044768
 30
0.0
  0
VERTEX
  5
6D
330
44
100
AcDbEntity
  8
TOP_U_306E_U_30B3_U_30D4_U
100
AcDbVertex
100
AcDb2dVertex
 10
149.0383174872331
 20
135.1517023917841
 30
0.0
  0
VERTEX
  5
6E
330
44
100
AcDbEntity
  8
TOP_U_306E_U_30B3_U_30D4_U
100
AcDbVertex
100
AcDb2dVertex
 10
149.0386084925234
 20
135.1514113864931
 30
0.0
  0
VERTEX
  5
6F
330
44
100
AcDbEntity
  8
TOP_U_306E_U_30B3_U_30D4_U
100
AcDbVertex
100
AcDb2dVertex
 10
149.0388994978144
 20
135.1511203812022
 30
0.0
  0
VERTEX
  5
70
330
44
100
AcDbEntity
  8
TOP_U_306E_U_30B3_U_30D4_U
100
AcDbVertex
100
AcDb2dVertex
 10
149.0391905031053
 20
135.1508293759112
 30
0.0
  0
VERTEX
  5
71
330
44
100
AcDbEntity
  8
TOP_U_306E_U_30B3_U_30D4_U
100
AcDbVertex
100
AcDb2dVertex
 10
149.0394815083963
 20
135.1505383706202
 30
0.0
  0
VERTEX
  5
72
330
44
100
AcDbEntity
  8
TOP_U_306E_U_30B3_U_30D4_U
100
AcDbVertex
100
AcDb2dVertex
 10
149.0397725136872
 20
135.1502473653293
 30
0.0
  0
VERTEX
  5
73
330
44
100
AcDbEntity
  8
TOP_U_306E_U_30B3_U_30D4_U
100
AcDbVertex
100
AcDb2dVertex
 10
149.0400635189782
 20
135.1499563600383
 30
0.0
  0
VERTEX
  5
74
330
44
100
AcDbEntity
  8
TOP_U_306E_U_30B3_U_30D4_U
100
AcDbVertex
100
AcDb2dVertex
 10
149.0403545242691
 20
135.1496653547474
 30
0.0
  0
VERTEX
  5
75
330
44
100
AcDbEntity
  8
TOP_U_306E_U_30B3_U_30D4_U
100
AcDbVertex
100
AcDb2dVertex
 10
149.0406455295601
 20
135.1493743494565
 30
0.0
  0
VERTEX
  5
76
330
44
100
AcDbEntity
  8
TOP_U_306E_U_30B3_U_30D4_U
100
AcDbVertex
100
AcDb2dVertex
 10
149.0508307147426
 20
135.1249299050181
 30
0.0
  0
VERTEX
  5
77
330
44
100
AcDbEntity
  8
TOP_U_306E_U_30B3_U_30D4_U
100
AcDbVertex
100
AcDb2dVertex
 10
149.0610158999252
 20
135.1004854605797
 30
0.0
  0
VERTEX
  5
78
330
44
100
AcDbEntity
  8
TOP_U_306E_U_30B3_U_30D4_U
100
AcDbVertex
100
AcDb2dVertex
 10
149.0712010851077
 20
135.0760410161413
 30
0.0
  0
VERTEX
  5
79
330
44
100
AcDbEntity
  8
TOP_U_306E_U_30B3_U_30D4_U
100
AcDbVertex
100
AcDb2dVertex
 10
149.0813862702903
 20
135.0515965717029
 30
0.0
  0
VERTEX
  5
7A
330
44
100
AcDbEntity
  8
TOP_U_306E_U_30B3_U_30D4_U
100
AcDbVertex
100
AcDb2dVertex
 10
149.0915714554729
 20
135.0271521272645
 30
0.0
  0
VERTEX
  5
7B
330
44
100
AcDbEntity
  8
TOP_U_306E_U_30B3_U_30D4_U
100
AcDbVertex
100
AcDb2dVertex
 10
149.1017566406554
 20
135.0027076828261
 30
0.0
  0
VERTEX
  5
7C
330
44
100
AcDbEntity
  8
TOP_U_306E_U_30B3_U_30D4_U
100
AcDbVertex
100
AcDb2dVertex
 10
149.1119418258386
 20
134.9782632383877
 30
0.0
  0
VERTEX
  5
7D
330
44
100
AcDbEntity
  8
TOP_U_306E_U_30B3_U_30D4_U
100
AcDbVertex
100
AcDb2dVertex
 10
149.1221270110211
 20
134.9538187939493
 30
0.0
  0
VERTEX
  5
7E
330
44
100
AcDbEntity
  8
TOP_U_306E_U_30B3_U_30D4_U
100
AcDbVertex
100
AcDb2dVertex
 10
149.1273651062576
 20
134.9270463071833
 30
0.0
  0
VERTEX
  5
7F
330
44
100
AcDbEntity
  8
TOP_U_306E_U_30B3_U_30D4_U
100
AcDbVertex
100
AcDb2dVertex
 10
149.1326032014947
 20
134.900273820418
 30
0.0
  0
VERTEX
  5
80
330
44
100
AcDbEntity
  8
TOP_U_306E_U_30B3_U_30D4_U
100
AcDbVertex
100
AcDb2dVertex
 10
149.1378412967317
 20
134.8735013336527
 30
0.0
  0
VERTEX
  5
81
330
44
100
AcDbEntity
  8
TOP_U_306E_U_30B3_U_30D4_U
100
AcDbVertex
100
AcDb2dVertex
 10
149.1430793919688
 20
134.8467288468867
 30
0.0
  0
VERTEX
  5
82
330
44
100
AcDbEntity
  8
TOP_U_306E_U_30B3_U_30D4_U
100
AcDbVertex
100
AcDb2dVertex
 10
149.1483174872059
 20
134.8199563601207
 30
0.0
  0
VERTEX
  5
83
330
44
100
AcDbEntity
  8
TOP_U_306E_U_30B3_U_30D4_U
100
AcDbVertex
100
AcDb2dVertex
 10
149.1535555824423
 20
134.7931838733547
 30
0.0
  0
VERTEX
  5
84
330
44
100
AcDbEntity
  8
TOP_U_306E_U_30B3_U_30D4_U
100
AcDbVertex
100
AcDb2dVertex
 10
149.1587936776787
 20
134.7664113865887
 30
0.0
  0
VERTEX
  5
85
330
44
100
AcDbEntity
  8
TOP_U_306E_U_30B3_U_30D4_U
100
AcDbVertex
100
AcDb2dVertex
 10
149.1640317729158
 20
134.7396388998234
 30
0.0
  0
VERTEX
  5
86
330
44
100
AcDbEntity
  8
TOP_U_306E_U_30B3_U_30D4_U
100
AcDbVertex
100
AcDb2dVertex
 10
149.1640317729158
 20
134.7125754077671
 30
0.0
  0
VERTEX
  5
87
330
44
100
AcDbEntity
  8
TOP_U_306E_U_30B3_U_30D4_U
100
AcDbVertex
100
AcDb2dVertex
 10
149.1640317729158
 20
134.6855119157102
 30
0.0
  0
VERTEX
  5
88
330
44
100
AcDbEntity
  8
TOP_U_306E_U_30B3_U_30D4_U
100
AcDbVertex
100
AcDb2dVertex
 10
149.1640317729158
 20
134.6584484236533
 30
0.0
  0
VERTEX
  5
89
330
44
100
AcDbEntity
  8
TOP_U_306E_U_30B3_U_30D4_U
100
AcDbVertex
100
AcDb2dVertex
 10
149.1640317729158
 20
134.6313849315963
 30
0.0
  0
VERTEX
  5
8A
330
44
100
AcDbEntity
  8
TOP_U_306E_U_30B3_U_30D4_U
100
AcDbVertex
100
AcDb2dVertex
 10
149.1640317729158
 20
134.6043214395394
 30
0.0
  0
VERTEX
  5
8B
330
44
100
AcDbEntity
  8
TOP_U_306E_U_30B3_U_30D4_U
100
AcDbVertex
100
AcDb2dVertex
 10
149.1640317729158
 20
134.5772579474825
 30
0.0
  0
VERTEX
  5
8C
330
44
100
AcDbEntity
  8
TOP_U_306E_U_30B3_U_30D4_U
100
AcDbVertex
100
AcDb2dVertex
 10
149.1640317729158
 20
134.5501944554256
 30
0.0
  0
VERTEX
  5
8D
330
44
100
AcDbEntity
  8
TOP_U_306E_U_30B3_U_30D4_U
100
AcDbVertex
100
AcDb2dVertex
 10
149.1640317729158
 20
134.5231309633693
 30
0.0
  0
VERTEX
  5
8E
330
44
100
AcDbEntity
  8
TOP_U_306E_U_30B3_U_30D4_U
100
AcDbVertex
100
AcDb2dVertex
 10
149.1587936776787
 20
134.4966494818949
 30
0.0
  0
VERTEX
  5
8F
330
44
100
AcDbEntity
  8
TOP_U_306E_U_30B3_U_30D4_U
100
AcDbVertex
100
AcDb2dVertex
 10
149.1535555824423
 20
134.4701680004198
 30
0.0
  0
VERTEX
  5
90
330
44
100
AcDbEntity
  8
TOP_U_306E_U_30B3_U_30D4_U
100
AcDbVertex
100
AcDb2dVertex
 10
149.1483174872059
 20
134.4436865189448
 30
0.0
  0
VERTEX
  5
91
330
44
100
AcDbEntity
  8
TOP_U_306E_U_30B3_U_30D4_U
100
AcDbVertex
100
AcDb2dVertex
 10
149.1430793919688
 20
134.4172050374698
 30
0.0
  0
VERTEX
  5
92
330
44
100
AcDbEntity
  8
TOP_U_306E_U_30B3_U_30D4_U
100
AcDbVertex
100
AcDb2dVertex
 10
149.1378412967317
 20
134.3907235559948
 30
0.0
  0
VERTEX
  5
93
330
44
100
AcDbEntity
  8
TOP_U_306E_U_30B3_U_30D4_U
100
AcDbVertex
100
AcDb2dVertex
 10
149.1326032014947
 20
134.3642420745197
 30
0.0
  0
VERTEX
  5
94
330
44
100
AcDbEntity
  8
TOP_U_306E_U_30B3_U_30D4_U
100
AcDbVertex
100
AcDb2dVertex
 10
149.1273651062576
 20
134.3377605930447
 30
0.0
  0
VERTEX
  5
95
330
44
100
AcDbEntity
  8
TOP_U_306E_U_30B3_U_30D4_U
100
AcDbVertex
100
AcDb2dVertex
 10
149.1221270110211
 20
134.3112791115703
 30
0.0
  0
VERTEX
  5
96
330
44
100
AcDbEntity
  8
TOP_U_306E_U_30B3_U_30D4_U
100
AcDbVertex
100
AcDb2dVertex
 10
149.1174709263666
 20
134.2999299052239
 30
0.0
  0
VERTEX
  5
97
330
44
100
AcDbEntity
  8
TOP_U_306E_U_30B3_U_30D4_U
100
AcDbVertex
100
AcDb2dVertex
 10
149.1128148417114
 20
134.2885806988776
 30
0.0
  0
VERTEX
  5
98
330
44
100
AcDbEntity
  8
TOP_U_306E_U_30B3_U_30D4_U
100
AcDbVertex
100
AcDb2dVertex
 10
149.1081587570563
 20
134.2772314925312
 30
0.0
  0
VERTEX
  5
99
330
44
100
AcDbEntity
  8
TOP_U_306E_U_30B3_U_30D4_U
100
AcDbVertex
100
AcDb2dVertex
 10
149.1035026724017
 20
134.2658822861849
 30
0.0
  0
VERTEX
  5
9A
330
44
100
AcDbEntity
  8
TOP_U_306E_U_30B3_U_30D4_U
100
AcDbVertex
100
AcDb2dVertex
 10
149.0988465877472
 20
134.2545330798386
 30
0.0
  0
VERTEX
  5
9B
330
44
100
AcDbEntity
  8
TOP_U_306E_U_30B3_U_30D4_U
100
AcDbVertex
100
AcDb2dVertex
 10
149.094190503092
 20
134.2431838734922
 30
0.0
  0
VERTEX
  5
9C
330
44
100
AcDbEntity
  8
TOP_U_306E_U_30B3_U_30D4_U
100
AcDbVertex
100
AcDb2dVertex
 10
149.0895344184368
 20
134.2318346671458
 30
0.0
  0
VERTEX
  5
9D
330
44
100
AcDbEntity
  8
TOP_U_306E_U_30B3_U_30D4_U
100
AcDbVertex
100
AcDb2dVertex
 10
149.0848783337823
 20
134.2204854607995
 30
0.0
  0
VERTEX
  5
9E
330
44
100
AcDbEntity
  8
TOP_U_306E_U_30B3_U_30D4_U
100
AcDbVertex
100
AcDb2dVertex
 10
149.079058227964
 20
134.2068082121255
 30
0.0
  0
VERTEX
  5
9F
330
44
100
AcDbEntity
  8
TOP_U_306E_U_30B3_U_30D4_U
100
AcDbVertex
100
AcDb2dVertex
 10
149.073238122145
 20
134.1931309634523
 30
0.0
  0
VERTEX
  5
A0
330
44
100
AcDbEntity
  8
TOP_U_306E_U_30B3_U_30D4_U
100
AcDbVertex
100
AcDb2dVertex
 10
149.0674180163261
 20
134.1794537147783
 30
0.0
  0
VERTEX
  5
A1
330
44
100
AcDbEntity
  8
TOP_U_306E_U_30B3_U_30D4_U
100
AcDbVertex
100
AcDb2dVertex
 10
149.0615979105077
 20
134.1657764661044
 30
0.0
  0
VERTEX
  5
A2
330
44
100
AcDbEntity
  8
TOP_U_306E_U_30B3_U_30D4_U
100
AcDbVertex
100
AcDb2dVertex
 10
149.0557778046894
 20
134.1520992174304
 30
0.0
  0
VERTEX
  5
A3
330
44
100
AcDbEntity
  8
TOP_U_306E_U_30B3_U_30D4_U
100
AcDbVertex
100
AcDb2dVertex
 10
149.0499576988704
 20
134.1384219687565
 30
0.0
  0
VERTEX
  5
A4
330
44
100
AcDbEntity
  8
TOP_U_306E_U_30B3_U_30D4_U
100
AcDbVertex
100
AcDb2dVertex
 10
149.0441375930515
 20
134.1247447200832
 30
0.0
  0
VERTEX
  5
A5
330
44
100
AcDbEntity
  8
TOP_U_306E_U_30B3_U_30D4_U
100
AcDbVertex
100
AcDb2dVertex
 10
149.0383174872331
 20
134.1110674714093
 30
0.0
  0
VERTEX
  5
A6
330
44
100
AcDbEntity
  8
TOP_U_306E_U_30B3_U_30D4_U
100
AcDbVertex
100
AcDb2dVertex
 10
149.0231852121044
 20
134.0886600640069
 30
0.0
  0
VERTEX
  5
A7
330
44
100
AcDbEntity
  8
TOP_U_306E_U_30B3_U_30D4_U
100
AcDbVertex
100
AcDb2dVertex
 10
149.0080529369764
 20
134.0662526566051
 30
0.0
  0
VERTEX
  5
A8
330
44
100
AcDbEntity
  8
TOP_U_306E_U_30B3_U_30D4_U
100
AcDbVertex
100
AcDb2dVertex
 10
148.9929206618477
 20
134.0438452492034
 30
0.0
  0
VERTEX
  5
A9
330
44
100
AcDbEntity
  8
TOP_U_306E_U_30B3_U_30D4_U
100
AcDbVertex
100
AcDb2dVertex
 10
148.977788386719
 20
134.0214378418016
 30
0.0
  0
VERTEX
  5
AA
330
44
100
AcDbEntity
  8
TOP_U_306E_U_30B3_U_30D4_U
100
AcDbVertex
100
AcDb2dVertex
 10
148.9626561115903
 20
133.9990304343999
 30
0.0
  0
VERTEX
  5
AB
330
44
100
AcDbEntity
  8
TOP_U_306E_U_30B3_U_30D4_U
100
AcDbVertex
100
AcDb2dVertex
 10
148.9475238364617
 20
133.9766230269981
 30
0.0
  0
VERTEX
  5
AC
330
44
100
AcDbEntity
  8
TOP_U_306E_U_30B3_U_30D4_U
100
AcDbVertex
100
AcDb2dVertex
 10
148.9323915613336
 20
133.9542156195964
 30
0.0
  0
VERTEX
  5
AD
330
44
100
AcDbEntity
  8
TOP_U_306E_U_30B3_U_30D4_U
100
AcDbVertex
100
AcDb2dVertex
 10
148.917259286205
 20
133.9318082121946
 30
0.0
  0
VERTEX
  5
AE
330
44
100
AcDbEntity
  8
TOP_U_306E_U_30B3_U_30D4_U
100
AcDbVertex
100
AcDb2dVertex
 10
148.8983439422939
 20
133.9126018629933
 30
0.0
  0
VERTEX
  5
AF
330
44
100
AcDbEntity
  8
TOP_U_306E_U_30B3_U_30D4_U
100
AcDbVertex
100
AcDb2dVertex
 10
148.8794285983836
 20
133.8933955137913
 30
0.0
  0
VERTEX
  5
B0
330
44
100
AcDbEntity
  8
TOP_U_306E_U_30B3_U_30D4_U
100
AcDbVertex
100
AcDb2dVertex
 10
148.8605132544732
 20
133.8741891645894
 30
0.0
  0
VERTEX
  5
B1
330
44
100
AcDbEntity
  8
TOP_U_306E_U_30B3_U_30D4_U
100
AcDbVertex
100
AcDb2dVertex
 10
148.8415979105628
 20
133.854982815388
 30
0.0
  0
VERTEX
  5
B2
330
44
100
AcDbEntity
  8
TOP_U_306E_U_30B3_U_30D4_U
100
AcDbVertex
100
AcDb2dVertex
 10
148.8226825666525
 20
133.8357764661867
 30
0.0
  0
VERTEX
  5
B3
330
44
100
AcDbEntity
  8
TOP_U_306E_U_30B3_U_30D4_U
100
AcDbVertex
100
AcDb2dVertex
 10
148.8037672227414
 20
133.8165701169854
 30
0.0
  0
VERTEX
  5
B4
330
44
100
AcDbEntity
  8
TOP_U_306E_U_30B3_U_30D4_U
100
AcDbVertex
100
AcDb2dVertex
 10
148.7848518788304
 20
133.7973637677841
 30
0.0
  0
VERTEX
  5
B5
330
44
100
AcDbEntity
  8
TOP_U_306E_U_30B3_U_30D4_U
100
AcDbVertex
100
AcDb2dVertex
 10
148.7659365349201
 20
133.7781574185821
 30
0.0
  0
VERTEX
  5
B6
330
44
100
AcDbEntity
  8
TOP_U_306E_U_30B3_U_30D4_U
100
AcDbVertex
100
AcDb2dVertex
 10
148.7432381222274
 20
133.7630251434535
 30
0.0
  0
VERTEX
  5
B7
330
44
100
AcDbEntity
  8
TOP_U_306E_U_30B3_U_30D4_U
100
AcDbVertex
100
AcDb2dVertex
 10
148.7205397095347
 20
133.7478928683254
 30
0.0
  0
VERTEX
  5
B8
330
44
100
AcDbEntity
  8
TOP_U_306E_U_30B3_U_30D4_U
100
AcDbVertex
100
AcDb2dVertex
 10
148.697841296842
 20
133.7327605931967
 30
0.0
  0
VERTEX
  5
B9
330
44
100
AcDbEntity
  8
TOP_U_306E_U_30B3_U_30D4_U
100
AcDbVertex
100
AcDb2dVertex
 10
148.6751428841493
 20
133.7176283180681
 30
0.0
  0
VERTEX
  5
BA
330
44
100
AcDbEntity
  8
TOP_U_306E_U_30B3_U_30D4_U
100
AcDbVertex
100
AcDb2dVertex
 10
148.6524444714566
 20
133.7024960429394
 30
0.0
  0
VERTEX
  5
BB
330
44
100
AcDbEntity
  8
TOP_U_306E_U_30B3_U_30D4_U
100
AcDbVertex
100
AcDb2dVertex
 10
148.6297460587639
 20
133.6873637678107
 30
0.0
  0
VERTEX
  5
BC
330
44
100
AcDbEntity
  8
TOP_U_306E_U_30B3_U_30D4_U
100
AcDbVertex
100
AcDb2dVertex
 10
148.6070476460712
 20
133.6722314926826
 30
0.0
  0
VERTEX
  5
BD
330
44
100
AcDbEntity
  8
TOP_U_306E_U_30B3_U_30D4_U
100
AcDbVertex
100
AcDb2dVertex
 10
148.5843492333778
 20
133.657099217554
 30
0.0
  0
VERTEX
  5
BE
330
44
100
AcDbEntity
  8
TOP_U_306E_U_30B3_U_30D4_U
100
AcDbVertex
100
AcDb2dVertex
 10
148.5750370640681
 20
133.6533161487723
 30
0.0
  0
VERTEX
  5
BF
330
44
100
AcDbEntity
  8
TOP_U_306E_U_30B3_U_30D4_U
100
AcDbVertex
100
AcDb2dVertex
 10
148.5657248947578
 20
133.6495330799899
 30
0.0
  0
VERTEX
  5
C0
330
44
100
AcDbEntity
  8
TOP_U_306E_U_30B3_U_30D4_U
100
AcDbVertex
100
AcDb2dVertex
 10
148.556412725448
 20
133.6457500112076
 30
0.0
  0
VERTEX
  5
C1
330
44
100
AcDbEntity
  8
TOP_U_306E_U_30B3_U_30D4_U
100
AcDbVertex
100
AcDb2dVertex
 10
148.5471005561383
 20
133.6419669424253
 30
0.0
  0
VERTEX
  5
C2
330
44
100
AcDbEntity
  8
TOP_U_306E_U_30B3_U_30D4_U
100
AcDbVertex
100
AcDb2dVertex
 10
148.5377883868286
 20
133.638183873643
 30
0.0
  0
VERTEX
  5
C3
330
44
100
AcDbEntity
  8
TOP_U_306E_U_30B3_U_30D4_U
100
AcDbVertex
100
AcDb2dVertex
 10
148.5284762175189
 20
133.6344008048613
 30
0.0
  0
VERTEX
  5
C4
330
44
100
AcDbEntity
  8
TOP_U_306E_U_30B3_U_30D4_U
100
AcDbVertex
100
AcDb2dVertex
 10
148.5191640482092
 20
133.6306177360796
 30
0.0
  0
VERTEX
  5
C5
330
44
100
AcDbEntity
  8
TOP_U_306E_U_30B3_U_30D4_U
100
AcDbVertex
100
AcDb2dVertex
 10
148.5098518788995
 20
133.6268346672972
 30
0.0
  0
VERTEX
  5
C6
330
44
100
AcDbEntity
  8
TOP_U_306E_U_30B3_U_30D4_U
100
AcDbVertex
100
AcDb2dVertex
 10
148.4941375931895
 20
133.6201415456054
 30
0.0
  0
VERTEX
  5
C7
330
44
100
AcDbEntity
  8
TOP_U_306E_U_30B3_U_30D4_U
100
AcDbVertex
100
AcDb2dVertex
 10
148.478423307479
 20
133.6134484239143
 30
0.0
  0
VERTEX
  5
C8
330
44
100
AcDbEntity
  8
TOP_U_306E_U_30B3_U_30D4_U
100
AcDbVertex
100
AcDb2dVertex
 10
148.4627090217684
 20
133.6067553022231
 30
0.0
  0
VERTEX
  5
C9
330
44
100
AcDbEntity
  8
TOP_U_306E_U_30B3_U_30D4_U
100
AcDbVertex
100
AcDb2dVertex
 10
148.4469947360585
 20
133.6000621805313
 30
0.0
  0
VERTEX
  5
CA
330
44
100
AcDbEntity
  8
TOP_U_306E_U_30B3_U_30D4_U
100
AcDbVertex
100
AcDb2dVertex
 10
148.4312804503479
 20
133.5933690588401
 30
0.0
  0
VERTEX
  5
CB
330
44
100
AcDbEntity
  8
TOP_U_306E_U_30B3_U_30D4_U
100
AcDbVertex
100
AcDb2dVertex
 10
148.4155661646373
 20
133.5866759371489
 30
0.0
  0
VERTEX
  5
CC
330
44
100
AcDbEntity
  8
TOP_U_306E_U_30B3_U_30D4_U
100
AcDbVertex
100
AcDb2dVertex
 10
148.3998518789274
 20
133.5799828154571
 30
0.0
  0
VERTEX
  5
CD
330
44
100
AcDbEntity
  8
TOP_U_306E_U_30B3_U_30D4_U
100
AcDbVertex
100
AcDb2dVertex
 10
148.3841375932168
 20
133.5732896937659
 30
0.0
  0
VERTEX
  5
CE
330
44
100
AcDbEntity
  8
TOP_U_306E_U_30B3_U_30D4_U
100
AcDbVertex
100
AcDb2dVertex
 10
148.3576561117424
 20
133.5680515985295
 30
0.0
  0
VERTEX
  5
CF
330
44
100
AcDbEntity
  8
TOP_U_306E_U_30B3_U_30D4_U
100
AcDbVertex
100
AcDb2dVertex
 10
148.3311746302674
 20
133.5628135032924
 30
0.0
  0
VERTEX
  5
D0
330
44
100
AcDbEntity
  8
TOP_U_306E_U_30B3_U_30D4_U
100
AcDbVertex
100
AcDb2dVertex
 10
148.3046931487923
 20
133.5575754080554
 30
0.0
  0
VERTEX
  5
D1
330
44
100
AcDbEntity
  8
TOP_U_306E_U_30B3_U_30D4_U
100
AcDbVertex
100
AcDb2dVertex
 10
148.2782116673173
 20
133.5523373128183
 30
0.0
  0
VERTEX
  5
D2
330
44
100
AcDbEntity
  8
TOP_U_306E_U_30B3_U_30D4_U
100
AcDbVertex
100
AcDb2dVertex
 10
148.2517301858423
 20
133.5470992175812
 30
0.0
  0
VERTEX
  5
D3
330
44
100
AcDbEntity
  8
TOP_U_306E_U_30B3_U_30D4_U
100
AcDbVertex
100
AcDb2dVertex
 10
148.2252487043672
 20
133.5418611223448
 30
0.0
  0
VERTEX
  5
D4
330
44
100
AcDbEntity
  8
TOP_U_306E_U_30B3_U_30D4_U
100
AcDbVertex
100
AcDb2dVertex
 10
148.1987672228922
 20
133.5366230271083
 30
0.0
  0
VERTEX
  5
D5
330
44
100
AcDbEntity
  8
TOP_U_306E_U_30B3_U_30D4_U
100
AcDbVertex
100
AcDb2dVertex
 10
148.1722857414178
 20
133.5313849318713
 30
0.0
  0
VERTEX
  5
D6
330
44
100
AcDbEntity
  8
TOP_U_306E_U_30B3_U_30D4_U
100
AcDbVertex
100
AcDb2dVertex
 10
148.1452222493615
 20
133.5313849318713
 30
0.0
  0
VERTEX
  5
D7
330
44
100
AcDbEntity
  8
TOP_U_306E_U_30B3_U_30D4_U
100
AcDbVertex
100
AcDb2dVertex
 10
148.1181587573046
 20
133.5313849318713
 30
0.0
  0
VERTEX
  5
D8
330
44
100
AcDbEntity
  8
TOP_U_306E_U_30B3_U_30D4_U
100
AcDbVertex
100
AcDb2dVertex
 10
148.0910952652477
 20
133.5313849318713
 30
0.0
  0
VERTEX
  5
D9
330
44
100
AcDbEntity
  8
TOP_U_306E_U_30B3_U_30D4_U
100
AcDbVertex
100
AcDb2dVertex
 10
148.0640317731907
 20
133.5313849318713
 30
0.0
  0
VERTEX
  5
DA
330
44
100
AcDbEntity
  8
TOP_U_306E_U_30B3_U_30D4_U
100
AcDbVertex
100
AcDb2dVertex
 10
148.0369682811338
 20
133.5313849318713
 30
0.0
  0
VERTEX
  5
DB
330
44
100
AcDbEntity
  8
TOP_U_306E_U_30B3_U_30D4_U
100
AcDbVertex
100
AcDb2dVertex
 10
148.0099047890769
 20
133.5313849318713
 30
0.0
  0
VERTEX
  5
DC
330
44
100
AcDbEntity
  8
TOP_U_306E_U_30B3_U_30D4_U
100
AcDbVertex
100
AcDb2dVertex
 10
147.98284129702
 20
133.5313849318713
 30
0.0
  0
VERTEX
  5
DD
330
44
100
AcDbEntity
  8
TOP_U_306E_U_30B3_U_30D4_U
100
AcDbVertex
100
AcDb2dVertex
 10
147.9557778049637
 20
133.5313849318713
 30
0.0
  0
VERTEX
  5
DE
330
44
100
AcDbEntity
  8
TOP_U_306E_U_30B3_U_30D4_U
100
AcDbVertex
100
AcDb2dVertex
 10
147.9292963234893
 20
133.5366230271083
 30
0.0
  0
VERTEX
  5
DF
330
44
100
AcDbEntity
  8
TOP_U_306E_U_30B3_U_30D4_U
100
AcDbVertex
100
AcDb2dVertex
 10
147.9028148420143
 20
133.5418611223448
 30
0.0
  0
VERTEX
  5
E0
330
44
100
AcDbEntity
  8
TOP_U_306E_U_30B3_U_30D4_U
100
AcDbVertex
100
AcDb2dVertex
 10
147.8763333605392
 20
133.5470992175812
 30
0.0
  0
VERTEX
  5
E1
330
44
100
AcDbEntity
  8
TOP_U_306E_U_30B3_U_30D4_U
100
AcDbVertex
100
AcDb2dVertex
 10
147.8498518790642
 20
133.5523373128183
 30
0.0
  0
VERTEX
  5
E2
330
44
100
AcDbEntity
  8
TOP_U_306E_U_30B3_U_30D4_U
100
AcDbVertex
100
AcDb2dVertex
 10
147.8233703975892
 20
133.5575754080554
 30
0.0
  0
VERTEX
  5
E3
330
44
100
AcDbEntity
  8
TOP_U_306E_U_30B3_U_30D4_U
100
AcDbVertex
100
AcDb2dVertex
 10
147.7968889161141
 20
133.5628135032924
 30
0.0
  0
VERTEX
  5
E4
330
44
100
AcDbEntity
  8
TOP_U_306E_U_30B3_U_30D4_U
100
AcDbVertex
100
AcDb2dVertex
 10
147.7704074346391
 20
133.5680515985295
 30
0.0
  0
VERTEX
  5
E5
330
44
100
AcDbEntity
  8
TOP_U_306E_U_30B3_U_30D4_U
100
AcDbVertex
100
AcDb2dVertex
 10
147.7439259531647
 20
133.5732896937659
 30
0.0
  0
VERTEX
  5
E6
330
44
100
AcDbEntity
  8
TOP_U_306E_U_30B3_U_30D4_U
100
AcDbVertex
100
AcDb2dVertex
 10
147.7282116674541
 20
133.5799828154571
 30
0.0
  0
VERTEX
  5
E7
330
44
100
AcDbEntity
  8
TOP_U_306E_U_30B3_U_30D4_U
100
AcDbVertex
100
AcDb2dVertex
 10
147.7124973817442
 20
133.5866759371489
 30
0.0
  0
VERTEX
  5
E8
330
44
100
AcDbEntity
  8
TOP_U_306E_U_30B3_U_30D4_U
100
AcDbVertex
100
AcDb2dVertex
 10
147.6967830960336
 20
133.5933690588401
 30
0.0
  0
VERTEX
  5
E9
330
44
100
AcDbEntity
  8
TOP_U_306E_U_30B3_U_30D4_U
100
AcDbVertex
100
AcDb2dVertex
 10
147.681068810323
 20
133.6000621805313
 30
0.0
  0
VERTEX
  5
EA
330
44
100
AcDbEntity
  8
TOP_U_306E_U_30B3_U_30D4_U
100
AcDbVertex
100
AcDb2dVertex
 10
147.6653545246131
 20
133.6067553022231
 30
0.0
  0
VERTEX
  5
EB
330
44
100
AcDbEntity
  8
TOP_U_306E_U_30B3_U_30D4_U
100
AcDbVertex
100
AcDb2dVertex
 10
147.6496402389025
 20
133.6134484239143
 30
0.0
  0
VERTEX
  5
EC
330
44
100
AcDbEntity
  8
TOP_U_306E_U_30B3_U_30D4_U
100
AcDbVertex
100
AcDb2dVertex
 10
147.6339259531919
 20
133.6201415456054
 30
0.0
  0
VERTEX
  5
ED
330
44
100
AcDbEntity
  8
TOP_U_306E_U_30B3_U_30D4_U
100
AcDbVertex
100
AcDb2dVertex
 10
147.618211667482
 20
133.6268346672972
 30
0.0
  0
VERTEX
  5
EE
330
44
100
AcDbEntity
  8
TOP_U_306E_U_30B3_U_30D4_U
100
AcDbVertex
100
AcDb2dVertex
 10
147.6088994981723
 20
133.6306177360796
 30
0.0
  0
VERTEX
  5
EF
330
44
100
AcDbEntity
  8
TOP_U_306E_U_30B3_U_30D4_U
100
AcDbVertex
100
AcDb2dVertex
 10
147.5995873288626
 20
133.6344008048613
 30
0.0
  0
VERTEX
  5
F0
330
44
100
AcDbEntity
  8
TOP_U_306E_U_30B3_U_30D4_U
100
AcDbVertex
100
AcDb2dVertex
 10
147.5902751595522
 20
133.638183873643
 30
0.0
  0
VERTEX
  5
F1
330
44
100
AcDbEntity
  8
TOP_U_306E_U_30B3_U_30D4_U
100
AcDbVertex
100
AcDb2dVertex
 10
147.5809629902425
 20
133.6419669424253
 30
0.0
  0
VERTEX
  5
F2
330
44
100
AcDbEntity
  8
TOP_U_306E_U_30B3_U_30D4_U
100
AcDbVertex
100
AcDb2dVertex
 10
147.5716508209328
 20
133.6457500112076
 30
0.0
  0
VERTEX
  5
F3
330
44
100
AcDbEntity
  8
TOP_U_306E_U_30B3_U_30D4_U
100
AcDbVertex
100
AcDb2dVertex
 10
147.5623386516225
 20
133.6495330799899
 30
0.0
  0
VERTEX
  5
F4
330
44
100
AcDbEntity
  8
TOP_U_306E_U_30B3_U_30D4_U
100
AcDbVertex
100
AcDb2dVertex
 10
147.5530264823128
 20
133.6533161487723
 30
0.0
  0
VERTEX
  5
F5
330
44
100
AcDbEntity
  8
TOP_U_306E_U_30B3_U_30D4_U
100
AcDbVertex
100
AcDb2dVertex
 10
147.543714313003
 20
133.657099217554
 30
0.0
  0
VERTEX
  5
F6
330
44
100
AcDbEntity
  8
TOP_U_306E_U_30B3_U_30D4_U
100
AcDbVertex
100
AcDb2dVertex
 10
147.5210159003103
 20
133.6722314926826
 30
0.0
  0
VERTEX
  5
F7
330
44
100
AcDbEntity
  8
TOP_U_306E_U_30B3_U_30D4_U
100
AcDbVertex
100
AcDb2dVertex
 10
147.4983174876176
 20
133.6873637678107
 30
0.0
  0
VERTEX
  5
F8
330
44
100
AcDbEntity
  8
TOP_U_306E_U_30B3_U_30D4_U
100
AcDbVertex
100
AcDb2dVertex
 10
147.4756190749249
 20
133.7024960429394
 30
0.0
  0
VERTEX
  5
F9
330
44
100
AcDbEntity
  8
TOP_U_306E_U_30B3_U_30D4_U
100
AcDbVertex
100
AcDb2dVertex
 10
147.4529206622322
 20
133.7176283180681
 30
0.0
  0
VERTEX
  5
FA
330
44
100
AcDbEntity
  8
TOP_U_306E_U_30B3_U_30D4_U
100
AcDbVertex
100
AcDb2dVertex
 10
147.4302222495395
 20
133.7327605931967
 30
0.0
  0
VERTEX
  5
FB
330
44
100
AcDbEntity
  8
TOP_U_306E_U_30B3_U_30D4_U
100
AcDbVertex
100
AcDb2dVertex
 10
147.4075238368468
 20
133.7478928683254
 30
0.0
  0
VERTEX
  5
FC
330
44
100
AcDbEntity
  8
TOP_U_306E_U_30B3_U_30D4_U
100
AcDbVertex
100
AcDb2dVertex
 10
147.3848254241541
 20
133.7630251434535
 30
0.0
  0
VERTEX
  5
FD
330
44
100
AcDbEntity
  8
TOP_U_306E_U_30B3_U_30D4_U
100
AcDbVertex
100
AcDb2dVertex
 10
147.3621270114614
 20
133.7781574185821
 30
0.0
  0
VERTEX
  5
FE
330
44
100
AcDbEntity
  8
TOP_U_306E_U_30B3_U_30D4_U
100
AcDbVertex
100
AcDb2dVertex
 10
147.3429206622601
 20
133.7973637677841
 30
0.0
  0
VERTEX
  5
FF
330
44
100
AcDbEntity
  8
TOP_U_306E_U_30B3_U_30D4_U
100
AcDbVertex
100
AcDb2dVertex
 10
147.3237143130582
 20
133.8165701169854
 30
0.0
  0
VERTEX
  5
100
330
44
100
AcDbEntity
  8
TOP_U_306E_U_30B3_U_30D4_U
100
AcDbVertex
100
AcDb2dVertex
 10
147.3045079638562
 20
133.8357764661867
 30
0.0
  0
VERTEX
  5
101
330
44
100
AcDbEntity
  8
TOP_U_306E_U_30B3_U_30D4_U
100
AcDbVertex
100
AcDb2dVertex
 10
147.2853016146549
 20
133.854982815388
 30
0.0
  0
VERTEX
  5
102
330
44
100
AcDbEntity
  8
TOP_U_306E_U_30B3_U_30D4_U
100
AcDbVertex
100
AcDb2dVertex
 10
147.2660952654535
 20
133.8741891645894
 30
0.0
  0
VERTEX
  5
103
330
44
100
AcDbEntity
  8
TOP_U_306E_U_30B3_U_30D4_U
100
AcDbVertex
100
AcDb2dVertex
 10
147.2468889162522
 20
133.8933955137913
 30
0.0
  0
VERTEX
  5
104
330
44
100
AcDbEntity
  8
TOP_U_306E_U_30B3_U_30D4_U
100
AcDbVertex
100
AcDb2dVertex
 10
147.2276825670509
 20
133.9126018629933
 30
0.0
  0
VERTEX
  5
105
330
44
100
AcDbEntity
  8
TOP_U_306E_U_30B3_U_30D4_U
100
AcDbVertex
100
AcDb2dVertex
 10
147.208476217849
 20
133.9318082121946
 30
0.0
  0
VERTEX
  5
106
330
44
100
AcDbEntity
  8
TOP_U_306E_U_30B3_U_30D4_U
100
AcDbVertex
100
AcDb2dVertex
 10
147.1936349480112
 20
133.9542156195964
 30
0.0
  0
VERTEX
  5
107
330
44
100
AcDbEntity
  8
TOP_U_306E_U_30B3_U_30D4_U
100
AcDbVertex
100
AcDb2dVertex
 10
147.1787936781741
 20
133.9766230269981
 30
0.0
  0
VERTEX
  5
108
330
44
100
AcDbEntity
  8
TOP_U_306E_U_30B3_U_30D4_U
100
AcDbVertex
100
AcDb2dVertex
 10
147.1639524083364
 20
133.9990304343999
 30
0.0
  0
VERTEX
  5
109
330
44
100
AcDbEntity
  8
TOP_U_306E_U_30B3_U_30D4_U
100
AcDbVertex
100
AcDb2dVertex
 10
147.1491111384987
 20
134.0214378418016
 30
0.0
  0
VERTEX
  5
10A
330
44
100
AcDbEntity
  8
TOP_U_306E_U_30B3_U_30D4_U
100
AcDbVertex
100
AcDb2dVertex
 10
147.1342698686609
 20
134.0438452492034
 30
0.0
  0
VERTEX
  5
10B
330
44
100
AcDbEntity
  8
TOP_U_306E_U_30B3_U_30D4_U
100
AcDbVertex
100
AcDb2dVertex
 10
147.1194285988232
 20
134.0662526566051
 30
0.0
  0
VERTEX
  5
10C
330
44
100
AcDbEntity
  8
TOP_U_306E_U_30B3_U_30D4_U
100
AcDbVertex
100
AcDb2dVertex
 10
147.1045873289861
 20
134.0886600640069
 30
0.0
  0
VERTEX
  5
10D
330
44
100
AcDbEntity
  8
TOP_U_306E_U_30B3_U_30D4_U
100
AcDbVertex
100
AcDb2dVertex
 10
147.0897460591484
 20
134.1110674714093
 30
0.0
  0
VERTEX
  5
10E
330
44
100
AcDbEntity
  8
TOP_U_306E_U_30B3_U_30D4_U
100
AcDbVertex
100
AcDb2dVertex
 10
147.08392595333
 20
134.1247447200832
 30
0.0
  0
VERTEX
  5
10F
330
44
100
AcDbEntity
  8
TOP_U_306E_U_30B3_U_30D4_U
100
AcDbVertex
100
AcDb2dVertex
 10
147.0781058475111
 20
134.1384219687565
 30
0.0
  0
VERTEX
  5
110
330
44
100
AcDbEntity
  8
TOP_U_306E_U_30B3_U_30D4_U
100
AcDbVertex
100
AcDb2dVertex
 10
147.0722857416921
 20
134.1520992174304
 30
0.0
  0
VERTEX
  5
111
330
44
100
AcDbEntity
  8
TOP_U_306E_U_30B3_U_30D4_U
100
AcDbVertex
100
AcDb2dVertex
 10
147.0664656358738
 20
134.1657764661044
 30
0.0
  0
VERTEX
  5
112
330
44
100
AcDbEntity
  8
TOP_U_306E_U_30B3_U_30D4_U
100
AcDbVertex
100
AcDb2dVertex
 10
147.0606455300554
 20
134.1794537147783
 30
0.0
  0
VERTEX
  5
113
330
44
100
AcDbEntity
  8
TOP_U_306E_U_30B3_U_30D4_U
100
AcDbVertex
100
AcDb2dVertex
 10
147.0548254242365
 20
134.1931309634523
 30
0.0
  0
VERTEX
  5
114
330
44
100
AcDbEntity
  8
TOP_U_306E_U_30B3_U_30D4_U
100
AcDbVertex
100
AcDb2dVertex
 10
147.0490053184175
 20
134.2068082121255
 30
0.0
  0
VERTEX
  5
115
330
44
100
AcDbEntity
  8
TOP_U_306E_U_30B3_U_30D4_U
100
AcDbVertex
100
AcDb2dVertex
 10
147.0431852125992
 20
134.2204854607995
 30
0.0
  0
VERTEX
  5
116
330
44
100
AcDbEntity
  8
TOP_U_306E_U_30B3_U_30D4_U
100
AcDbVertex
100
AcDb2dVertex
 10
147.0385291279447
 20
134.2318346671458
 30
0.0
  0
VERTEX
  5
117
330
44
100
AcDbEntity
  8
TOP_U_306E_U_30B3_U_30D4_U
100
AcDbVertex
100
AcDb2dVertex
 10
147.0338730432895
 20
134.2431838734922
 30
0.0
  0
VERTEX
  5
118
330
44
100
AcDbEntity
  8
TOP_U_306E_U_30B3_U_30D4_U
100
AcDbVertex
100
AcDb2dVertex
 10
147.0292169586343
 20
134.2545330798386
 30
0.0
  0
VERTEX
  5
119
330
44
100
AcDbEntity
  8
TOP_U_306E_U_30B3_U_30D4_U
100
AcDbVertex
100
AcDb2dVertex
 10
147.0245608739791
 20
134.2658822861849
 30
0.0
  0
VERTEX
  5
11A
330
44
100
AcDbEntity
  8
TOP_U_306E_U_30B3_U_30D4_U
100
AcDbVertex
100
AcDb2dVertex
 10
147.0199047893239
 20
134.2772314925312
 30
0.0
  0
VERTEX
  5
11B
330
44
100
AcDbEntity
  8
TOP_U_306E_U_30B3_U_30D4_U
100
AcDbVertex
100
AcDb2dVertex
 10
147.0152487046694
 20
134.2885806988776
 30
0.0
  0
VERTEX
  5
11C
330
44
100
AcDbEntity
  8
TOP_U_306E_U_30B3_U_30D4_U
100
AcDbVertex
100
AcDb2dVertex
 10
147.0105926200149
 20
134.2999299052239
 30
0.0
  0
VERTEX
  5
11D
330
44
100
AcDbEntity
  8
TOP_U_306E_U_30B3_U_30D4_U
100
AcDbVertex
100
AcDb2dVertex
 10
147.0059365353597
 20
134.3112791115703
 30
0.0
  0
VERTEX
  5
11E
330
44
100
AcDbEntity
  8
TOP_U_306E_U_30B3_U_30D4_U
100
AcDbVertex
100
AcDb2dVertex
 10
147.0006984401226
 20
134.3377605930447
 30
0.0
  0
VERTEX
  5
11F
330
44
100
AcDbEntity
  8
TOP_U_306E_U_30B3_U_30D4_U
100
AcDbVertex
100
AcDb2dVertex
 10
146.9954603448862
 20
134.3642420745197
 30
0.0
  0
VERTEX
  5
120
330
44
100
AcDbEntity
  8
TOP_U_306E_U_30B3_U_30D4_U
100
AcDbVertex
100
AcDb2dVertex
 10
146.9902222496497
 20
134.3907235559948
 30
0.0
  0
VERTEX
  5
121
330
44
100
AcDbEntity
  8
TOP_U_306E_U_30B3_U_30D4_U
100
AcDbVertex
100
AcDb2dVertex
 10
146.9849841544127
 20
134.4172050374698
 30
0.0
  0
VERTEX
  5
122
330
44
100
AcDbEntity
  8
TOP_U_306E_U_30B3_U_30D4_U
100
AcDbVertex
100
AcDb2dVertex
 10
146.9797460591756
 20
134.4436865189448
 30
0.0
  0
VERTEX
  5
123
330
44
100
AcDbEntity
  8
TOP_U_306E_U_30B3_U_30D4_U
100
AcDbVertex
100
AcDb2dVertex
 10
146.9745079639392
 20
134.4701680004198
 30
0.0
  0
VERTEX
  5
124
330
44
100
AcDbEntity
  8
TOP_U_306E_U_30B3_U_30D4_U
100
AcDbVertex
100
AcDb2dVertex
 10
146.9692698687028
 20
134.4966494818949
 30
0.0
  0
VERTEX
  5
125
330
44
100
AcDbEntity
  8
TOP_U_306E_U_30B3_U_30D4_U
100
AcDbVertex
100
AcDb2dVertex
 10
146.9640317734657
 20
134.5231309633693
 30
0.0
  0
VERTEX
  5
126
330
44
100
AcDbEntity
  8
TOP_U_306E_U_30B3_U_30D4_U
100
AcDbVertex
100
AcDb2dVertex
 10
146.9640317734657
 20
134.5501944554256
 30
0.0
  0
VERTEX
  5
127
330
44
100
AcDbEntity
  8
TOP_U_306E_U_30B3_U_30D4_U
100
AcDbVertex
100
AcDb2dVertex
 10
146.9640317734657
 20
134.5772579474825
 30
0.0
  0
VERTEX
  5
128
330
44
100
AcDbEntity
  8
TOP_U_306E_U_30B3_U_30D4_U
100
AcDbVertex
100
AcDb2dVertex
 10
146.9640317734657
 20
134.6043214395394
 30
0.0
  0
VERTEX
  5
129
330
44
100
AcDbEntity
  8
TOP_U_306E_U_30B3_U_30D4_U
100
AcDbVertex
100
AcDb2dVertex
 10
146.9640317734657
 20
134.6313849315963
 30
0.0
  0
VERTEX
  5
12A
330
44
100
AcDbEntity
  8
TOP_U_306E_U_30B3_U_30D4_U
100
AcDbVertex
100
AcDb2dVertex
 10
146.9640317734657
 20
134.6584484236533
 30
0.0
  0
VERTEX
  5
12B
330
44
100
AcDbEntity
  8
TOP_U_306E_U_30B3_U_30D4_U
100
AcDbVertex
100
AcDb2dVertex
 10
146.9640317734657
 20
134.6855119157102
 30
0.0
  0
VERTEX
  5
12C
330
44
100
AcDbEntity
  8
TOP_U_306E_U_30B3_U_30D4_U
100
AcDbVertex
100
AcDb2dVertex
 10
146.9640317734657
 20
134.7125754077671
 30
0.0
  0
VERTEX
  5
12D
330
44
100
AcDbEntity
  8
TOP_U_306E_U_30B3_U_30D4_U
100
AcDbVertex
100
AcDb2dVertex
 10
146.9640317734657
 20
134.7396388998234
 30
0.0
  0
VERTEX
  5
12E
330
44
100
AcDbEntity
  8
TOP_U_306E_U_30B3_U_30D4_U
100
AcDbVertex
100
AcDb2dVertex
 10
146.9692698687028
 20
134.7664113865887
 30
0.0
  0
VERTEX
  5
12F
330
44
100
AcDbEntity
  8
TOP_U_306E_U_30B3_U_30D4_U
100
AcDbVertex
100
AcDb2dVertex
 10
146.9745079639392
 20
134.7931838733547
 30
0.0
  0
VERTEX
  5
130
330
44
100
AcDbEntity
  8
TOP_U_306E_U_30B3_U_30D4_U
100
AcDbVertex
100
AcDb2dVertex
 10
146.9797460591756
 20
134.8199563601207
 30
0.0
  0
VERTEX
  5
131
330
44
100
AcDbEntity
  8
TOP_U_306E_U_30B3_U_30D4_U
100
AcDbVertex
100
AcDb2dVertex
 10
146.9849841544127
 20
134.8467288468867
 30
0.0
  0
VERTEX
  5
132
330
44
100
AcDbEntity
  8
TOP_U_306E_U_30B3_U_30D4_U
100
AcDbVertex
100
AcDb2dVertex
 10
146.9902222496497
 20
134.8735013336527
 30
0.0
  0
VERTEX
  5
133
330
44
100
AcDbEntity
  8
TOP_U_306E_U_30B3_U_30D4_U
100
AcDbVertex
100
AcDb2dVertex
 10
146.9954603448862
 20
134.900273820418
 30
0.0
  0
VERTEX
  5
134
330
44
100
AcDbEntity
  8
TOP_U_306E_U_30B3_U_30D4_U
100
AcDbVertex
100
AcDb2dVertex
 10
147.0006984401226
 20
134.9270463071833
 30
0.0
  0
VERTEX
  5
135
330
44
100
AcDbEntity
  8
TOP_U_306E_U_30B3_U_30D4_U
100
AcDbVertex
100
AcDb2dVertex
 10
147.0059365353597
 20
134.9538187939493
 30
0.0
  0
VERTEX
  5
136
330
44
100
AcDbEntity
  8
TOP_U_306E_U_30B3_U_30D4_U
100
AcDbVertex
100
AcDb2dVertex
 10
147.0161217205423
 20
134.9782632383877
 30
0.0
  0
VERTEX
  5
137
330
44
100
AcDbEntity
  8
TOP_U_306E_U_30B3_U_30D4_U
100
AcDbVertex
100
AcDb2dVertex
 10
147.0263069057248
 20
135.0027076828261
 30
0.0
  0
VERTEX
  5
138
330
44
100
AcDbEntity
  8
TOP_U_306E_U_30B3_U_30D4_U
100
AcDbVertex
100
AcDb2dVertex
 10
147.036492090908
 20
135.0271521272645
 30
0.0
  0
VERTEX
  5
139
330
44
100
AcDbEntity
  8
TOP_U_306E_U_30B3_U_30D4_U
100
AcDbVertex
100
AcDb2dVertex
 10
147.0466772760906
 20
135.0515965717029
 30
0.0
  0
VERTEX
  5
13A
330
44
100
AcDbEntity
  8
TOP_U_306E_U_30B3_U_30D4_U
100
AcDbVertex
100
AcDb2dVertex
 10
147.0568624612731
 20
135.0760410161413
 30
0.0
  0
VERTEX
  5
13B
330
44
100
AcDbEntity
  8
TOP_U_306E_U_30B3_U_30D4_U
100
AcDbVertex
100
AcDb2dVertex
 10
147.0670476464563
 20
135.1004854605797
 30
0.0
  0
VERTEX
  5
13C
330
44
100
AcDbEntity
  8
TOP_U_306E_U_30B3_U_30D4_U
100
AcDbVertex
100
AcDb2dVertex
 10
147.0772328316389
 20
135.1249299050181
 30
0.0
  0
VERTEX
  5
13D
330
44
100
AcDbEntity
  8
TOP_U_306E_U_30B3_U_30D4_U
100
AcDbVertex
100
AcDb2dVertex
 10
147.0874180168214
 20
135.1493743494565
 30
0.0
  0
VERTEX
  5
13E
330
44
100
AcDbEntity
  8
TOP_U_306E_U_30B3_U_30D4_U
100
AcDbVertex
100
AcDb2dVertex
 10
147.0877090221124
 20
135.1496653547474
 30
0.0
  0
VERTEX
  5
13F
330
44
100
AcDbEntity
  8
TOP_U_306E_U_30B3_U_30D4_U
100
AcDbVertex
100
AcDb2dVertex
 10
147.0880000274033
 20
135.1499563600383
 30
0.0
  0
VERTEX
  5
140
330
44
100
AcDbEntity
  8
TOP_U_306E_U_30B3_U_30D4_U
100
AcDbVertex
100
AcDb2dVertex
 10
147.0882910326943
 20
135.1502473653293
 30
0.0
  0
VERTEX
  5
141
330
44
100
AcDbEntity
  8
TOP_U_306E_U_30B3_U_30D4_U
100
AcDbVertex
100
AcDb2dVertex
 10
147.0885820379852
 20
135.1505383706202
 30
0.0
  0
VERTEX
  5
142
330
44
100
AcDbEntity
  8
TOP_U_306E_U_30B3_U_30D4_U
100
AcDbVertex
100
AcDb2dVertex
 10
147.0888730432762
 20
135.1508293759112
 30
0.0
  0
VERTEX
  5
143
330
44
100
AcDbEntity
  8
TOP_U_306E_U_30B3_U_30D4_U
100
AcDbVertex
100
AcDb2dVertex
 10
147.0891640485671
 20
135.1511203812022
 30
0.0
  0
VERTEX
  5
144
330
44
100
AcDbEntity
  8
TOP_U_306E_U_30B3_U_30D4_U
100
AcDbVertex
100
AcDb2dVertex
 10
147.0894550538581
 20
135.1514113864931
 30
0.0
  0
VERTEX
  5
145
330
44
100
AcDbEntity
  8
TOP_U_306E_U_30B3_U_30D4_U
100
AcDbVertex
100
AcDb2dVertex
 10
147.0897460591484
 20
135.1517023917841
 30
0.0
  0
VERTEX
  5
146
330
44
100
AcDbEntity
  8
TOP_U_306E_U_30B3_U_30D4_U
100
AcDbVertex
100
AcDb2dVertex
 10
147.1045873289861
 20
135.1744008044768
 30
0.0
  0
VERTEX
  5
147
330
44
100
AcDbEntity
  8
TOP_U_306E_U_30B3_U_30D4_U
100
AcDbVertex
100
AcDb2dVertex
 10
147.1194285988232
 20
135.1970992171694
 30
0.0
  0
VERTEX
  5
148
330
44
100
AcDbEntity
  8
TOP_U_306E_U_30B3_U_30D4_U
100
AcDbVertex
100
AcDb2dVertex
 10
147.1342698686609
 20
135.2197976298621
 30
0.0
  0
VERTEX
  5
149
330
44
100
AcDbEntity
  8
TOP_U_306E_U_30B3_U_30D4_U
100
AcDbVertex
100
AcDb2dVertex
 10
147.1491111384987
 20
135.2424960425548
 30
0.0
  0
VERTEX
  5
14A
330
44
100
AcDbEntity
  8
TOP_U_306E_U_30B3_U_30D4_U
100
AcDbVertex
100
AcDb2dVertex
 10
147.1639524083364
 20
135.2651944552476
 30
0.0
  0
VERTEX
  5
14B
330
44
100
AcDbEntity
  8
TOP_U_306E_U_30B3_U_30D4_U
100
AcDbVertex
100
AcDb2dVertex
 10
147.1787936781741
 20
135.2878928679403
 30
0.0
  0
VERTEX
  5
14C
330
44
100
AcDbEntity
  8
TOP_U_306E_U_30B3_U_30D4_U
100
AcDbVertex
100
AcDb2dVertex
 10
147.1936349480112
 20
135.310591280633
 30
0.0
  0
VERTEX
  5
14D
330
44
100
AcDbEntity
  8
TOP_U_306E_U_30B3_U_30D4_U
100
AcDbVertex
100
AcDb2dVertex
 10
147.208476217849
 20
135.3332896933257
 30
0.0
  0
VERTEX
  5
14E
330
44
100
AcDbEntity
  8
TOP_U_306E_U_30B3_U_30D4_U
100
AcDbVertex
100
AcDb2dVertex
 10
147.2276825670509
 20
135.352496042527
 30
0.0
  0
VERTEX
  5
14F
330
44
100
AcDbEntity
  8
TOP_U_306E_U_30B3_U_30D4_U
100
AcDbVertex
100
AcDb2dVertex
 10
147.2468889162522
 20
135.3717023917289
 30
0.0
  0
VERTEX
  5
150
330
44
100
AcDbEntity
  8
TOP_U_306E_U_30B3_U_30D4_U
100
AcDbVertex
100
AcDb2dVertex
 10
147.2660952654535
 20
135.3909087409309
 30
0.0
  0
VERTEX
  5
151
330
44
100
AcDbEntity
  8
TOP_U_306E_U_30B3_U_30D4_U
100
AcDbVertex
100
AcDb2dVertex
 10
147.2853016146549
 20
135.4101150901322
 30
0.0
  0
VERTEX
  5
152
330
44
100
AcDbEntity
  8
TOP_U_306E_U_30B3_U_30D4_U
100
AcDbVertex
100
AcDb2dVertex
 10
147.3045079638562
 20
135.4293214393335
 30
0.0
  0
VERTEX
  5
153
330
44
100
AcDbEntity
  8
TOP_U_306E_U_30B3_U_30D4_U
100
AcDbVertex
100
AcDb2dVertex
 10
147.3237143130582
 20
135.4485277885348
 30
0.0
  0
VERTEX
  5
154
330
44
100
AcDbEntity
  8
TOP_U_306E_U_30B3_U_30D4_U
100
AcDbVertex
100
AcDb2dVertex
 10
147.3429206622601
 20
135.4677341377362
 30
0.0
  0
VERTEX
  5
155
330
44
100
AcDbEntity
  8
TOP_U_306E_U_30B3_U_30D4_U
100
AcDbVertex
100
AcDb2dVertex
 10
147.3621270114614
 20
135.4869404869381
 30
0.0
  0
VERTEX
  5
156
330
44
100
AcDbEntity
  8
TOP_U_306E_U_30B3_U_30D4_U
100
AcDbVertex
100
AcDb2dVertex
 10
147.3848254241541
 20
135.5017817567759
 30
0.0
  0
VERTEX
  5
157
330
44
100
AcDbEntity
  8
TOP_U_306E_U_30B3_U_30D4_U
100
AcDbVertex
100
AcDb2dVertex
 10
147.4075238368468
 20
135.516623026613
 30
0.0
  0
VERTEX
  5
158
330
44
100
AcDbEntity
  8
TOP_U_306E_U_30B3_U_30D4_U
100
AcDbVertex
100
AcDb2dVertex
 10
147.4302222495395
 20
135.5314642964507
 30
0.0
  0
VERTEX
  5
159
330
44
100
AcDbEntity
  8
TOP_U_306E_U_30B3_U_30D4_U
100
AcDbVertex
100
AcDb2dVertex
 10
147.4529206622322
 20
135.5463055662884
 30
0.0
  0
VERTEX
  5
15A
330
44
100
AcDbEntity
  8
TOP_U_306E_U_30B3_U_30D4_U
100
AcDbVertex
100
AcDb2dVertex
 10
147.4756190749249
 20
135.5611468361261
 30
0.0
  0
VERTEX
  5
15B
330
44
100
AcDbEntity
  8
TOP_U_306E_U_30B3_U_30D4_U
100
AcDbVertex
100
AcDb2dVertex
 10
147.4983174876176
 20
135.5759881059639
 30
0.0
  0
VERTEX
  5
15C
330
44
100
AcDbEntity
  8
TOP_U_306E_U_30B3_U_30D4_U
100
AcDbVertex
100
AcDb2dVertex
 10
147.5210159003103
 20
135.590829375801
 30
0.0
  0
VERTEX
  5
15D
330
44
100
AcDbEntity
  8
TOP_U_306E_U_30B3_U_30D4_U
100
AcDbVertex
100
AcDb2dVertex
 10
147.543714313003
 20
135.6056706456387
 30
0.0
  0
VERTEX
  5
15E
330
44
100
AcDbEntity
  8
TOP_U_306E_U_30B3_U_30D4_U
100
AcDbVertex
100
AcDb2dVertex
 10
147.5576825669679
 20
135.611490751457
 30
0.0
  0
VERTEX
  5
15F
330
44
100
AcDbEntity
  8
TOP_U_306E_U_30B3_U_30D4_U
100
AcDbVertex
100
AcDb2dVertex
 10
147.5716508209328
 20
135.617310857276
 30
0.0
  0
VERTEX
  5
160
330
44
100
AcDbEntity
  8
TOP_U_306E_U_30B3_U_30D4_U
100
AcDbVertex
100
AcDb2dVertex
 10
147.5856190748977
 20
135.623130963095
 30
0.0
  0
VERTEX
  5
161
330
44
100
AcDbEntity
  8
TOP_U_306E_U_30B3_U_30D4_U
100
AcDbVertex
100
AcDb2dVertex
 10
147.5995873288626
 20
135.6289510689133
 30
0.0
  0
VERTEX
  5
162
330
44
100
AcDbEntity
  8
TOP_U_306E_U_30B3_U_30D4_U
100
AcDbVertex
100
AcDb2dVertex
 10
147.6135555828275
 20
135.6347711747316
 30
0.0
  0
VERTEX
  5
163
330
44
100
AcDbEntity
  8
TOP_U_306E_U_30B3_U_30D4_U
100
AcDbVertex
100
AcDb2dVertex
 10
147.6275238367924
 20
135.6405912805506
 30
0.0
  0
VERTEX
  5
164
330
44
100
AcDbEntity
  8
TOP_U_306E_U_30B3_U_30D4_U
100
AcDbVertex
100
AcDb2dVertex
 10
147.6414920907566
 20
135.6464113863696
 30
0.0
  0
VERTEX
  5
165
330
44
100
AcDbEntity
  8
TOP_U_306E_U_30B3_U_30D4_U
100
AcDbVertex
100
AcDb2dVertex
 10
147.6554603447215
 20
135.6522314921879
 30
0.0
  0
VERTEX
  5
166
330
44
100
AcDbEntity
  8
TOP_U_306E_U_30B3_U_30D4_U
100
AcDbVertex
100
AcDb2dVertex
 10
147.6665185457769
 20
135.6568875768424
 30
0.0
  0
VERTEX
  5
167
330
44
100
AcDbEntity
  8
TOP_U_306E_U_30B3_U_30D4_U
100
AcDbVertex
100
AcDb2dVertex
 10
147.6775767468323
 20
135.6615436614976
 30
0.0
  0
VERTEX
  5
168
330
44
100
AcDbEntity
  8
TOP_U_306E_U_30B3_U_30D4_U
100
AcDbVertex
100
AcDb2dVertex
 10
147.6886349478877
 20
135.6661997461528
 30
0.0
  0
VERTEX
  5
169
330
44
100
AcDbEntity
  8
TOP_U_306E_U_30B3_U_30D4_U
100
AcDbVertex
100
AcDb2dVertex
 10
147.6996931489431
 20
135.670855830808
 30
0.0
  0
VERTEX
  5
16A
330
44
100
AcDbEntity
  8
TOP_U_306E_U_30B3_U_30D4_U
100
AcDbVertex
100
AcDb2dVertex
 10
147.7107513499985
 20
135.6755119154631
 30
0.0
  0
VERTEX
  5
16B
330
44
100
AcDbEntity
  8
TOP_U_306E_U_30B3_U_30D4_U
100
AcDbVertex
100
AcDb2dVertex
 10
147.7218095510539
 20
135.6801680001177
 30
0.0
  0
VERTEX
  5
16C
330
44
100
AcDbEntity
  8
TOP_U_306E_U_30B3_U_30D4_U
100
AcDbVertex
100
AcDb2dVertex
 10
147.7328677521093
 20
135.6848240847722
 30
0.0
  0
VERTEX
  5
16D
330
44
100
AcDbEntity
  8
TOP_U_306E_U_30B3_U_30D4_U
100
AcDbVertex
100
AcDb2dVertex
 10
147.7439259531647
 20
135.6894801694274
 30
0.0
  0
VERTEX
  5
16E
330
44
100
AcDbEntity
  8
TOP_U_306E_U_30B3_U_30D4_U
100
AcDbVertex
100
AcDb2dVertex
 10
147.7704074346391
 20
135.6947182646645
 30
0.0
  0
VERTEX
  5
16F
330
44
100
AcDbEntity
  8
TOP_U_306E_U_30B3_U_30D4_U
100
AcDbVertex
100
AcDb2dVertex
 10
147.7968889161141
 20
135.6999563599009
 30
0.0
  0
VERTEX
  5
170
330
44
100
AcDbEntity
  8
TOP_U_306E_U_30B3_U_30D4_U
100
AcDbVertex
100
AcDb2dVertex
 10
147.8233703975892
 20
135.7051944551373
 30
0.0
  0
VERTEX
  5
171
330
44
100
AcDbEntity
  8
TOP_U_306E_U_30B3_U_30D4_U
100
AcDbVertex
100
AcDb2dVertex
 10
147.8498518790642
 20
135.7104325503744
 30
0.0
  0
VERTEX
  5
172
330
44
100
AcDbEntity
  8
TOP_U_306E_U_30B3_U_30D4_U
100
AcDbVertex
100
AcDb2dVertex
 10
147.8763333605392
 20
135.7156706456115
 30
0.0
  0
VERTEX
  5
173
330
44
100
AcDbEntity
  8
TOP_U_306E_U_30B3_U_30D4_U
100
AcDbVertex
100
AcDb2dVertex
 10
147.9028148420143
 20
135.7209087408479
 30
0.0
  0
VERTEX
  5
174
330
44
100
AcDbEntity
  8
TOP_U_306E_U_30B3_U_30D4_U
100
AcDbVertex
100
AcDb2dVertex
 10
147.9292963234893
 20
135.7261468360843
 30
0.0
  0
VERTEX
  5
175
330
44
100
AcDbEntity
  8
TOP_U_306E_U_30B3_U_30D4_U
100
AcDbVertex
100
AcDb2dVertex
 10
147.9557778049637
 20
135.7313849313214
 30
0.0
  0
VERTEX
  5
176
330
44
100
AcDbEntity
  8
TOP_U_306E_U_30B3_U_30D4_U
100
AcDbVertex
100
AcDb2dVertex
 10
147.98284129702
 20
135.7313849313214
 30
0.0
  0
VERTEX
  5
177
330
44
100
AcDbEntity
  8
TOP_U_306E_U_30B3_U_30D4_U
100
AcDbVertex
100
AcDb2dVertex
 10
148.0099047890769
 20
135.7313849313214
 30
0.0
  0
VERTEX
  5
178
330
44
100
AcDbEntity
  8
TOP_U_306E_U_30B3_U_30D4_U
100
AcDbVertex
100
AcDb2dVertex
 10
148.0369682811338
 20
135.7313849313214
 30
0.0
  0
VERTEX
  5
179
330
44
100
AcDbEntity
  8
TOP_U_306E_U_30B3_U_30D4_U
100
AcDbVertex
100
AcDb2dVertex
 10
148.0640317731907
 20
135.7313849313214
 30
0.0
  0
VERTEX
  5
17A
330
44
100
AcDbEntity
  8
TOP_U_306E_U_30B3_U_30D4_U
100
AcDbVertex
100
AcDb2dVertex
 10
148.0910952652477
 20
135.7313849313214
 30
0.0
  0
VERTEX
  5
17B
330
44
100
AcDbEntity
  8
TOP_U_306E_U_30B3_U_30D4_U
100
AcDbVertex
100
AcDb2dVertex
 10
148.1181587573046
 20
135.7313849313214
 30
0.0
  0
VERTEX
  5
17C
330
44
100
AcDbEntity
  8
TOP_U_306E_U_30B3_U_30D4_U
100
AcDbVertex
100
AcDb2dVertex
 10
148.1452222493615
 20
135.7313849313214
 30
0.0
  0
VERTEX
  5
17D
330
44
100
AcDbEntity
  8
TOP_U_306E_U_30B3_U_30D4_U
100
AcDbVertex
100
AcDb2dVertex
 10
148.1722857414178
 20
135.7313849313214
 30
0.0
  0
VERTEX
  5
17E
330
44
100
AcDbEntity
  8
TOP_U_306E_U_30B3_U_30D4_U
100
AcDbVertex
100
AcDb2dVertex
 10
148.1987672228922
 20
135.7261468360843
 30
0.0
  0
VERTEX
  5
17F
330
44
100
AcDbEntity
  8
TOP_U_306E_U_30B3_U_30D4_U
100
AcDbVertex
100
AcDb2dVertex
 10
148.2252487043672
 20
135.7209087408479
 30
0.0
  0
VERTEX
  5
180
330
44
100
AcDbEntity
  8
TOP_U_306E_U_30B3_U_30D4_U
100
AcDbVertex
100
AcDb2dVertex
 10
148.2517301858423
 20
135.7156706456115
 30
0.0
  0
VERTEX
  5
181
330
44
100
AcDbEntity
  8
TOP_U_306E_U_30B3_U_30D4_U
100
AcDbVertex
100
AcDb2dVertex
 10
148.2782116673173
 20
135.7104325503744
 30
0.0
  0
VERTEX
  5
182
330
44
100
AcDbEntity
  8
TOP_U_306E_U_30B3_U_30D4_U
100
AcDbVertex
100
AcDb2dVertex
 10
148.3046931487923
 20
135.7051944551373
 30
0.0
  0
VERTEX
  5
183
330
44
100
AcDbEntity
  8
TOP_U_306E_U_30B3_U_30D4_U
100
AcDbVertex
100
AcDb2dVertex
 10
148.3311746302674
 20
135.6999563599009
 30
0.0
  0
VERTEX
  5
184
330
44
100
AcDbEntity
  8
TOP_U_306E_U_30B3_U_30D4_U
100
AcDbVertex
100
AcDb2dVertex
 10
148.3576561117424
 20
135.6947182646645
 30
0.0
  0
VERTEX
  5
185
330
44
100
AcDbEntity
  8
TOP_U_306E_U_30B3_U_30D4_U
100
AcDbVertex
100
AcDb2dVertex
 10
148.3841375932168
 20
135.6894801694274
 30
0.0
  0
SEQEND
  5
186
330
44
100
AcDbEntity
  8
TOP_U_306E_U_30B3_U_30D4_U
  0
POLYLINE
  5
187
330
1F
100
AcDbEntity
  8
TOP_U_306E_U_30B3_U_30D4_U
100
AcDb2dPolyline
 66
     1
 10
0.0
 20
0.0
 30
0.0
  0
VERTEX
  5
188
330
187
100
AcDbEntity
  8
TOP_U_306E_U_30B3_U_30D4_U
100
AcDbVertex
100
AcDb2dVertex
 10
183.5468742268696
 20
115.6300816952614
 30
0.0
  0
VERTEX
  5
189
330
187
100
AcDbEntity
  8
TOP_U_306E_U_30B3_U_30D4_U
100
AcDbVertex
100
AcDb2dVertex
 10
183.557932427925
 20
115.6254256106069
 30
0.0
  0
VERTEX
  5
18A
330
187
100
AcDbEntity
  8
TOP_U_306E_U_30B3_U_30D4_U
100
AcDbVertex
100
AcDb2dVertex
 10
183.5689906289804
 20
115.6207695259517
 30
0.0
  0
VERTEX
  5
18B
330
187
100
AcDbEntity
  8
TOP_U_306E_U_30B3_U_30D4_U
100
AcDbVertex
100
AcDb2dVertex
 10
183.5800488300358
 20
115.6161134412965
 30
0.0
  0
VERTEX
  5
18C
330
187
100
AcDbEntity
  8
TOP_U_306E_U_30B3_U_30D4_U
100
AcDbVertex
100
AcDb2dVertex
 10
183.5911070310912
 20
115.611457356642
 30
0.0
  0
VERTEX
  5
18D
330
187
100
AcDbEntity
  8
TOP_U_306E_U_30B3_U_30D4_U
100
AcDbVertex
100
AcDb2dVertex
 10
183.6021652321466
 20
115.6068012719874
 30
0.0
  0
VERTEX
  5
18E
330
187
100
AcDbEntity
  8
TOP_U_306E_U_30B3_U_30D4_U
100
AcDbVertex
100
AcDb2dVertex
 10
183.613223433202
 20
115.6021451873323
 30
0.0
  0
VERTEX
  5
18F
330
187
100
AcDbEntity
  8
TOP_U_306E_U_30B3_U_30D4_U
100
AcDbVertex
100
AcDb2dVertex
 10
183.6242816342574
 20
115.5974891026771
 30
0.0
  0
VERTEX
  5
190
330
187
100
AcDbEntity
  8
TOP_U_306E_U_30B3_U_30D4_U
100
AcDbVertex
100
AcDb2dVertex
 10
183.6353398353128
 20
115.5928330180225
 30
0.0
  0
VERTEX
  5
191
330
187
100
AcDbEntity
  8
TOP_U_306E_U_30B3_U_30D4_U
100
AcDbVertex
100
AcDb2dVertex
 10
183.6493080892777
 20
115.5870129122042
 30
0.0
  0
VERTEX
  5
192
330
187
100
AcDbEntity
  8
TOP_U_306E_U_30B3_U_30D4_U
100
AcDbVertex
100
AcDb2dVertex
 10
183.6632763432419
 20
115.5811928063852
 30
0.0
  0
VERTEX
  5
193
330
187
100
AcDbEntity
  8
TOP_U_306E_U_30B3_U_30D4_U
100
AcDbVertex
100
AcDb2dVertex
 10
183.6772445972068
 20
115.5753727005663
 30
0.0
  0
VERTEX
  5
194
330
187
100
AcDbEntity
  8
TOP_U_306E_U_30B3_U_30D4_U
100
AcDbVertex
100
AcDb2dVertex
 10
183.6912128511717
 20
115.5695525947479
 30
0.0
  0
VERTEX
  5
195
330
187
100
AcDbEntity
  8
TOP_U_306E_U_30B3_U_30D4_U
100
AcDbVertex
100
AcDb2dVertex
 10
183.7051811051366
 20
115.5637324889296
 30
0.0
  0
VERTEX
  5
196
330
187
100
AcDbEntity
  8
TOP_U_306E_U_30B3_U_30D4_U
100
AcDbVertex
100
AcDb2dVertex
 10
183.7191493591015
 20
115.5579123831106
 30
0.0
  0
VERTEX
  5
197
330
187
100
AcDbEntity
  8
TOP_U_306E_U_30B3_U_30D4_U
100
AcDbVertex
100
AcDb2dVertex
 10
183.7331176130664
 20
115.5520922772917
 30
0.0
  0
VERTEX
  5
198
330
187
100
AcDbEntity
  8
TOP_U_306E_U_30B3_U_30D4_U
100
AcDbVertex
100
AcDb2dVertex
 10
183.7470858670312
 20
115.5462721714733
 30
0.0
  0
VERTEX
  5
199
330
187
100
AcDbEntity
  8
TOP_U_306E_U_30B3_U_30D4_U
100
AcDbVertex
100
AcDb2dVertex
 10
183.769784279724
 20
115.5314309016356
 30
0.0
  0
VERTEX
  5
19A
330
187
100
AcDbEntity
  8
TOP_U_306E_U_30B3_U_30D4_U
100
AcDbVertex
100
AcDb2dVertex
 10
183.7924826924167
 20
115.5165896317985
 30
0.0
  0
VERTEX
  5
19B
330
187
100
AcDbEntity
  8
TOP_U_306E_U_30B3_U_30D4_U
100
AcDbVertex
100
AcDb2dVertex
 10
183.8151811051094
 20
115.5017483619608
 30
0.0
  0
VERTEX
  5
19C
330
187
100
AcDbEntity
  8
TOP_U_306E_U_30B3_U_30D4_U
100
AcDbVertex
100
AcDb2dVertex
 10
183.8378795178021
 20
115.4869070921231
 30
0.0
  0
VERTEX
  5
19D
330
187
100
AcDbEntity
  8
TOP_U_306E_U_30B3_U_30D4_U
100
AcDbVertex
100
AcDb2dVertex
 10
183.8605779304947
 20
115.4720658222853
 30
0.0
  0
VERTEX
  5
19E
330
187
100
AcDbEntity
  8
TOP_U_306E_U_30B3_U_30D4_U
100
AcDbVertex
100
AcDb2dVertex
 10
183.8832763431874
 20
115.4572245524476
 30
0.0
  0
VERTEX
  5
19F
330
187
100
AcDbEntity
  8
TOP_U_306E_U_30B3_U_30D4_U
100
AcDbVertex
100
AcDb2dVertex
 10
183.9059747558802
 20
115.4423832826105
 30
0.0
  0
VERTEX
  5
1A0
330
187
100
AcDbEntity
  8
TOP_U_306E_U_30B3_U_30D4_U
100
AcDbVertex
100
AcDb2dVertex
 10
183.9286731685729
 20
115.4275420127728
 30
0.0
  0
VERTEX
  5
1A1
330
187
100
AcDbEntity
  8
TOP_U_306E_U_30B3_U_30D4_U
100
AcDbVertex
100
AcDb2dVertex
 10
183.9475885124832
 20
115.4083356635708
 30
0.0
  0
VERTEX
  5
1A2
330
187
100
AcDbEntity
  8
TOP_U_306E_U_30B3_U_30D4_U
100
AcDbVertex
100
AcDb2dVertex
 10
183.9665038563942
 20
115.3891293143695
 30
0.0
  0
VERTEX
  5
1A3
330
187
100
AcDbEntity
  8
TOP_U_306E_U_30B3_U_30D4_U
100
AcDbVertex
100
AcDb2dVertex
 10
183.9854192003052
 20
115.3699229651682
 30
0.0
  0
VERTEX
  5
1A4
330
187
100
AcDbEntity
  8
TOP_U_306E_U_30B3_U_30D4_U
100
AcDbVertex
100
AcDb2dVertex
 10
184.0043345442156
 20
115.3507166159669
 30
0.0
  0
VERTEX
  5
1A5
330
187
100
AcDbEntity
  8
TOP_U_306E_U_30B3_U_30D4_U
100
AcDbVertex
100
AcDb2dVertex
 10
184.023249888126
 20
115.3315102667655
 30
0.0
  0
VERTEX
  5
1A6
330
187
100
AcDbEntity
  8
TOP_U_306E_U_30B3_U_30D4_U
100
AcDbVertex
100
AcDb2dVertex
 10
184.0421652320364
 20
115.3123039175636
 30
0.0
  0
VERTEX
  5
1A7
330
187
100
AcDbEntity
  8
TOP_U_306E_U_30B3_U_30D4_U
100
AcDbVertex
100
AcDb2dVertex
 10
184.0610805759467
 20
115.2930975683616
 30
0.0
  0
VERTEX
  5
1A8
330
187
100
AcDbEntity
  8
TOP_U_306E_U_30B3_U_30D4_U
100
AcDbVertex
100
AcDb2dVertex
 10
184.0799959198577
 20
115.2738912191603
 30
0.0
  0
VERTEX
  5
1A9
330
187
100
AcDbEntity
  8
TOP_U_306E_U_30B3_U_30D4_U
100
AcDbVertex
100
AcDb2dVertex
 10
184.0951281949864
 20
115.2511928064676
 30
0.0
  0
VERTEX
  5
1AA
330
187
100
AcDbEntity
  8
TOP_U_306E_U_30B3_U_30D4_U
100
AcDbVertex
100
AcDb2dVertex
 10
184.1102604701145
 20
115.2284943937749
 30
0.0
  0
VERTEX
  5
1AB
330
187
100
AcDbEntity
  8
TOP_U_306E_U_30B3_U_30D4_U
100
AcDbVertex
100
AcDb2dVertex
 10
184.1253927452431
 20
115.2057959810822
 30
0.0
  0
VERTEX
  5
1AC
330
187
100
AcDbEntity
  8
TOP_U_306E_U_30B3_U_30D4_U
100
AcDbVertex
100
AcDb2dVertex
 10
184.1405250203718
 20
115.1830975683895
 30
0.0
  0
VERTEX
  5
1AD
330
187
100
AcDbEntity
  8
TOP_U_306E_U_30B3_U_30D4_U
100
AcDbVertex
100
AcDb2dVertex
 10
184.1556572955005
 20
115.1603991556968
 30
0.0
  0
VERTEX
  5
1AE
330
187
100
AcDbEntity
  8
TOP_U_306E_U_30B3_U_30D4_U
100
AcDbVertex
100
AcDb2dVertex
 10
184.1707895706292
 20
115.1377007430041
 30
0.0
  0
VERTEX
  5
1AF
330
187
100
AcDbEntity
  8
TOP_U_306E_U_30B3_U_30D4_U
100
AcDbVertex
100
AcDb2dVertex
 10
184.1859218457572
 20
115.1150023303114
 30
0.0
  0
VERTEX
  5
1B0
330
187
100
AcDbEntity
  8
TOP_U_306E_U_30B3_U_30D4_U
100
AcDbVertex
100
AcDb2dVertex
 10
184.2010541208859
 20
115.0923039176181
 30
0.0
  0
VERTEX
  5
1B1
330
187
100
AcDbEntity
  8
TOP_U_306E_U_30B3_U_30D4_U
100
AcDbVertex
100
AcDb2dVertex
 10
184.2013451261762
 20
115.0920129123277
 30
0.0
  0
VERTEX
  5
1B2
330
187
100
AcDbEntity
  8
TOP_U_306E_U_30B3_U_30D4_U
100
AcDbVertex
100
AcDb2dVertex
 10
184.2016361314672
 20
115.0917219070368
 30
0.0
  0
VERTEX
  5
1B3
330
187
100
AcDbEntity
  8
TOP_U_306E_U_30B3_U_30D4_U
100
AcDbVertex
100
AcDb2dVertex
 10
184.2019271367581
 20
115.0914309017459
 30
0.0
  0
VERTEX
  5
1B4
330
187
100
AcDbEntity
  8
TOP_U_306E_U_30B3_U_30D4_U
100
AcDbVertex
100
AcDb2dVertex
 10
184.202218142049
 20
115.0911398964549
 30
0.0
  0
VERTEX
  5
1B5
330
187
100
AcDbEntity
  8
TOP_U_306E_U_30B3_U_30D4_U
100
AcDbVertex
100
AcDb2dVertex
 10
184.20250914734
 20
115.0908488911639
 30
0.0
  0
VERTEX
  5
1B6
330
187
100
AcDbEntity
  8
TOP_U_306E_U_30B3_U_30D4_U
100
AcDbVertex
100
AcDb2dVertex
 10
184.202800152631
 20
115.090557885873
 30
0.0
  0
VERTEX
  5
1B7
330
187
100
AcDbEntity
  8
TOP_U_306E_U_30B3_U_30D4_U
100
AcDbVertex
100
AcDb2dVertex
 10
184.2030911579219
 20
115.090266880582
 30
0.0
  0
VERTEX
  5
1B8
330
187
100
AcDbEntity
  8
TOP_U_306E_U_30B3_U_30D4_U
100
AcDbVertex
100
AcDb2dVertex
 10
184.2033821632129
 20
115.0899758752911
 30
0.0
  0
VERTEX
  5
1B9
330
187
100
AcDbEntity
  8
TOP_U_306E_U_30B3_U_30D4_U
100
AcDbVertex
100
AcDb2dVertex
 10
184.2135673483954
 20
115.0655314308527
 30
0.0
  0
VERTEX
  5
1BA
330
187
100
AcDbEntity
  8
TOP_U_306E_U_30B3_U_30D4_U
100
AcDbVertex
100
AcDb2dVertex
 10
184.223752533578
 20
115.0410869864143
 30
0.0
  0
VERTEX
  5
1BB
330
187
100
AcDbEntity
  8
TOP_U_306E_U_30B3_U_30D4_U
100
AcDbVertex
100
AcDb2dVertex
 10
184.2339377187612
 20
115.0166425419759
 30
0.0
  0
VERTEX
  5
1BC
330
187
100
AcDbEntity
  8
TOP_U_306E_U_30B3_U_30D4_U
100
AcDbVertex
100
AcDb2dVertex
 10
184.2441229039437
 20
114.9921980975375
 30
0.0
  0
VERTEX
  5
1BD
330
187
100
AcDbEntity
  8
TOP_U_306E_U_30B3_U_30D4_U
100
AcDbVertex
100
AcDb2dVertex
 10
184.2543080891263
 20
114.9677536530991
 30
0.0
  0
VERTEX
  5
1BE
330
187
100
AcDbEntity
  8
TOP_U_306E_U_30B3_U_30D4_U
100
AcDbVertex
100
AcDb2dVertex
 10
184.2644932743095
 20
114.9433092086608
 30
0.0
  0
VERTEX
  5
1BF
330
187
100
AcDbEntity
  8
TOP_U_306E_U_30B3_U_30D4_U
100
AcDbVertex
100
AcDb2dVertex
 10
184.274678459492
 20
114.9188647642224
 30
0.0
  0
VERTEX
  5
1C0
330
187
100
AcDbEntity
  8
TOP_U_306E_U_30B3_U_30D4_U
100
AcDbVertex
100
AcDb2dVertex
 10
184.2848636446746
 20
114.894420319784
 30
0.0
  0
VERTEX
  5
1C1
330
187
100
AcDbEntity
  8
TOP_U_306E_U_30B3_U_30D4_U
100
AcDbVertex
100
AcDb2dVertex
 10
184.2901017399116
 20
114.867647833018
 30
0.0
  0
VERTEX
  5
1C2
330
187
100
AcDbEntity
  8
TOP_U_306E_U_30B3_U_30D4_U
100
AcDbVertex
100
AcDb2dVertex
 10
184.2953398351481
 20
114.8408753462526
 30
0.0
  0
VERTEX
  5
1C3
330
187
100
AcDbEntity
  8
TOP_U_306E_U_30B3_U_30D4_U
100
AcDbVertex
100
AcDb2dVertex
 10
184.3005779303845
 20
114.8141028594873
 30
0.0
  0
VERTEX
  5
1C4
330
187
100
AcDbEntity
  8
TOP_U_306E_U_30B3_U_30D4_U
100
AcDbVertex
100
AcDb2dVertex
 10
184.3058160256216
 20
114.7873303727213
 30
0.0
  0
VERTEX
  5
1C5
330
187
100
AcDbEntity
  8
TOP_U_306E_U_30B3_U_30D4_U
100
AcDbVertex
100
AcDb2dVertex
 10
184.3110541208587
 20
114.7605578859554
 30
0.0
  0
VERTEX
  5
1C6
330
187
100
AcDbEntity
  8
TOP_U_306E_U_30B3_U_30D4_U
100
AcDbVertex
100
AcDb2dVertex
 10
184.3162922160951
 20
114.7337853991894
 30
0.0
  0
VERTEX
  5
1C7
330
187
100
AcDbEntity
  8
TOP_U_306E_U_30B3_U_30D4_U
100
AcDbVertex
100
AcDb2dVertex
 10
184.3215303113315
 20
114.7070129124234
 30
0.0
  0
VERTEX
  5
1C8
330
187
100
AcDbEntity
  8
TOP_U_306E_U_30B3_U_30D4_U
100
AcDbVertex
100
AcDb2dVertex
 10
184.3267684065686
 20
114.6802404256581
 30
0.0
  0
VERTEX
  5
1C9
330
187
100
AcDbEntity
  8
TOP_U_306E_U_30B3_U_30D4_U
100
AcDbVertex
100
AcDb2dVertex
 10
184.3267684065686
 20
114.6531769336018
 30
0.0
  0
VERTEX
  5
1CA
330
187
100
AcDbEntity
  8
TOP_U_306E_U_30B3_U_30D4_U
100
AcDbVertex
100
AcDb2dVertex
 10
184.3267684065686
 20
114.6261134415448
 30
0.0
  0
VERTEX
  5
1CB
330
187
100
AcDbEntity
  8
TOP_U_306E_U_30B3_U_30D4_U
100
AcDbVertex
100
AcDb2dVertex
 10
184.3267684065686
 20
114.5990499494879
 30
0.0
  0
VERTEX
  5
1CC
330
187
100
AcDbEntity
  8
TOP_U_306E_U_30B3_U_30D4_U
100
AcDbVertex
100
AcDb2dVertex
 10
184.3267684065686
 20
114.571986457431
 30
0.0
  0
VERTEX
  5
1CD
330
187
100
AcDbEntity
  8
TOP_U_306E_U_30B3_U_30D4_U
100
AcDbVertex
100
AcDb2dVertex
 10
184.3267684065686
 20
114.5449229653741
 30
0.0
  0
VERTEX
  5
1CE
330
187
100
AcDbEntity
  8
TOP_U_306E_U_30B3_U_30D4_U
100
AcDbVertex
100
AcDb2dVertex
 10
184.3267684065686
 20
114.5178594733171
 30
0.0
  0
VERTEX
  5
1CF
330
187
100
AcDbEntity
  8
TOP_U_306E_U_30B3_U_30D4_U
100
AcDbVertex
100
AcDb2dVertex
 10
184.3267684065686
 20
114.4907959812602
 30
0.0
  0
VERTEX
  5
1D0
330
187
100
AcDbEntity
  8
TOP_U_306E_U_30B3_U_30D4_U
100
AcDbVertex
100
AcDb2dVertex
 10
184.3267684065686
 20
114.4637324892039
 30
0.0
  0
VERTEX
  5
1D1
330
187
100
AcDbEntity
  8
TOP_U_306E_U_30B3_U_30D4_U
100
AcDbVertex
100
AcDb2dVertex
 10
184.3215303113315
 20
114.4372510077295
 30
0.0
  0
VERTEX
  5
1D2
330
187
100
AcDbEntity
  8
TOP_U_306E_U_30B3_U_30D4_U
100
AcDbVertex
100
AcDb2dVertex
 10
184.3162922160951
 20
114.4107695262545
 30
0.0
  0
VERTEX
  5
1D3
330
187
100
AcDbEntity
  8
TOP_U_306E_U_30B3_U_30D4_U
100
AcDbVertex
100
AcDb2dVertex
 10
184.3110541208587
 20
114.3842880447795
 30
0.0
  0
VERTEX
  5
1D4
330
187
100
AcDbEntity
  8
TOP_U_306E_U_30B3_U_30D4_U
100
AcDbVertex
100
AcDb2dVertex
 10
184.3058160256216
 20
114.3578065633044
 30
0.0
  0
VERTEX
  5
1D5
330
187
100
AcDbEntity
  8
TOP_U_306E_U_30B3_U_30D4_U
100
AcDbVertex
100
AcDb2dVertex
 10
184.3005779303845
 20
114.3313250818294
 30
0.0
  0
VERTEX
  5
1D6
330
187
100
AcDbEntity
  8
TOP_U_306E_U_30B3_U_30D4_U
100
AcDbVertex
100
AcDb2dVertex
 10
184.2953398351481
 20
114.3048436003544
 30
0.0
  0
VERTEX
  5
1D7
330
187
100
AcDbEntity
  8
TOP_U_306E_U_30B3_U_30D4_U
100
AcDbVertex
100
AcDb2dVertex
 10
184.2901017399116
 20
114.2783621188793
 30
0.0
  0
VERTEX
  5
1D8
330
187
100
AcDbEntity
  8
TOP_U_306E_U_30B3_U_30D4_U
100
AcDbVertex
100
AcDb2dVertex
 10
184.2848636446746
 20
114.2518806374049
 30
0.0
  0
VERTEX
  5
1D9
330
187
100
AcDbEntity
  8
TOP_U_306E_U_30B3_U_30D4_U
100
AcDbVertex
100
AcDb2dVertex
 10
184.2802075600194
 20
114.2405314310586
 30
0.0
  0
VERTEX
  5
1DA
330
187
100
AcDbEntity
  8
TOP_U_306E_U_30B3_U_30D4_U
100
AcDbVertex
100
AcDb2dVertex
 10
184.2755514753649
 20
114.2291822247122
 30
0.0
  0
VERTEX
  5
1DB
330
187
100
AcDbEntity
  8
TOP_U_306E_U_30B3_U_30D4_U
100
AcDbVertex
100
AcDb2dVertex
 10
184.2708953907103
 20
114.2178330183659
 30
0.0
  0
VERTEX
  5
1DC
330
187
100
AcDbEntity
  8
TOP_U_306E_U_30B3_U_30D4_U
100
AcDbVertex
100
AcDb2dVertex
 10
184.2662393060552
 20
114.2064838120195
 30
0.0
  0
VERTEX
  5
1DD
330
187
100
AcDbEntity
  8
TOP_U_306E_U_30B3_U_30D4_U
100
AcDbVertex
100
AcDb2dVertex
 10
184.2615832214
 20
114.1951346056732
 30
0.0
  0
VERTEX
  5
1DE
330
187
100
AcDbEntity
  8
TOP_U_306E_U_30B3_U_30D4_U
100
AcDbVertex
100
AcDb2dVertex
 10
184.2569271367448
 20
114.1837853993268
 30
0.0
  0
VERTEX
  5
1DF
330
187
100
AcDbEntity
  8
TOP_U_306E_U_30B3_U_30D4_U
100
AcDbVertex
100
AcDb2dVertex
 10
184.2522710520896
 20
114.1724361929805
 30
0.0
  0
VERTEX
  5
1E0
330
187
100
AcDbEntity
  8
TOP_U_306E_U_30B3_U_30D4_U
100
AcDbVertex
100
AcDb2dVertex
 10
184.2476149674351
 20
114.1610869866341
 30
0.0
  0
VERTEX
  5
1E1
330
187
100
AcDbEntity
  8
TOP_U_306E_U_30B3_U_30D4_U
100
AcDbVertex
100
AcDb2dVertex
 10
184.2417948616168
 20
114.1474097379602
 30
0.0
  0
VERTEX
  5
1E2
330
187
100
AcDbEntity
  8
TOP_U_306E_U_30B3_U_30D4_U
100
AcDbVertex
100
AcDb2dVertex
 10
184.2359747557978
 20
114.1337324892869
 30
0.0
  0
VERTEX
  5
1E3
330
187
100
AcDbEntity
  8
TOP_U_306E_U_30B3_U_30D4_U
100
AcDbVertex
100
AcDb2dVertex
 10
184.2301546499788
 20
114.120055240613
 30
0.0
  0
VERTEX
  5
1E4
330
187
100
AcDbEntity
  8
TOP_U_306E_U_30B3_U_30D4_U
100
AcDbVertex
100
AcDb2dVertex
 10
184.2243345441605
 20
114.106377991939
 30
0.0
  0
VERTEX
  5
1E5
330
187
100
AcDbEntity
  8
TOP_U_306E_U_30B3_U_30D4_U
100
AcDbVertex
100
AcDb2dVertex
 10
184.2185144383422
 20
114.0927007432651
 30
0.0
  0
VERTEX
  5
1E6
330
187
100
AcDbEntity
  8
TOP_U_306E_U_30B3_U_30D4_U
100
AcDbVertex
100
AcDb2dVertex
 10
184.2126943325232
 20
114.0790234945911
 30
0.0
  0
VERTEX
  5
1E7
330
187
100
AcDbEntity
  8
TOP_U_306E_U_30B3_U_30D4_U
100
AcDbVertex
100
AcDb2dVertex
 10
184.2068742267042
 20
114.0653462459172
 30
0.0
  0
VERTEX
  5
1E8
330
187
100
AcDbEntity
  8
TOP_U_306E_U_30B3_U_30D4_U
100
AcDbVertex
100
AcDb2dVertex
 10
184.2010541208859
 20
114.0516689972433
 30
0.0
  0
VERTEX
  5
1E9
330
187
100
AcDbEntity
  8
TOP_U_306E_U_30B3_U_30D4_U
100
AcDbVertex
100
AcDb2dVertex
 10
184.1859218457572
 20
114.0292615898415
 30
0.0
  0
VERTEX
  5
1EA
330
187
100
AcDbEntity
  8
TOP_U_306E_U_30B3_U_30D4_U
100
AcDbVertex
100
AcDb2dVertex
 10
184.1707895706292
 20
114.0068541824398
 30
0.0
  0
VERTEX
  5
1EB
330
187
100
AcDbEntity
  8
TOP_U_306E_U_30B3_U_30D4_U
100
AcDbVertex
100
AcDb2dVertex
 10
184.1556572955005
 20
113.984446775038
 30
0.0
  0
VERTEX
  5
1EC
330
187
100
AcDbEntity
  8
TOP_U_306E_U_30B3_U_30D4_U
100
AcDbVertex
100
AcDb2dVertex
 10
184.1405250203718
 20
113.9620393676363
 30
0.0
  0
VERTEX
  5
1ED
330
187
100
AcDbEntity
  8
TOP_U_306E_U_30B3_U_30D4_U
100
AcDbVertex
100
AcDb2dVertex
 10
184.1253927452431
 20
113.9396319602345
 30
0.0
  0
VERTEX
  5
1EE
330
187
100
AcDbEntity
  8
TOP_U_306E_U_30B3_U_30D4_U
100
AcDbVertex
100
AcDb2dVertex
 10
184.1102604701145
 20
113.9172245528327
 30
0.0
  0
VERTEX
  5
1EF
330
187
100
AcDbEntity
  8
TOP_U_306E_U_30B3_U_30D4_U
100
AcDbVertex
100
AcDb2dVertex
 10
184.0951281949864
 20
113.894817145431
 30
0.0
  0
VERTEX
  5
1F0
330
187
100
AcDbEntity
  8
TOP_U_306E_U_30B3_U_30D4_U
100
AcDbVertex
100
AcDb2dVertex
 10
184.0799959198577
 20
113.8724097380292
 30
0.0
  0
VERTEX
  5
1F1
330
187
100
AcDbEntity
  8
TOP_U_306E_U_30B3_U_30D4_U
100
AcDbVertex
100
AcDb2dVertex
 10
184.0610805759467
 20
113.8532033888279
 30
0.0
  0
VERTEX
  5
1F2
330
187
100
AcDbEntity
  8
TOP_U_306E_U_30B3_U_30D4_U
100
AcDbVertex
100
AcDb2dVertex
 10
184.0421652320364
 20
113.833997039626
 30
0.0
  0
VERTEX
  5
1F3
330
187
100
AcDbEntity
  8
TOP_U_306E_U_30B3_U_30D4_U
100
AcDbVertex
100
AcDb2dVertex
 10
184.023249888126
 20
113.814790690424
 30
0.0
  0
VERTEX
  5
1F4
330
187
100
AcDbEntity
  8
TOP_U_306E_U_30B3_U_30D4_U
100
AcDbVertex
100
AcDb2dVertex
 10
184.0043345442156
 20
113.7955843412227
 30
0.0
  0
VERTEX
  5
1F5
330
187
100
AcDbEntity
  8
TOP_U_306E_U_30B3_U_30D4_U
100
AcDbVertex
100
AcDb2dVertex
 10
183.9854192003052
 20
113.7763779920214
 30
0.0
  0
VERTEX
  5
1F6
330
187
100
AcDbEntity
  8
TOP_U_306E_U_30B3_U_30D4_U
100
AcDbVertex
100
AcDb2dVertex
 10
183.9665038563942
 20
113.7571716428201
 30
0.0
  0
VERTEX
  5
1F7
330
187
100
AcDbEntity
  8
TOP_U_306E_U_30B3_U_30D4_U
100
AcDbVertex
100
AcDb2dVertex
 10
183.9475885124832
 20
113.7379652936187
 30
0.0
  0
VERTEX
  5
1F8
330
187
100
AcDbEntity
  8
TOP_U_306E_U_30B3_U_30D4_U
100
AcDbVertex
100
AcDb2dVertex
 10
183.9286731685729
 20
113.7187589444168
 30
0.0
  0
VERTEX
  5
1F9
330
187
100
AcDbEntity
  8
TOP_U_306E_U_30B3_U_30D4_U
100
AcDbVertex
100
AcDb2dVertex
 10
183.9059747558802
 20
113.7036266692881
 30
0.0
  0
VERTEX
  5
1FA
330
187
100
AcDbEntity
  8
TOP_U_306E_U_30B3_U_30D4_U
100
AcDbVertex
100
AcDb2dVertex
 10
183.8832763431874
 20
113.6884943941601
 30
0.0
  0
VERTEX
  5
1FB
330
187
100
AcDbEntity
  8
TOP_U_306E_U_30B3_U_30D4_U
100
AcDbVertex
100
AcDb2dVertex
 10
183.8605779304947
 20
113.6733621190314
 30
0.0
  0
VERTEX
  5
1FC
330
187
100
AcDbEntity
  8
TOP_U_306E_U_30B3_U_30D4_U
100
AcDbVertex
100
AcDb2dVertex
 10
183.8378795178021
 20
113.6582298439027
 30
0.0
  0
VERTEX
  5
1FD
330
187
100
AcDbEntity
  8
TOP_U_306E_U_30B3_U_30D4_U
100
AcDbVertex
100
AcDb2dVertex
 10
183.8151811051094
 20
113.643097568774
 30
0.0
  0
VERTEX
  5
1FE
330
187
100
AcDbEntity
  8
TOP_U_306E_U_30B3_U_30D4_U
100
AcDbVertex
100
AcDb2dVertex
 10
183.7924826924167
 20
113.6279652936453
 30
0.0
  0
VERTEX
  5
1FF
330
187
100
AcDbEntity
  8
TOP_U_306E_U_30B3_U_30D4_U
100
AcDbVertex
100
AcDb2dVertex
 10
183.769784279724
 20
113.6128330185173
 30
0.0
  0
VERTEX
  5
200
330
187
100
AcDbEntity
  8
TOP_U_306E_U_30B3_U_30D4_U
100
AcDbVertex
100
AcDb2dVertex
 10
183.7470858670312
 20
113.5977007433886
 30
0.0
  0
VERTEX
  5
201
330
187
100
AcDbEntity
  8
TOP_U_306E_U_30B3_U_30D4_U
100
AcDbVertex
100
AcDb2dVertex
 10
183.7377736977215
 20
113.5939176746069
 30
0.0
  0
VERTEX
  5
202
330
187
100
AcDbEntity
  8
TOP_U_306E_U_30B3_U_30D4_U
100
AcDbVertex
100
AcDb2dVertex
 10
183.7284615284118
 20
113.5901346058246
 30
0.0
  0
VERTEX
  5
203
330
187
100
AcDbEntity
  8
TOP_U_306E_U_30B3_U_30D4_U
100
AcDbVertex
100
AcDb2dVertex
 10
183.7191493591015
 20
113.5863515370423
 30
0.0
  0
VERTEX
  5
204
330
187
100
AcDbEntity
  8
TOP_U_306E_U_30B3_U_30D4_U
100
AcDbVertex
100
AcDb2dVertex
 10
183.7098371897918
 20
113.5825684682599
 30
0.0
  0
VERTEX
  5
205
330
187
100
AcDbEntity
  8
TOP_U_306E_U_30B3_U_30D4_U
100
AcDbVertex
100
AcDb2dVertex
 10
183.700525020482
 20
113.5787853994776
 30
0.0
  0
VERTEX
  5
206
330
187
100
AcDbEntity
  8
TOP_U_306E_U_30B3_U_30D4_U
100
AcDbVertex
100
AcDb2dVertex
 10
183.6912128511717
 20
113.5750023306959
 30
0.0
  0
VERTEX
  5
207
330
187
100
AcDbEntity
  8
TOP_U_306E_U_30B3_U_30D4_U
100
AcDbVertex
100
AcDb2dVertex
 10
183.681900681862
 20
113.5712192619142
 30
0.0
  0
VERTEX
  5
208
330
187
100
AcDbEntity
  8
TOP_U_306E_U_30B3_U_30D4_U
100
AcDbVertex
100
AcDb2dVertex
 10
183.6725885125523
 20
113.5674361931319
 30
0.0
  0
VERTEX
  5
209
330
187
100
AcDbEntity
  8
TOP_U_306E_U_30B3_U_30D4_U
100
AcDbVertex
100
AcDb2dVertex
 10
183.6568742268423
 20
113.5607430714401
 30
0.0
  0
VERTEX
  5
20A
330
187
100
AcDbEntity
  8
TOP_U_306E_U_30B3_U_30D4_U
100
AcDbVertex
100
AcDb2dVertex
 10
183.6411599411318
 20
113.5540499497489
 30
0.0
  0
VERTEX
  5
20B
330
187
100
AcDbEntity
  8
TOP_U_306E_U_30B3_U_30D4_U
100
AcDbVertex
100
AcDb2dVertex
 10
183.6254456554212
 20
113.5473568280577
 30
0.0
  0
VERTEX
  5
20C
330
187
100
AcDbEntity
  8
TOP_U_306E_U_30B3_U_30D4_U
100
AcDbVertex
100
AcDb2dVertex
 10
183.6097313697113
 20
113.5406637063659
 30
0.0
  0
VERTEX
  5
20D
330
187
100
AcDbEntity
  8
TOP_U_306E_U_30B3_U_30D4_U
100
AcDbVertex
100
AcDb2dVertex
 10
183.5940170840007
 20
113.5339705846741
 30
0.0
  0
VERTEX
  5
20E
330
187
100
AcDbEntity
  8
TOP_U_306E_U_30B3_U_30D4_U
100
AcDbVertex
100
AcDb2dVertex
 10
183.5783027982901
 20
113.5272774629829
 30
0.0
  0
VERTEX
  5
20F
330
187
100
AcDbEntity
  8
TOP_U_306E_U_30B3_U_30D4_U
100
AcDbVertex
100
AcDb2dVertex
 10
183.5625885125802
 20
113.5205843412918
 30
0.0
  0
VERTEX
  5
210
330
187
100
AcDbEntity
  8
TOP_U_306E_U_30B3_U_30D4_U
100
AcDbVertex
100
AcDb2dVertex
 10
183.5468742268696
 20
113.5138912195999
 30
0.0
  0
VERTEX
  5
211
330
187
100
AcDbEntity
  8
TOP_U_306E_U_30B3_U_30D4_U
100
AcDbVertex
100
AcDb2dVertex
 10
183.5203927453952
 20
113.5086531243629
 30
0.0
  0
VERTEX
  5
212
330
187
100
AcDbEntity
  8
TOP_U_306E_U_30B3_U_30D4_U
100
AcDbVertex
100
AcDb2dVertex
 10
183.4939112639202
 20
113.5034150291264
 30
0.0
  0
VERTEX
  5
213
330
187
100
AcDbEntity
  8
TOP_U_306E_U_30B3_U_30D4_U
100
AcDbVertex
100
AcDb2dVertex
 10
183.4674297824451
 20
113.49817693389
 30
0.0
  0
VERTEX
  5
214
330
187
100
AcDbEntity
  8
TOP_U_306E_U_30B3_U_30D4_U
100
AcDbVertex
100
AcDb2dVertex
 10
183.4409483009701
 20
113.4929388386529
 30
0.0
  0
VERTEX
  5
215
330
187
100
AcDbEntity
  8
TOP_U_306E_U_30B3_U_30D4_U
100
AcDbVertex
100
AcDb2dVertex
 10
183.4144668194951
 20
113.4877007434158
 30
0.0
  0
VERTEX
  5
216
330
187
100
AcDbEntity
  8
TOP_U_306E_U_30B3_U_30D4_U
100
AcDbVertex
100
AcDb2dVertex
 10
183.38798533802
 20
113.4824626481794
 30
0.0
  0
VERTEX
  5
217
330
187
100
AcDbEntity
  8
TOP_U_306E_U_30B3_U_30D4_U
100
AcDbVertex
100
AcDb2dVertex
 10
183.361503856545
 20
113.477224552943
 30
0.0
  0
VERTEX
  5
218
330
187
100
AcDbEntity
  8
TOP_U_306E_U_30B3_U_30D4_U
100
AcDbVertex
100
AcDb2dVertex
 10
183.3350223750706
 20
113.4719864577059
 30
0.0
  0
VERTEX
  5
219
330
187
100
AcDbEntity
  8
TOP_U_306E_U_30B3_U_30D4_U
100
AcDbVertex
100
AcDb2dVertex
 10
183.3079588830143
 20
113.4719864577059
 30
0.0
  0
VERTEX
  5
21A
330
187
100
AcDbEntity
  8
TOP_U_306E_U_30B3_U_30D4_U
100
AcDbVertex
100
AcDb2dVertex
 10
183.2808953909574
 20
113.4719864577059
 30
0.0
  0
VERTEX
  5
21B
330
187
100
AcDbEntity
  8
TOP_U_306E_U_30B3_U_30D4_U
100
AcDbVertex
100
AcDb2dVertex
 10
183.2538318989005
 20
113.4719864577059
 30
0.0
  0
VERTEX
  5
21C
330
187
100
AcDbEntity
  8
TOP_U_306E_U_30B3_U_30D4_U
100
AcDbVertex
100
AcDb2dVertex
 10
183.2267684068435
 20
113.4719864577059
 30
0.0
  0
VERTEX
  5
21D
330
187
100
AcDbEntity
  8
TOP_U_306E_U_30B3_U_30D4_U
100
AcDbVertex
100
AcDb2dVertex
 10
183.1997049147866
 20
113.4719864577059
 30
0.0
  0
VERTEX
  5
21E
330
187
100
AcDbEntity
  8
TOP_U_306E_U_30B3_U_30D4_U
100
AcDbVertex
100
AcDb2dVertex
 10
183.1726414227297
 20
113.4719864577059
 30
0.0
  0
VERTEX
  5
21F
330
187
100
AcDbEntity
  8
TOP_U_306E_U_30B3_U_30D4_U
100
AcDbVertex
100
AcDb2dVertex
 10
183.1455779306727
 20
113.4719864577059
 30
0.0
  0
VERTEX
  5
220
330
187
100
AcDbEntity
  8
TOP_U_306E_U_30B3_U_30D4_U
100
AcDbVertex
100
AcDb2dVertex
 10
183.1185144386165
 20
113.4719864577059
 30
0.0
  0
VERTEX
  5
221
330
187
100
AcDbEntity
  8
TOP_U_306E_U_30B3_U_30D4_U
100
AcDbVertex
100
AcDb2dVertex
 10
183.0920329571421
 20
113.477224552943
 30
0.0
  0
VERTEX
  5
222
330
187
100
AcDbEntity
  8
TOP_U_306E_U_30B3_U_30D4_U
100
AcDbVertex
100
AcDb2dVertex
 10
183.065551475667
 20
113.4824626481794
 30
0.0
  0
VERTEX
  5
223
330
187
100
AcDbEntity
  8
TOP_U_306E_U_30B3_U_30D4_U
100
AcDbVertex
100
AcDb2dVertex
 10
183.039069994192
 20
113.4877007434158
 30
0.0
  0
VERTEX
  5
224
330
187
100
AcDbEntity
  8
TOP_U_306E_U_30B3_U_30D4_U
100
AcDbVertex
100
AcDb2dVertex
 10
183.012588512717
 20
113.4929388386529
 30
0.0
  0
VERTEX
  5
225
330
187
100
AcDbEntity
  8
TOP_U_306E_U_30B3_U_30D4_U
100
AcDbVertex
100
AcDb2dVertex
 10
182.9861070312419
 20
113.49817693389
 30
0.0
  0
VERTEX
  5
226
330
187
100
AcDbEntity
  8
TOP_U_306E_U_30B3_U_30D4_U
100
AcDbVertex
100
AcDb2dVertex
 10
182.9596255497669
 20
113.5034150291264
 30
0.0
  0
VERTEX
  5
227
330
187
100
AcDbEntity
  8
TOP_U_306E_U_30B3_U_30D4_U
100
AcDbVertex
100
AcDb2dVertex
 10
182.9331440682919
 20
113.5086531243629
 30
0.0
  0
VERTEX
  5
228
330
187
100
AcDbEntity
  8
TOP_U_306E_U_30B3_U_30D4_U
100
AcDbVertex
100
AcDb2dVertex
 10
182.9066625868175
 20
113.5138912195999
 30
0.0
  0
VERTEX
  5
229
330
187
100
AcDbEntity
  8
TOP_U_306E_U_30B3_U_30D4_U
100
AcDbVertex
100
AcDb2dVertex
 10
182.8909483011069
 20
113.5205843412918
 30
0.0
  0
VERTEX
  5
22A
330
187
100
AcDbEntity
  8
TOP_U_306E_U_30B3_U_30D4_U
100
AcDbVertex
100
AcDb2dVertex
 10
182.875234015397
 20
113.5272774629829
 30
0.0
  0
VERTEX
  5
22B
330
187
100
AcDbEntity
  8
TOP_U_306E_U_30B3_U_30D4_U
100
AcDbVertex
100
AcDb2dVertex
 10
182.8595197296864
 20
113.5339705846741
 30
0.0
  0
VERTEX
  5
22C
330
187
100
AcDbEntity
  8
TOP_U_306E_U_30B3_U_30D4_U
100
AcDbVertex
100
AcDb2dVertex
 10
182.8438054439758
 20
113.5406637063659
 30
0.0
  0
VERTEX
  5
22D
330
187
100
AcDbEntity
  8
TOP_U_306E_U_30B3_U_30D4_U
100
AcDbVertex
100
AcDb2dVertex
 10
182.8280911582659
 20
113.5473568280577
 30
0.0
  0
VERTEX
  5
22E
330
187
100
AcDbEntity
  8
TOP_U_306E_U_30B3_U_30D4_U
100
AcDbVertex
100
AcDb2dVertex
 10
182.8123768725553
 20
113.5540499497489
 30
0.0
  0
VERTEX
  5
22F
330
187
100
AcDbEntity
  8
TOP_U_306E_U_30B3_U_30D4_U
100
AcDbVertex
100
AcDb2dVertex
 10
182.7966625868447
 20
113.5607430714401
 30
0.0
  0
VERTEX
  5
230
330
187
100
AcDbEntity
  8
TOP_U_306E_U_30B3_U_30D4_U
100
AcDbVertex
100
AcDb2dVertex
 10
182.7809483011348
 20
113.5674361931319
 30
0.0
  0
VERTEX
  5
231
330
187
100
AcDbEntity
  8
TOP_U_306E_U_30B3_U_30D4_U
100
AcDbVertex
100
AcDb2dVertex
 10
182.7716361318251
 20
113.5712192619142
 30
0.0
  0
VERTEX
  5
232
330
187
100
AcDbEntity
  8
TOP_U_306E_U_30B3_U_30D4_U
100
AcDbVertex
100
AcDb2dVertex
 10
182.7623239625154
 20
113.5750023306959
 30
0.0
  0
VERTEX
  5
233
330
187
100
AcDbEntity
  8
TOP_U_306E_U_30B3_U_30D4_U
100
AcDbVertex
100
AcDb2dVertex
 10
182.753011793205
 20
113.5787853994776
 30
0.0
  0
VERTEX
  5
234
330
187
100
AcDbEntity
  8
TOP_U_306E_U_30B3_U_30D4_U
100
AcDbVertex
100
AcDb2dVertex
 10
182.7436996238953
 20
113.5825684682599
 30
0.0
  0
VERTEX
  5
235
330
187
100
AcDbEntity
  8
TOP_U_306E_U_30B3_U_30D4_U
100
AcDbVertex
100
AcDb2dVertex
 10
182.7343874545856
 20
113.5863515370423
 30
0.0
  0
VERTEX
  5
236
330
187
100
AcDbEntity
  8
TOP_U_306E_U_30B3_U_30D4_U
100
AcDbVertex
100
AcDb2dVertex
 10
182.7250752852752
 20
113.5901346058246
 30
0.0
  0
VERTEX
  5
237
330
187
100
AcDbEntity
  8
TOP_U_306E_U_30B3_U_30D4_U
100
AcDbVertex
100
AcDb2dVertex
 10
182.7157631159655
 20
113.5939176746069
 30
0.0
  0
VERTEX
  5
238
330
187
100
AcDbEntity
  8
TOP_U_306E_U_30B3_U_30D4_U
100
AcDbVertex
100
AcDb2dVertex
 10
182.7064509466558
 20
113.5977007433886
 30
0.0
  0
VERTEX
  5
239
330
187
100
AcDbEntity
  8
TOP_U_306E_U_30B3_U_30D4_U
100
AcDbVertex
100
AcDb2dVertex
 10
182.6837525339631
 20
113.6128330185173
 30
0.0
  0
VERTEX
  5
23A
330
187
100
AcDbEntity
  8
TOP_U_306E_U_30B3_U_30D4_U
100
AcDbVertex
100
AcDb2dVertex
 10
182.6610541212704
 20
113.6279652936453
 30
0.0
  0
VERTEX
  5
23B
330
187
100
AcDbEntity
  8
TOP_U_306E_U_30B3_U_30D4_U
100
AcDbVertex
100
AcDb2dVertex
 10
182.6383557085777
 20
113.643097568774
 30
0.0
  0
VERTEX
  5
23C
330
187
100
AcDbEntity
  8
TOP_U_306E_U_30B3_U_30D4_U
100
AcDbVertex
100
AcDb2dVertex
 10
182.615657295885
 20
113.6582298439027
 30
0.0
  0
VERTEX
  5
23D
330
187
100
AcDbEntity
  8
TOP_U_306E_U_30B3_U_30D4_U
100
AcDbVertex
100
AcDb2dVertex
 10
182.5929588831923
 20
113.6733621190314
 30
0.0
  0
VERTEX
  5
23E
330
187
100
AcDbEntity
  8
TOP_U_306E_U_30B3_U_30D4_U
100
AcDbVertex
100
AcDb2dVertex
 10
182.5702604704996
 20
113.6884943941601
 30
0.0
  0
VERTEX
  5
23F
330
187
100
AcDbEntity
  8
TOP_U_306E_U_30B3_U_30D4_U
100
AcDbVertex
100
AcDb2dVertex
 10
182.5475620578069
 20
113.7036266692881
 30
0.0
  0
VERTEX
  5
240
330
187
100
AcDbEntity
  8
TOP_U_306E_U_30B3_U_30D4_U
100
AcDbVertex
100
AcDb2dVertex
 10
182.5248636451142
 20
113.7187589444168
 30
0.0
  0
VERTEX
  5
241
330
187
100
AcDbEntity
  8
TOP_U_306E_U_30B3_U_30D4_U
100
AcDbVertex
100
AcDb2dVertex
 10
182.5056572959129
 20
113.7379652936187
 30
0.0
  0
VERTEX
  5
242
330
187
100
AcDbEntity
  8
TOP_U_306E_U_30B3_U_30D4_U
100
AcDbVertex
100
AcDb2dVertex
 10
182.4864509467109
 20
113.7571716428201
 30
0.0
  0
VERTEX
  5
243
330
187
100
AcDbEntity
  8
TOP_U_306E_U_30B3_U_30D4_U
100
AcDbVertex
100
AcDb2dVertex
 10
182.467244597509
 20
113.7763779920214
 30
0.0
  0
VERTEX
  5
244
330
187
100
AcDbEntity
  8
TOP_U_306E_U_30B3_U_30D4_U
100
AcDbVertex
100
AcDb2dVertex
 10
182.4480382483077
 20
113.7955843412227
 30
0.0
  0
VERTEX
  5
245
330
187
100
AcDbEntity
  8
TOP_U_306E_U_30B3_U_30D4_U
100
AcDbVertex
100
AcDb2dVertex
 10
182.4288318991063
 20
113.814790690424
 30
0.0
  0
VERTEX
  5
246
330
187
100
AcDbEntity
  8
TOP_U_306E_U_30B3_U_30D4_U
100
AcDbVertex
100
AcDb2dVertex
 10
182.409625549905
 20
113.833997039626
 30
0.0
  0
VERTEX
  5
247
330
187
100
AcDbEntity
  8
TOP_U_306E_U_30B3_U_30D4_U
100
AcDbVertex
100
AcDb2dVertex
 10
182.3904192007037
 20
113.8532033888279
 30
0.0
  0
VERTEX
  5
248
330
187
100
AcDbEntity
  8
TOP_U_306E_U_30B3_U_30D4_U
100
AcDbVertex
100
AcDb2dVertex
 10
182.3712128515018
 20
113.8724097380292
 30
0.0
  0
VERTEX
  5
249
330
187
100
AcDbEntity
  8
TOP_U_306E_U_30B3_U_30D4_U
100
AcDbVertex
100
AcDb2dVertex
 10
182.356371581664
 20
113.894817145431
 30
0.0
  0
VERTEX
  5
24A
330
187
100
AcDbEntity
  8
TOP_U_306E_U_30B3_U_30D4_U
100
AcDbVertex
100
AcDb2dVertex
 10
182.3415303118269
 20
113.9172245528327
 30
0.0
  0
VERTEX
  5
24B
330
187
100
AcDbEntity
  8
TOP_U_306E_U_30B3_U_30D4_U
100
AcDbVertex
100
AcDb2dVertex
 10
182.3266890419892
 20
113.9396319602345
 30
0.0
  0
VERTEX
  5
24C
330
187
100
AcDbEntity
  8
TOP_U_306E_U_30B3_U_30D4_U
100
AcDbVertex
100
AcDb2dVertex
 10
182.3118477721515
 20
113.9620393676363
 30
0.0
  0
VERTEX
  5
24D
330
187
100
AcDbEntity
  8
TOP_U_306E_U_30B3_U_30D4_U
100
AcDbVertex
100
AcDb2dVertex
 10
182.2970065023137
 20
113.984446775038
 30
0.0
  0
VERTEX
  5
24E
330
187
100
AcDbEntity
  8
TOP_U_306E_U_30B3_U_30D4_U
100
AcDbVertex
100
AcDb2dVertex
 10
182.282165232476
 20
114.0068541824398
 30
0.0
  0
VERTEX
  5
24F
330
187
100
AcDbEntity
  8
TOP_U_306E_U_30B3_U_30D4_U
100
AcDbVertex
100
AcDb2dVertex
 10
182.2673239626389
 20
114.0292615898415
 30
0.0
  0
VERTEX
  5
250
330
187
100
AcDbEntity
  8
TOP_U_306E_U_30B3_U_30D4_U
100
AcDbVertex
100
AcDb2dVertex
 10
182.2524826928012
 20
114.0516689972433
 30
0.0
  0
VERTEX
  5
251
330
187
100
AcDbEntity
  8
TOP_U_306E_U_30B3_U_30D4_U
100
AcDbVertex
100
AcDb2dVertex
 10
182.2466625869828
 20
114.0653462459172
 30
0.0
  0
VERTEX
  5
252
330
187
100
AcDbEntity
  8
TOP_U_306E_U_30B3_U_30D4_U
100
AcDbVertex
100
AcDb2dVertex
 10
182.2408424811639
 20
114.0790234945911
 30
0.0
  0
VERTEX
  5
253
330
187
100
AcDbEntity
  8
TOP_U_306E_U_30B3_U_30D4_U
100
AcDbVertex
100
AcDb2dVertex
 10
182.2350223753449
 20
114.0927007432651
 30
0.0
  0
VERTEX
  5
254
330
187
100
AcDbEntity
  8
TOP_U_306E_U_30B3_U_30D4_U
100
AcDbVertex
100
AcDb2dVertex
 10
182.2292022695266
 20
114.106377991939
 30
0.0
  0
VERTEX
  5
255
330
187
100
AcDbEntity
  8
TOP_U_306E_U_30B3_U_30D4_U
100
AcDbVertex
100
AcDb2dVertex
 10
182.2233821637082
 20
114.120055240613
 30
0.0
  0
VERTEX
  5
256
330
187
100
AcDbEntity
  8
TOP_U_306E_U_30B3_U_30D4_U
100
AcDbVertex
100
AcDb2dVertex
 10
182.2175620578893
 20
114.1337324892869
 30
0.0
  0
VERTEX
  5
257
330
187
100
AcDbEntity
  8
TOP_U_306E_U_30B3_U_30D4_U
100
AcDbVertex
100
AcDb2dVertex
 10
182.2117419520703
 20
114.1474097379602
 30
0.0
  0
VERTEX
  5
258
330
187
100
AcDbEntity
  8
TOP_U_306E_U_30B3_U_30D4_U
100
AcDbVertex
100
AcDb2dVertex
 10
182.205921846252
 20
114.1610869866341
 30
0.0
  0
VERTEX
  5
259
330
187
100
AcDbEntity
  8
TOP_U_306E_U_30B3_U_30D4_U
100
AcDbVertex
100
AcDb2dVertex
 10
182.2012657615974
 20
114.1724361929805
 30
0.0
  0
VERTEX
  5
25A
330
187
100
AcDbEntity
  8
TOP_U_306E_U_30B3_U_30D4_U
100
AcDbVertex
100
AcDb2dVertex
 10
182.1966096769423
 20
114.1837853993268
 30
0.0
  0
VERTEX
  5
25B
330
187
100
AcDbEntity
  8
TOP_U_306E_U_30B3_U_30D4_U
100
AcDbVertex
100
AcDb2dVertex
 10
182.1919535922871
 20
114.1951346056732
 30
0.0
  0
VERTEX
  5
25C
330
187
100
AcDbEntity
  8
TOP_U_306E_U_30B3_U_30D4_U
100
AcDbVertex
100
AcDb2dVertex
 10
182.1872975076319
 20
114.2064838120195
 30
0.0
  0
VERTEX
  5
25D
330
187
100
AcDbEntity
  8
TOP_U_306E_U_30B3_U_30D4_U
100
AcDbVertex
100
AcDb2dVertex
 10
182.1826414229767
 20
114.2178330183659
 30
0.0
  0
VERTEX
  5
25E
330
187
100
AcDbEntity
  8
TOP_U_306E_U_30B3_U_30D4_U
100
AcDbVertex
100
AcDb2dVertex
 10
182.1779853383222
 20
114.2291822247122
 30
0.0
  0
VERTEX
  5
25F
330
187
100
AcDbEntity
  8
TOP_U_306E_U_30B3_U_30D4_U
100
AcDbVertex
100
AcDb2dVertex
 10
182.1733292536677
 20
114.2405314310586
 30
0.0
  0
VERTEX
  5
260
330
187
100
AcDbEntity
  8
TOP_U_306E_U_30B3_U_30D4_U
100
AcDbVertex
100
AcDb2dVertex
 10
182.1686731690125
 20
114.2518806374049
 30
0.0
  0
VERTEX
  5
261
330
187
100
AcDbEntity
  8
TOP_U_306E_U_30B3_U_30D4_U
100
AcDbVertex
100
AcDb2dVertex
 10
182.1634350737754
 20
114.2783621188793
 30
0.0
  0
VERTEX
  5
262
330
187
100
AcDbEntity
  8
TOP_U_306E_U_30B3_U_30D4_U
100
AcDbVertex
100
AcDb2dVertex
 10
182.158196978539
 20
114.3048436003544
 30
0.0
  0
VERTEX
  5
263
330
187
100
AcDbEntity
  8
TOP_U_306E_U_30B3_U_30D4_U
100
AcDbVertex
100
AcDb2dVertex
 10
182.1529588833025
 20
114.3313250818294
 30
0.0
  0
VERTEX
  5
264
330
187
100
AcDbEntity
  8
TOP_U_306E_U_30B3_U_30D4_U
100
AcDbVertex
100
AcDb2dVertex
 10
182.1477207880655
 20
114.3578065633044
 30
0.0
  0
VERTEX
  5
265
330
187
100
AcDbEntity
  8
TOP_U_306E_U_30B3_U_30D4_U
100
AcDbVertex
100
AcDb2dVertex
 10
182.1424826928284
 20
114.3842880447795
 30
0.0
  0
VERTEX
  5
266
330
187
100
AcDbEntity
  8
TOP_U_306E_U_30B3_U_30D4_U
100
AcDbVertex
100
AcDb2dVertex
 10
182.137244597592
 20
114.4107695262545
 30
0.0
  0
VERTEX
  5
267
330
187
100
AcDbEntity
  8
TOP_U_306E_U_30B3_U_30D4_U
100
AcDbVertex
100
AcDb2dVertex
 10
182.1320065023556
 20
114.4372510077295
 30
0.0
  0
VERTEX
  5
268
330
187
100
AcDbEntity
  8
TOP_U_306E_U_30B3_U_30D4_U
100
AcDbVertex
100
AcDb2dVertex
 10
182.1267684071185
 20
114.4637324892039
 30
0.0
  0
VERTEX
  5
269
330
187
100
AcDbEntity
  8
TOP_U_306E_U_30B3_U_30D4_U
100
AcDbVertex
100
AcDb2dVertex
 10
182.1267684071185
 20
114.4907959812602
 30
0.0
  0
VERTEX
  5
26A
330
187
100
AcDbEntity
  8
TOP_U_306E_U_30B3_U_30D4_U
100
AcDbVertex
100
AcDb2dVertex
 10
182.1267684071185
 20
114.5178594733171
 30
0.0
  0
VERTEX
  5
26B
330
187
100
AcDbEntity
  8
TOP_U_306E_U_30B3_U_30D4_U
100
AcDbVertex
100
AcDb2dVertex
 10
182.1267684071185
 20
114.5449229653741
 30
0.0
  0
VERTEX
  5
26C
330
187
100
AcDbEntity
  8
TOP_U_306E_U_30B3_U_30D4_U
100
AcDbVertex
100
AcDb2dVertex
 10
182.1267684071185
 20
114.571986457431
 30
0.0
  0
VERTEX
  5
26D
330
187
100
AcDbEntity
  8
TOP_U_306E_U_30B3_U_30D4_U
100
AcDbVertex
100
AcDb2dVertex
 10
182.1267684071185
 20
114.5990499494879
 30
0.0
  0
VERTEX
  5
26E
330
187
100
AcDbEntity
  8
TOP_U_306E_U_30B3_U_30D4_U
100
AcDbVertex
100
AcDb2dVertex
 10
182.1267684071185
 20
114.6261134415448
 30
0.0
  0
VERTEX
  5
26F
330
187
100
AcDbEntity
  8
TOP_U_306E_U_30B3_U_30D4_U
100
AcDbVertex
100
AcDb2dVertex
 10
182.1267684071185
 20
114.6531769336018
 30
0.0
  0
VERTEX
  5
270
330
187
100
AcDbEntity
  8
TOP_U_306E_U_30B3_U_30D4_U
100
AcDbVertex
100
AcDb2dVertex
 10
182.1267684071185
 20
114.6802404256581
 30
0.0
  0
VERTEX
  5
271
330
187
100
AcDbEntity
  8
TOP_U_306E_U_30B3_U_30D4_U
100
AcDbVertex
100
AcDb2dVertex
 10
182.1320065023556
 20
114.7070129124234
 30
0.0
  0
VERTEX
  5
272
330
187
100
AcDbEntity
  8
TOP_U_306E_U_30B3_U_30D4_U
100
AcDbVertex
100
AcDb2dVertex
 10
182.137244597592
 20
114.7337853991894
 30
0.0
  0
VERTEX
  5
273
330
187
100
AcDbEntity
  8
TOP_U_306E_U_30B3_U_30D4_U
100
AcDbVertex
100
AcDb2dVertex
 10
182.1424826928284
 20
114.7605578859554
 30
0.0
  0
VERTEX
  5
274
330
187
100
AcDbEntity
  8
TOP_U_306E_U_30B3_U_30D4_U
100
AcDbVertex
100
AcDb2dVertex
 10
182.1477207880655
 20
114.7873303727213
 30
0.0
  0
VERTEX
  5
275
330
187
100
AcDbEntity
  8
TOP_U_306E_U_30B3_U_30D4_U
100
AcDbVertex
100
AcDb2dVertex
 10
182.1529588833025
 20
114.8141028594873
 30
0.0
  0
VERTEX
  5
276
330
187
100
AcDbEntity
  8
TOP_U_306E_U_30B3_U_30D4_U
100
AcDbVertex
100
AcDb2dVertex
 10
182.158196978539
 20
114.8408753462526
 30
0.0
  0
VERTEX
  5
277
330
187
100
AcDbEntity
  8
TOP_U_306E_U_30B3_U_30D4_U
100
AcDbVertex
100
AcDb2dVertex
 10
182.1634350737754
 20
114.867647833018
 30
0.0
  0
VERTEX
  5
278
330
187
100
AcDbEntity
  8
TOP_U_306E_U_30B3_U_30D4_U
100
AcDbVertex
100
AcDb2dVertex
 10
182.1686731690125
 20
114.894420319784
 30
0.0
  0
VERTEX
  5
279
330
187
100
AcDbEntity
  8
TOP_U_306E_U_30B3_U_30D4_U
100
AcDbVertex
100
AcDb2dVertex
 10
182.178858354195
 20
114.9188647642224
 30
0.0
  0
VERTEX
  5
27A
330
187
100
AcDbEntity
  8
TOP_U_306E_U_30B3_U_30D4_U
100
AcDbVertex
100
AcDb2dVertex
 10
182.1890435393776
 20
114.9433092086608
 30
0.0
  0
VERTEX
  5
27B
330
187
100
AcDbEntity
  8
TOP_U_306E_U_30B3_U_30D4_U
100
AcDbVertex
100
AcDb2dVertex
 10
182.1992287245608
 20
114.9677536530991
 30
0.0
  0
VERTEX
  5
27C
330
187
100
AcDbEntity
  8
TOP_U_306E_U_30B3_U_30D4_U
100
AcDbVertex
100
AcDb2dVertex
 10
182.2094139097433
 20
114.9921980975375
 30
0.0
  0
VERTEX
  5
27D
330
187
100
AcDbEntity
  8
TOP_U_306E_U_30B3_U_30D4_U
100
AcDbVertex
100
AcDb2dVertex
 10
182.2195990949259
 20
115.0166425419759
 30
0.0
  0
VERTEX
  5
27E
330
187
100
AcDbEntity
  8
TOP_U_306E_U_30B3_U_30D4_U
100
AcDbVertex
100
AcDb2dVertex
 10
182.2297842801091
 20
115.0410869864143
 30
0.0
  0
VERTEX
  5
27F
330
187
100
AcDbEntity
  8
TOP_U_306E_U_30B3_U_30D4_U
100
AcDbVertex
100
AcDb2dVertex
 10
182.2399694652917
 20
115.0655314308527
 30
0.0
  0
VERTEX
  5
280
330
187
100
AcDbEntity
  8
TOP_U_306E_U_30B3_U_30D4_U
100
AcDbVertex
100
AcDb2dVertex
 10
182.2501546504742
 20
115.0899758752911
 30
0.0
  0
VERTEX
  5
281
330
187
100
AcDbEntity
  8
TOP_U_306E_U_30B3_U_30D4_U
100
AcDbVertex
100
AcDb2dVertex
 10
182.2504456557652
 20
115.090266880582
 30
0.0
  0
VERTEX
  5
282
330
187
100
AcDbEntity
  8
TOP_U_306E_U_30B3_U_30D4_U
100
AcDbVertex
100
AcDb2dVertex
 10
182.2507366610561
 20
115.090557885873
 30
0.0
  0
VERTEX
  5
283
330
187
100
AcDbEntity
  8
TOP_U_306E_U_30B3_U_30D4_U
100
AcDbVertex
100
AcDb2dVertex
 10
182.2510276663471
 20
115.0908488911639
 30
0.0
  0
VERTEX
  5
284
330
187
100
AcDbEntity
  8
TOP_U_306E_U_30B3_U_30D4_U
100
AcDbVertex
100
AcDb2dVertex
 10
182.251318671638
 20
115.0911398964549
 30
0.0
  0
VERTEX
  5
285
330
187
100
AcDbEntity
  8
TOP_U_306E_U_30B3_U_30D4_U
100
AcDbVertex
100
AcDb2dVertex
 10
182.251609676929
 20
115.0914309017459
 30
0.0
  0
VERTEX
  5
286
330
187
100
AcDbEntity
  8
TOP_U_306E_U_30B3_U_30D4_U
100
AcDbVertex
100
AcDb2dVertex
 10
182.2519006822199
 20
115.0917219070368
 30
0.0
  0
VERTEX
  5
287
330
187
100
AcDbEntity
  8
TOP_U_306E_U_30B3_U_30D4_U
100
AcDbVertex
100
AcDb2dVertex
 10
182.2521916875109
 20
115.0920129123277
 30
0.0
  0
VERTEX
  5
288
330
187
100
AcDbEntity
  8
TOP_U_306E_U_30B3_U_30D4_U
100
AcDbVertex
100
AcDb2dVertex
 10
182.2524826928012
 20
115.0923039176181
 30
0.0
  0
VERTEX
  5
289
330
187
100
AcDbEntity
  8
TOP_U_306E_U_30B3_U_30D4_U
100
AcDbVertex
100
AcDb2dVertex
 10
182.2673239626389
 20
115.1150023303114
 30
0.0
  0
VERTEX
  5
28A
330
187
100
AcDbEntity
  8
TOP_U_306E_U_30B3_U_30D4_U
100
AcDbVertex
100
AcDb2dVertex
 10
182.282165232476
 20
115.1377007430041
 30
0.0
  0
VERTEX
  5
28B
330
187
100
AcDbEntity
  8
TOP_U_306E_U_30B3_U_30D4_U
100
AcDbVertex
100
AcDb2dVertex
 10
182.2970065023137
 20
115.1603991556968
 30
0.0
  0
VERTEX
  5
28C
330
187
100
AcDbEntity
  8
TOP_U_306E_U_30B3_U_30D4_U
100
AcDbVertex
100
AcDb2dVertex
 10
182.3118477721515
 20
115.1830975683895
 30
0.0
  0
VERTEX
  5
28D
330
187
100
AcDbEntity
  8
TOP_U_306E_U_30B3_U_30D4_U
100
AcDbVertex
100
AcDb2dVertex
 10
182.3266890419892
 20
115.2057959810822
 30
0.0
  0
VERTEX
  5
28E
330
187
100
AcDbEntity
  8
TOP_U_306E_U_30B3_U_30D4_U
100
AcDbVertex
100
AcDb2dVertex
 10
182.3415303118269
 20
115.2284943937749
 30
0.0
  0
VERTEX
  5
28F
330
187
100
AcDbEntity
  8
TOP_U_306E_U_30B3_U_30D4_U
100
AcDbVertex
100
AcDb2dVertex
 10
182.356371581664
 20
115.2511928064676
 30
0.0
  0
VERTEX
  5
290
330
187
100
AcDbEntity
  8
TOP_U_306E_U_30B3_U_30D4_U
100
AcDbVertex
100
AcDb2dVertex
 10
182.3712128515018
 20
115.2738912191603
 30
0.0
  0
VERTEX
  5
291
330
187
100
AcDbEntity
  8
TOP_U_306E_U_30B3_U_30D4_U
100
AcDbVertex
100
AcDb2dVertex
 10
182.3904192007037
 20
115.2930975683616
 30
0.0
  0
VERTEX
  5
292
330
187
100
AcDbEntity
  8
TOP_U_306E_U_30B3_U_30D4_U
100
AcDbVertex
100
AcDb2dVertex
 10
182.409625549905
 20
115.3123039175636
 30
0.0
  0
VERTEX
  5
293
330
187
100
AcDbEntity
  8
TOP_U_306E_U_30B3_U_30D4_U
100
AcDbVertex
100
AcDb2dVertex
 10
182.4288318991063
 20
115.3315102667655
 30
0.0
  0
VERTEX
  5
294
330
187
100
AcDbEntity
  8
TOP_U_306E_U_30B3_U_30D4_U
100
AcDbVertex
100
AcDb2dVertex
 10
182.4480382483077
 20
115.3507166159669
 30
0.0
  0
VERTEX
  5
295
330
187
100
AcDbEntity
  8
TOP_U_306E_U_30B3_U_30D4_U
100
AcDbVertex
100
AcDb2dVertex
 10
182.467244597509
 20
115.3699229651682
 30
0.0
  0
VERTEX
  5
296
330
187
100
AcDbEntity
  8
TOP_U_306E_U_30B3_U_30D4_U
100
AcDbVertex
100
AcDb2dVertex
 10
182.4864509467109
 20
115.3891293143695
 30
0.0
  0
VERTEX
  5
297
330
187
100
AcDbEntity
  8
TOP_U_306E_U_30B3_U_30D4_U
100
AcDbVertex
100
AcDb2dVertex
 10
182.5056572959129
 20
115.4083356635708
 30
0.0
  0
VERTEX
  5
298
330
187
100
AcDbEntity
  8
TOP_U_306E_U_30B3_U_30D4_U
100
AcDbVertex
100
AcDb2dVertex
 10
182.5248636451142
 20
115.4275420127728
 30
0.0
  0
VERTEX
  5
299
330
187
100
AcDbEntity
  8
TOP_U_306E_U_30B3_U_30D4_U
100
AcDbVertex
100
AcDb2dVertex
 10
182.5475620578069
 20
115.4423832826105
 30
0.0
  0
VERTEX
  5
29A
330
187
100
AcDbEntity
  8
TOP_U_306E_U_30B3_U_30D4_U
100
AcDbVertex
100
AcDb2dVertex
 10
182.5702604704996
 20
115.4572245524476
 30
0.0
  0
VERTEX
  5
29B
330
187
100
AcDbEntity
  8
TOP_U_306E_U_30B3_U_30D4_U
100
AcDbVertex
100
AcDb2dVertex
 10
182.5929588831923
 20
115.4720658222853
 30
0.0
  0
VERTEX
  5
29C
330
187
100
AcDbEntity
  8
TOP_U_306E_U_30B3_U_30D4_U
100
AcDbVertex
100
AcDb2dVertex
 10
182.615657295885
 20
115.4869070921231
 30
0.0
  0
VERTEX
  5
29D
330
187
100
AcDbEntity
  8
TOP_U_306E_U_30B3_U_30D4_U
100
AcDbVertex
100
AcDb2dVertex
 10
182.6383557085777
 20
115.5017483619608
 30
0.0
  0
VERTEX
  5
29E
330
187
100
AcDbEntity
  8
TOP_U_306E_U_30B3_U_30D4_U
100
AcDbVertex
100
AcDb2dVertex
 10
182.6610541212704
 20
115.5165896317985
 30
0.0
  0
VERTEX
  5
29F
330
187
100
AcDbEntity
  8
TOP_U_306E_U_30B3_U_30D4_U
100
AcDbVertex
100
AcDb2dVertex
 10
182.6837525339631
 20
115.5314309016356
 30
0.0
  0
VERTEX
  5
2A0
330
187
100
AcDbEntity
  8
TOP_U_306E_U_30B3_U_30D4_U
100
AcDbVertex
100
AcDb2dVertex
 10
182.7064509466558
 20
115.5462721714733
 30
0.0
  0
VERTEX
  5
2A1
330
187
100
AcDbEntity
  8
TOP_U_306E_U_30B3_U_30D4_U
100
AcDbVertex
100
AcDb2dVertex
 10
182.7204192006207
 20
115.5520922772917
 30
0.0
  0
VERTEX
  5
2A2
330
187
100
AcDbEntity
  8
TOP_U_306E_U_30B3_U_30D4_U
100
AcDbVertex
100
AcDb2dVertex
 10
182.7343874545856
 20
115.5579123831106
 30
0.0
  0
VERTEX
  5
2A3
330
187
100
AcDbEntity
  8
TOP_U_306E_U_30B3_U_30D4_U
100
AcDbVertex
100
AcDb2dVertex
 10
182.7483557085505
 20
115.5637324889296
 30
0.0
  0
VERTEX
  5
2A4
330
187
100
AcDbEntity
  8
TOP_U_306E_U_30B3_U_30D4_U
100
AcDbVertex
100
AcDb2dVertex
 10
182.7623239625154
 20
115.5695525947479
 30
0.0
  0
VERTEX
  5
2A5
330
187
100
AcDbEntity
  8
TOP_U_306E_U_30B3_U_30D4_U
100
AcDbVertex
100
AcDb2dVertex
 10
182.7762922164803
 20
115.5753727005663
 30
0.0
  0
VERTEX
  5
2A6
330
187
100
AcDbEntity
  8
TOP_U_306E_U_30B3_U_30D4_U
100
AcDbVertex
100
AcDb2dVertex
 10
182.7902604704451
 20
115.5811928063852
 30
0.0
  0
VERTEX
  5
2A7
330
187
100
AcDbEntity
  8
TOP_U_306E_U_30B3_U_30D4_U
100
AcDbVertex
100
AcDb2dVertex
 10
182.8042287244094
 20
115.5870129122042
 30
0.0
  0
VERTEX
  5
2A8
330
187
100
AcDbEntity
  8
TOP_U_306E_U_30B3_U_30D4_U
100
AcDbVertex
100
AcDb2dVertex
 10
182.8181969783743
 20
115.5928330180225
 30
0.0
  0
VERTEX
  5
2A9
330
187
100
AcDbEntity
  8
TOP_U_306E_U_30B3_U_30D4_U
100
AcDbVertex
100
AcDb2dVertex
 10
182.8292551794297
 20
115.5974891026771
 30
0.0
  0
VERTEX
  5
2AA
330
187
100
AcDbEntity
  8
TOP_U_306E_U_30B3_U_30D4_U
100
AcDbVertex
100
AcDb2dVertex
 10
182.8403133804851
 20
115.6021451873323
 30
0.0
  0
VERTEX
  5
2AB
330
187
100
AcDbEntity
  8
TOP_U_306E_U_30B3_U_30D4_U
100
AcDbVertex
100
AcDb2dVertex
 10
182.8513715815405
 20
115.6068012719874
 30
0.0
  0
VERTEX
  5
2AC
330
187
100
AcDbEntity
  8
TOP_U_306E_U_30B3_U_30D4_U
100
AcDbVertex
100
AcDb2dVertex
 10
182.8624297825959
 20
115.611457356642
 30
0.0
  0
VERTEX
  5
2AD
330
187
100
AcDbEntity
  8
TOP_U_306E_U_30B3_U_30D4_U
100
AcDbVertex
100
AcDb2dVertex
 10
182.8734879836513
 20
115.6161134412965
 30
0.0
  0
VERTEX
  5
2AE
330
187
100
AcDbEntity
  8
TOP_U_306E_U_30B3_U_30D4_U
100
AcDbVertex
100
AcDb2dVertex
 10
182.8845461847067
 20
115.6207695259517
 30
0.0
  0
VERTEX
  5
2AF
330
187
100
AcDbEntity
  8
TOP_U_306E_U_30B3_U_30D4_U
100
AcDbVertex
100
AcDb2dVertex
 10
182.8956043857621
 20
115.6254256106069
 30
0.0
  0
VERTEX
  5
2B0
330
187
100
AcDbEntity
  8
TOP_U_306E_U_30B3_U_30D4_U
100
AcDbVertex
100
AcDb2dVertex
 10
182.9066625868175
 20
115.6300816952614
 30
0.0
  0
VERTEX
  5
2B1
330
187
100
AcDbEntity
  8
TOP_U_306E_U_30B3_U_30D4_U
100
AcDbVertex
100
AcDb2dVertex
 10
182.9331440682919
 20
115.6353197904978
 30
0.0
  0
VERTEX
  5
2B2
330
187
100
AcDbEntity
  8
TOP_U_306E_U_30B3_U_30D4_U
100
AcDbVertex
100
AcDb2dVertex
 10
182.9596255497669
 20
115.6405578857349
 30
0.0
  0
VERTEX
  5
2B3
330
187
100
AcDbEntity
  8
TOP_U_306E_U_30B3_U_30D4_U
100
AcDbVertex
100
AcDb2dVertex
 10
182.9861070312419
 20
115.645795980972
 30
0.0
  0
VERTEX
  5
2B4
330
187
100
AcDbEntity
  8
TOP_U_306E_U_30B3_U_30D4_U
100
AcDbVertex
100
AcDb2dVertex
 10
183.012588512717
 20
115.651034076209
 30
0.0
  0
VERTEX
  5
2B5
330
187
100
AcDbEntity
  8
TOP_U_306E_U_30B3_U_30D4_U
100
AcDbVertex
100
AcDb2dVertex
 10
183.039069994192
 20
115.6562721714461
 30
0.0
  0
VERTEX
  5
2B6
330
187
100
AcDbEntity
  8
TOP_U_306E_U_30B3_U_30D4_U
100
AcDbVertex
100
AcDb2dVertex
 10
183.065551475667
 20
115.6615102666825
 30
0.0
  0
VERTEX
  5
2B7
330
187
100
AcDbEntity
  8
TOP_U_306E_U_30B3_U_30D4_U
100
AcDbVertex
100
AcDb2dVertex
 10
183.0920329571421
 20
115.666748361919
 30
0.0
  0
VERTEX
  5
2B8
330
187
100
AcDbEntity
  8
TOP_U_306E_U_30B3_U_30D4_U
100
AcDbVertex
100
AcDb2dVertex
 10
183.1185144386165
 20
115.6719864571561
 30
0.0
  0
VERTEX
  5
2B9
330
187
100
AcDbEntity
  8
TOP_U_306E_U_30B3_U_30D4_U
100
AcDbVertex
100
AcDb2dVertex
 10
183.1455779306727
 20
115.6719864571561
 30
0.0
  0
VERTEX
  5
2BA
330
187
100
AcDbEntity
  8
TOP_U_306E_U_30B3_U_30D4_U
100
AcDbVertex
100
AcDb2dVertex
 10
183.1726414227297
 20
115.6719864571561
 30
0.0
  0
VERTEX
  5
2BB
330
187
100
AcDbEntity
  8
TOP_U_306E_U_30B3_U_30D4_U
100
AcDbVertex
100
AcDb2dVertex
 10
183.1997049147866
 20
115.6719864571561
 30
0.0
  0
VERTEX
  5
2BC
330
187
100
AcDbEntity
  8
TOP_U_306E_U_30B3_U_30D4_U
100
AcDbVertex
100
AcDb2dVertex
 10
183.2267684068435
 20
115.6719864571561
 30
0.0
  0
VERTEX
  5
2BD
330
187
100
AcDbEntity
  8
TOP_U_306E_U_30B3_U_30D4_U
100
AcDbVertex
100
AcDb2dVertex
 10
183.2538318989005
 20
115.6719864571561
 30
0.0
  0
VERTEX
  5
2BE
330
187
100
AcDbEntity
  8
TOP_U_306E_U_30B3_U_30D4_U
100
AcDbVertex
100
AcDb2dVertex
 10
183.2808953909574
 20
115.6719864571561
 30
0.0
  0
VERTEX
  5
2BF
330
187
100
AcDbEntity
  8
TOP_U_306E_U_30B3_U_30D4_U
100
AcDbVertex
100
AcDb2dVertex
 10
183.3079588830143
 20
115.6719864571561
 30
0.0
  0
VERTEX
  5
2C0
330
187
100
AcDbEntity
  8
TOP_U_306E_U_30B3_U_30D4_U
100
AcDbVertex
100
AcDb2dVertex
 10
183.3350223750706
 20
115.6719864571561
 30
0.0
  0
VERTEX
  5
2C1
330
187
100
AcDbEntity
  8
TOP_U_306E_U_30B3_U_30D4_U
100
AcDbVertex
100
AcDb2dVertex
 10
183.361503856545
 20
115.666748361919
 30
0.0
  0
VERTEX
  5
2C2
330
187
100
AcDbEntity
  8
TOP_U_306E_U_30B3_U_30D4_U
100
AcDbVertex
100
AcDb2dVertex
 10
183.38798533802
 20
115.6615102666825
 30
0.0
  0
VERTEX
  5
2C3
330
187
100
AcDbEntity
  8
TOP_U_306E_U_30B3_U_30D4_U
100
AcDbVertex
100
AcDb2dVertex
 10
183.4144668194951
 20
115.6562721714461
 30
0.0
  0
VERTEX
  5
2C4
330
187
100
AcDbEntity
  8
TOP_U_306E_U_30B3_U_30D4_U
100
AcDbVertex
100
AcDb2dVertex
 10
183.4409483009701
 20
115.651034076209
 30
0.0
  0
VERTEX
  5
2C5
330
187
100
AcDbEntity
  8
TOP_U_306E_U_30B3_U_30D4_U
100
AcDbVertex
100
AcDb2dVertex
 10
183.4674297824451
 20
115.645795980972
 30
0.0
  0
VERTEX
  5
2C6
330
187
100
AcDbEntity
  8
TOP_U_306E_U_30B3_U_30D4_U
100
AcDbVertex
100
AcDb2dVertex
 10
183.4939112639202
 20
115.6405578857349
 30
0.0
  0
VERTEX
  5
2C7
330
187
100
AcDbEntity
  8
TOP_U_306E_U_30B3_U_30D4_U
100
AcDbVertex
100
AcDb2dVertex
 10
183.5203927453952
 20
115.6353197904978
 30
0.0
  0
VERTEX
  5
2C8
330
187
100
AcDbEntity
  8
TOP_U_306E_U_30B3_U_30D4_U
100
AcDbVertex
100
AcDb2dVertex
 10
183.5468742268696
 20
115.6300816952614
 30
0.0
  0
SEQEND
  5
2C9
330
187
100
AcDbEntity
  8
TOP_U_306E_U_30B3_U_30D4_U
  0
POLYLINE
  5
2CA
330
1F
100
AcDbEntity
  8
TOP_U_306E_U_30B3_U_30D4_U
100
AcDb2dPolyline
 66
     1
 10
0.0
 20
0.0
 30
0.0
  0
VERTEX
  5
2CB
330
2CA
100
AcDbEntity
  8
TOP_U_306E_U_30B3_U_30D4_U
100
AcDbVertex
100
AcDb2dVertex
 10
186.3604576730125
 20
113.8614779873701
 30
0.0
  0
VERTEX
  5
425
330
2CA
100
AcDbEntity
  8
0
100
AcDbVertex
100
AcDb2dVertex
 10
186.3604576730125
 20
113.8614779873701
 30
0.0
  0
SEQEND
  5
2CC
330
2CA
100
AcDbEntity
  8
TOP_U_306E_U_30B3_U_30D4_U
  0
POLYLINE
  5
2CD
330
1F
100
AcDbEntity
  8
TOP_U_306E_U_30B3_U_30D4_U
100
AcDb2dPolyline
 66
     1
 10
0.0
 20
0.0
 30
0.0
  0
VERTEX
  5
2CE
330
2CD
100
AcDbEntity
  8
TOP_U_306E_U_30B3_U_30D4_U
100
AcDbVertex
100
AcDb2dVertex
 10
186.3604576730125
 20
113.8614779873701
 30
0.0
  0
VERTEX
  5
2CF
330
2CD
100
AcDbEntity
  8
TOP_U_306E_U_30B3_U_30D4_U
100
AcDbVertex
100
AcDb2dVertex
 10
186.1570505667103
 20
112.2399574836522
 30
0.0
  0
VERTEX
  5
2D0
330
2CD
100
AcDbEntity
  8
TOP_U_306E_U_30B3_U_30D4_U
100
AcDbVertex
100
AcDb2dVertex
 10
185.620795468278
 20
111.2787283682177
 30
0.0
  0
VERTEX
  5
2D1
330
2CD
100
AcDbEntity
  8
TOP_U_306E_U_30B3_U_30D4_U
100
AcDbVertex
100
AcDb2dVertex
 10
184.8626417084253
 20
110.8409140009943
 30
0.0
  0
VERTEX
  5
2D2
330
2CD
100
AcDbEntity
  8
TOP_U_306E_U_30B3_U_30D4_U
100
AcDbVertex
100
AcDb2dVertex
 10
183.9935386178622
 20
110.7896377419115
 30
0.0
  0
VERTEX
  5
2D3
330
2CD
100
AcDbEntity
  8
TOP_U_306E_U_30B3_U_30D4_U
100
AcDbVertex
100
AcDb2dVertex
 10
183.1244355272991
 20
110.9880229508974
 30
0.0
  0
VERTEX
  5
2D4
330
2CD
100
AcDbEntity
  8
TOP_U_306E_U_30B3_U_30D4_U
100
AcDbVertex
100
AcDb2dVertex
 10
182.3662817674458
 20
111.2991929878803
 30
0.0
  0
VERTEX
  5
2D5
330
2CD
100
AcDbEntity
  8
TOP_U_306E_U_30B3_U_30D4_U
100
AcDbVertex
100
AcDb2dVertex
 10
181.8300266690134
 20
111.5862712127891
 30
0.0
  0
VERTEX
  5
2D6
330
2CD
100
AcDbEntity
  8
TOP_U_306E_U_30B3_U_30D4_U
100
AcDbVertex
100
AcDb2dVertex
 10
181.6266195627113
 20
111.712380985552
 30
0.0
  0
VERTEX
  5
2D7
330
2CD
100
AcDbEntity
  8
TOP_U_306E_U_30B3_U_30D4_U
100
AcDbVertex
100
AcDb2dVertex
 10
177.2098584911211
 20
114.2434501290325
 30
0.0
  0
VERTEX
  5
2D8
330
2CD
100
AcDbEntity
  8
TOP_U_306E_U_30B3_U_30D4_U
100
AcDbVertex
100
AcDb2dVertex
 10
172.7930974195302
 20
116.774519272513
 30
0.0
  0
VERTEX
  5
2D9
330
2CD
100
AcDbEntity
  8
TOP_U_306E_U_30B3_U_30D4_U
100
AcDbVertex
100
AcDb2dVertex
 10
168.37633634794
 20
119.3055884159935
 30
0.0
  0
VERTEX
  5
2DA
330
2CD
100
AcDbEntity
  8
TOP_U_306E_U_30B3_U_30D4_U
100
AcDbVertex
100
AcDb2dVertex
 10
163.9595752763497
 20
121.836657559474
 30
0.0
  0
VERTEX
  5
2DB
330
2CD
100
AcDbEntity
  8
TOP_U_306E_U_30B3_U_30D4_U
100
AcDbVertex
100
AcDb2dVertex
 10
159.5428142047595
 20
124.3677267029546
 30
0.0
  0
VERTEX
  5
2DC
330
2CD
100
AcDbEntity
  8
TOP_U_306E_U_30B3_U_30D4_U
100
AcDbVertex
100
AcDb2dVertex
 10
155.1260531331693
 20
126.8987958464351
 30
0.0
  0
VERTEX
  5
2DD
330
2CD
100
AcDbEntity
  8
TOP_U_306E_U_30B3_U_30D4_U
100
AcDbVertex
100
AcDb2dVertex
 10
150.709292061579
 20
129.4298649899156
 30
0.0
  0
VERTEX
  5
2DE
330
2CD
100
AcDbEntity
  8
TOP_U_306E_U_30B3_U_30D4_U
100
AcDbVertex
100
AcDb2dVertex
 10
146.2925309899888
 20
131.9609341333961
 30
0.0
  0
VERTEX
  5
2DF
330
2CD
100
AcDbEntity
  8
TOP_U_306E_U_30B3_U_30D4_U
100
AcDbVertex
100
AcDb2dVertex
 10
145.8571792296498
 20
132.2313895839066
 30
0.0
  0
VERTEX
  5
2E0
330
2CD
100
AcDbEntity
  8
TOP_U_306E_U_30B3_U_30D4_U
100
AcDbVertex
100
AcDb2dVertex
 10
145.5317040407462
 20
132.5191563657704
 30
0.0
  0
VERTEX
  5
2E1
330
2CD
100
AcDbEntity
  8
TOP_U_306E_U_30B3_U_30D4_U
100
AcDbVertex
100
AcDb2dVertex
 10
145.3001305249738
 20
132.8077841871121
 30
0.0
  0
VERTEX
  5
2E2
330
2CD
100
AcDbEntity
  8
TOP_U_306E_U_30B3_U_30D4_U
100
AcDbVertex
100
AcDb2dVertex
 10
145.1464837840263
 20
133.0808227560551
 30
0.0
  0
VERTEX
  5
2E3
330
2CD
100
AcDbEntity
  8
TOP_U_306E_U_30B3_U_30D4_U
100
AcDbVertex
100
AcDb2dVertex
 10
145.054788919599
 20
133.3218217807218
 30
0.0
  0
VERTEX
  5
2E4
330
2CD
100
AcDbEntity
  8
TOP_U_306E_U_30B3_U_30D4_U
100
AcDbVertex
100
AcDb2dVertex
 10
145.0090710333862
 20
133.5143309692357
 30
0.0
  0
VERTEX
  5
2E5
330
2CD
100
AcDbEntity
  8
TOP_U_306E_U_30B3_U_30D4_U
100
AcDbVertex
100
AcDb2dVertex
 10
144.9933552270825
 20
133.6419000297206
 30
0.0
  0
VERTEX
  5
2E6
330
2CD
100
AcDbEntity
  8
TOP_U_306E_U_30B3_U_30D4_U
100
AcDbVertex
100
AcDb2dVertex
 10
144.9916666023823
 20
133.6880786702992
 30
0.0
  0
VERTEX
  5
2E7
330
2CD
100
AcDbEntity
  8
TOP_U_306E_U_30B3_U_30D4_U
100
AcDbVertex
100
AcDb2dVertex
 10
144.9931871545066
 20
139.3931593647683
 30
0.0
  0
VERTEX
  5
2E8
330
2CD
100
AcDbEntity
  8
TOP_U_306E_U_30B3_U_30D4_U
100
AcDbVertex
100
AcDb2dVertex
 10
144.9947077066304
 20
145.098240059237
 30
0.0
  0
VERTEX
  5
2E9
330
2CD
100
AcDbEntity
  8
TOP_U_306E_U_30B3_U_30D4_U
100
AcDbVertex
100
AcDb2dVertex
 10
144.9962282587548
 20
150.8033207537058
 30
0.0
  0
VERTEX
  5
2EA
330
2CD
100
AcDbEntity
  8
TOP_U_306E_U_30B3_U_30D4_U
100
AcDbVertex
100
AcDb2dVertex
 10
144.9977488108791
 20
156.5084014481748
 30
0.0
  0
VERTEX
  5
2EB
330
2CD
100
AcDbEntity
  8
TOP_U_306E_U_30B3_U_30D4_U
100
AcDbVertex
100
AcDb2dVertex
 10
144.9992693630029
 20
162.2134821426439
 30
0.0
  0
VERTEX
  5
2EC
330
2CD
100
AcDbEntity
  8
TOP_U_306E_U_30B3_U_30D4_U
100
AcDbVertex
100
AcDb2dVertex
 10
145.0007899151272
 20
167.9185628371126
 30
0.0
  0
VERTEX
  5
2ED
330
2CD
100
AcDbEntity
  8
TOP_U_306E_U_30B3_U_30D4_U
100
AcDbVertex
100
AcDb2dVertex
 10
145.0023104672516
 20
173.6236435315814
 30
0.0
  0
VERTEX
  5
2EE
330
2CD
100
AcDbEntity
  8
TOP_U_306E_U_30B3_U_30D4_U
100
AcDbVertex
100
AcDb2dVertex
 10
145.0038310193754
 20
179.3287242260504
 30
0.0
  0
VERTEX
  5
2EF
330
2CD
100
AcDbEntity
  8
TOP_U_306E_U_30B3_U_30D4_U
100
AcDbVertex
100
AcDb2dVertex
 10
144.9909310972881
 20
179.4390712491499
 30
0.0
  0
VERTEX
  5
2F0
330
2CD
100
AcDbEntity
  8
TOP_U_306E_U_30B3_U_30D4_U
100
AcDbVertex
100
AcDb2dVertex
 10
144.9814606426688
 20
179.7209226700905
 30
0.0
  0
VERTEX
  5
2F1
330
2CD
100
AcDbEntity
  8
TOP_U_306E_U_30B3_U_30D4_U
100
AcDbVertex
100
AcDb2dVertex
 10
145.0192636229832
 20
180.1004940163379
 30
0.0
  0
VERTEX
  5
2F2
330
2CD
100
AcDbEntity
  8
TOP_U_306E_U_30B3_U_30D4_U
100
AcDbVertex
100
AcDb2dVertex
 10
145.1481840056958
 20
180.5040008153571
 30
0.0
  0
VERTEX
  5
2F3
330
2CD
100
AcDbEntity
  8
TOP_U_306E_U_30B3_U_30D4_U
100
AcDbVertex
100
AcDb2dVertex
 10
145.4120657582722
 20
180.8576585946128
 30
0.0
  0
VERTEX
  5
2F4
330
2CD
100
AcDbEntity
  8
TOP_U_306E_U_30B3_U_30D4_U
100
AcDbVertex
100
AcDb2dVertex
 10
145.8547528481765
 20
181.0876828815699
 30
0.0
  0
VERTEX
  5
2F5
330
2CD
100
AcDbEntity
  8
TOP_U_306E_U_30B3_U_30D4_U
100
AcDbVertex
100
AcDb2dVertex
 10
146.5200892428736
 20
181.1202892036933
 30
0.0
  0
VERTEX
  5
2F6
330
2CD
100
AcDbEntity
  8
TOP_U_306E_U_30B3_U_30D4_U
100
AcDbVertex
100
AcDb2dVertex
 10
147.4519189098294
 20
180.8816930884482
 30
0.0
  0
VERTEX
  5
2F7
330
2CD
100
AcDbEntity
  8
TOP_U_306E_U_30B3_U_30D4_U
100
AcDbVertex
100
AcDb2dVertex
 10
151.9559276505674
 20
179.2948187793653
 30
0.0
  0
VERTEX
  5
2F8
330
2CD
100
AcDbEntity
  8
TOP_U_306E_U_30B3_U_30D4_U
100
AcDbVertex
100
AcDb2dVertex
 10
156.4599363913054
 20
177.7079444702821
 30
0.0
  0
VERTEX
  5
2F9
330
2CD
100
AcDbEntity
  8
TOP_U_306E_U_30B3_U_30D4_U
100
AcDbVertex
100
AcDb2dVertex
 10
160.9639451320434
 20
176.1210701611988
 30
0.0
  0
VERTEX
  5
2FA
330
2CD
100
AcDbEntity
  8
TOP_U_306E_U_30B3_U_30D4_U
100
AcDbVertex
100
AcDb2dVertex
 10
165.4679538727815
 20
174.5341958521159
 30
0.0
  0
VERTEX
  5
2FB
330
2CD
100
AcDbEntity
  8
TOP_U_306E_U_30B3_U_30D4_U
100
AcDbVertex
100
AcDb2dVertex
 10
169.9719626135195
 20
172.947321543033
 30
0.0
  0
VERTEX
  5
2FC
330
2CD
100
AcDbEntity
  8
TOP_U_306E_U_30B3_U_30D4_U
100
AcDbVertex
100
AcDb2dVertex
 10
174.4759713542575
 20
171.3604472339498
 30
0.0
  0
VERTEX
  5
2FD
330
2CD
100
AcDbEntity
  8
TOP_U_306E_U_30B3_U_30D4_U
100
AcDbVertex
100
AcDb2dVertex
 10
178.9799800949955
 20
169.7735729248666
 30
0.0
  0
VERTEX
  5
2FE
330
2CD
100
AcDbEntity
  8
TOP_U_306E_U_30B3_U_30D4_U
100
AcDbVertex
100
AcDb2dVertex
 10
183.4839888357335
 20
168.1866986157837
 30
0.0
  0
VERTEX
  5
2FF
330
2CD
100
AcDbEntity
  8
TOP_U_306E_U_30B3_U_30D4_U
100
AcDbVertex
100
AcDb2dVertex
 10
183.6082339244499
 20
168.1505088269042
 30
0.0
  0
VERTEX
  5
300
330
2CD
100
AcDbEntity
  8
TOP_U_306E_U_30B3_U_30D4_U
100
AcDbVertex
100
AcDb2dVertex
 10
183.9357891583394
 20
168.0325525139953
 30
0.0
  0
VERTEX
  5
301
330
2CD
100
AcDbEntity
  8
TOP_U_306E_U_30B3_U_30D4_U
100
AcDbVertex
100
AcDb2dVertex
 10
184.3988844890101
 20
167.8187492576511
 30
0.0
  0
VERTEX
  5
302
330
2CD
100
AcDbEntity
  8
TOP_U_306E_U_30B3_U_30D4_U
100
AcDbVertex
100
AcDb2dVertex
 10
184.9297498680713
 20
167.4950186384654
 30
0.0
  0
VERTEX
  5
303
330
2CD
100
AcDbEntity
  8
TOP_U_306E_U_30B3_U_30D4_U
100
AcDbVertex
100
AcDb2dVertex
 10
185.4606152471324
 20
167.0472802370322
 30
0.0
  0
VERTEX
  5
304
330
2CD
100
AcDbEntity
  8
TOP_U_306E_U_30B3_U_30D4_U
100
AcDbVertex
100
AcDb2dVertex
 10
185.9237105778032
 20
166.4614536339457
 30
0.0
  0
VERTEX
  5
305
330
2CD
100
AcDbEntity
  8
TOP_U_306E_U_30B3_U_30D4_U
100
AcDbVertex
100
AcDb2dVertex
 10
186.2512658116926
 20
165.7234584097997
 30
0.0
  0
VERTEX
  5
306
330
2CD
100
AcDbEntity
  8
TOP_U_306E_U_30B3_U_30D4_U
100
AcDbVertex
100
AcDb2dVertex
 10
186.375510900409
 20
164.8192141451882
 30
0.0
  0
VERTEX
  5
307
330
2CD
100
AcDbEntity
  8
TOP_U_306E_U_30B3_U_30D4_U
100
AcDbVertex
100
AcDb2dVertex
 10
186.373629246985
 20
158.4494971254608
 30
0.0
  0
VERTEX
  5
308
330
2CD
100
AcDbEntity
  8
TOP_U_306E_U_30B3_U_30D4_U
100
AcDbVertex
100
AcDb2dVertex
 10
186.3717475935604
 20
152.0797801057337
 30
0.0
  0
VERTEX
  5
309
330
2CD
100
AcDbEntity
  8
TOP_U_306E_U_30B3_U_30D4_U
100
AcDbVertex
100
AcDb2dVertex
 10
186.3698659401357
 20
145.7100630860066
 30
0.0
  0
VERTEX
  5
30A
330
2CD
100
AcDbEntity
  8
TOP_U_306E_U_30B3_U_30D4_U
100
AcDbVertex
100
AcDb2dVertex
 10
186.367984286711
 20
139.3403460662792
 30
0.0
  0
VERTEX
  5
30B
330
2CD
100
AcDbEntity
  8
TOP_U_306E_U_30B3_U_30D4_U
100
AcDbVertex
100
AcDb2dVertex
 10
186.3661026332864
 20
132.9706290465517
 30
0.0
  0
VERTEX
  5
30C
330
2CD
100
AcDbEntity
  8
TOP_U_306E_U_30B3_U_30D4_U
100
AcDbVertex
100
AcDb2dVertex
 10
186.3642209798618
 20
126.600912026825
 30
0.0
  0
VERTEX
  5
30D
330
2CD
100
AcDbEntity
  8
TOP_U_306E_U_30B3_U_30D4_U
100
AcDbVertex
100
AcDb2dVertex
 10
186.3623393264371
 20
120.2311950070976
 30
0.0
  0
VERTEX
  5
30E
330
2CD
100
AcDbEntity
  8
TOP_U_306E_U_30B3_U_30D4_U
100
AcDbVertex
100
AcDb2dVertex
 10
186.3604576730125
 20
113.8614779873701
 30
0.0
  0
VERTEX
  5
30F
330
2CD
100
AcDbEntity
  8
TOP_U_306E_U_30B3_U_30D4_U
100
AcDbVertex
100
AcDb2dVertex
 10
186.3604576730125
 20
113.8614779873701
 30
0.0
  0
SEQEND
  5
310
330
2CD
100
AcDbEntity
  8
TOP_U_306E_U_30B3_U_30D4_U
  0
POLYLINE
  5
312
330
1F
100
AcDbEntity
  8
BOTTOM_U_306E_U_30B3_U_30D
100
AcDb2dPolyline
 66
     1
 10
0.0
 20
0.0
 30
0.0
  0
VERTEX
  5
313
330
312
100
AcDbEntity
  8
BOTTOM_U_306E_U_30B3_U_30D
100
AcDbVertex
100
AcDb2dVertex
 10
29.53954227301256
 20
164.1777741534784
 30
0.0
  0
VERTEX
  5
314
330
312
100
AcDbEntity
  8
BOTTOM_U_306E_U_30B3_U_30D
100
AcDbVertex
100
AcDb2dVertex
 10
29.5322491993599
 20
159.7489140019655
 30
0.0
  0
VERTEX
  5
315
330
312
100
AcDbEntity
  8
BOTTOM_U_306E_U_30B3_U_30D
100
AcDbVertex
100
AcDb2dVertex
 10
29.51620443732404
 20
155.3937524597423
 30
0.0
  0
VERTEX
  5
316
330
312
100
AcDbEntity
  8
BOTTOM_U_306E_U_30B3_U_30D
100
AcDbVertex
100
AcDb2dVertex
 10
29.50015967528818
 20
151.0385909175188
 30
0.0
  0
VERTEX
  5
317
330
312
100
AcDbEntity
  8
BOTTOM_U_306E_U_30B3_U_30D
100
AcDbVertex
100
AcDb2dVertex
 10
29.49286660163552
 20
146.6097307660059
 30
0.0
  0
VERTEX
  5
318
330
312
100
AcDbEntity
  8
BOTTOM_U_306E_U_30B3_U_30D
100
AcDbVertex
100
AcDb2dVertex
 10
29.49286660163552
 20
142.1227382089573
 30
0.0
  0
VERTEX
  5
319
330
312
100
AcDbEntity
  8
BOTTOM_U_306E_U_30B3_U_30D
100
AcDbVertex
100
AcDb2dVertex
 10
29.49286660163552
 20
137.6357456519087
 30
0.0
  0
VERTEX
  5
31A
330
312
100
AcDbEntity
  8
BOTTOM_U_306E_U_30B3_U_30D
100
AcDbVertex
100
AcDb2dVertex
 10
29.49286660163552
 20
133.1487530948604
 30
0.0
  0
VERTEX
  5
31B
330
312
100
AcDbEntity
  8
BOTTOM_U_306E_U_30B3_U_30D
100
AcDbVertex
100
AcDb2dVertex
 10
29.49286660163552
 20
128.6617605378115
 30
0.0
  0
VERTEX
  5
31C
330
312
100
AcDbEntity
  8
BOTTOM_U_306E_U_30B3_U_30D
100
AcDbVertex
100
AcDb2dVertex
 10
29.49286660163552
 20
125.6314599007648
 30
0.0
  0
VERTEX
  5
31D
330
312
100
AcDbEntity
  8
BOTTOM_U_306E_U_30B3_U_30D
100
AcDbVertex
100
AcDb2dVertex
 10
29.49286660163584
 20
122.5991332407876
 30
0.0
  0
VERTEX
  5
31E
330
312
100
AcDbEntity
  8
BOTTOM_U_306E_U_30B3_U_30D
100
AcDbVertex
100
AcDb2dVertex
 10
29.49286660163584
 20
119.5668065808104
 30
0.0
  0
VERTEX
  5
31F
330
312
100
AcDbEntity
  8
BOTTOM_U_306E_U_30B3_U_30D
100
AcDbVertex
100
AcDb2dVertex
 10
29.49286660163552
 20
116.5365059437637
 30
0.0
  0
SEQEND
  5
320
330
312
100
AcDbEntity
  8
BOTTOM_U_306E_U_30B3_U_30D
  0
POLYLINE
  5
321
330
1F
100
AcDbEntity
  8
BOTTOM_U_306E_U_30B3_U_30D
100
AcDb2dPolyline
 66
     1
 10
0.0
 20
0.0
 30
0.0
  0
VERTEX
  5
322
330
321
100
AcDbEntity
  8
BOTTOM_U_306E_U_30B3_U_30D
100
AcDbVertex
100
AcDb2dVertex
 10
29.53954227301256
 20
108.7731481209551
 30
0.0
  0
VERTEX
  5
323
330
321
100
AcDbEntity
  8
BOTTOM_U_306E_U_30B3_U_30D
100
AcDbVertex
100
AcDb2dVertex
 10
29.82659313161825
 20
107.6079720568667
 30
0.0
  0
VERTEX
  5
324
330
321
100
AcDbEntity
  8
BOTTOM_U_306E_U_30B3_U_30D
100
AcDbVertex
100
AcDb2dVertex
 10
30.32245506224703
 20
106.4951425572009
 30
0.0
  0
VERTEX
  5
325
330
321
100
AcDbEntity
  8
BOTTOM_U_306E_U_30B3_U_30D
100
AcDbVertex
100
AcDb2dVertex
 10
31.06100469488233
 20
105.5565602051218
 30
0.0
  0
VERTEX
  5
326
330
321
100
AcDbEntity
  8
BOTTOM_U_306E_U_30B3_U_30D
100
AcDbVertex
100
AcDb2dVertex
 10
32.07611865950756
 20
104.9141255837931
 30
0.0
  0
VERTEX
  5
327
330
321
100
AcDbEntity
  8
BOTTOM_U_306E_U_30B3_U_30D
100
AcDbVertex
100
AcDb2dVertex
 10
32.82846409776785
 20
104.7273114883734
 30
0.0
  0
VERTEX
  5
328
330
321
100
AcDbEntity
  8
BOTTOM_U_306E_U_30B3_U_30D
100
AcDbVertex
100
AcDb2dVertex
 10
33.59791703454037
 20
104.710554702962
 30
0.0
  0
VERTEX
  5
329
330
321
100
AcDbEntity
  8
BOTTOM_U_306E_U_30B3_U_30D
100
AcDbVertex
100
AcDb2dVertex
 10
34.36756011981739
 20
104.816697962942
 30
0.0
  0
VERTEX
  5
32A
330
321
100
AcDbEntity
  8
BOTTOM_U_306E_U_30B3_U_30D
100
AcDbVertex
100
AcDb2dVertex
 10
35.12047600359212
 20
104.9985840036937
 30
0.0
  0
VERTEX
  5
32B
330
321
100
AcDbEntity
  8
BOTTOM_U_306E_U_30B3_U_30D
100
AcDbVertex
100
AcDb2dVertex
 10
35.92538662629683
 20
105.2320191912471
 30
0.0
  0
VERTEX
  5
32C
330
321
100
AcDbEntity
  8
BOTTOM_U_306E_U_30B3_U_30D
100
AcDbVertex
100
AcDb2dVertex
 10
36.72640507406593
 20
105.4786456681925
 30
0.0
  0
VERTEX
  5
32D
330
321
100
AcDbEntity
  8
BOTTOM_U_306E_U_30B3_U_30D
100
AcDbVertex
100
AcDb2dVertex
 10
37.52684513750019
 20
105.7272592548597
 30
0.0
  0
VERTEX
  5
32E
330
321
100
AcDbEntity
  8
BOTTOM_U_306E_U_30B3_U_30D
100
AcDbVertex
100
AcDb2dVertex
 10
38.3300206071997
 20
105.9666557715791
 30
0.0
  0
VERTEX
  5
32F
330
321
100
AcDbEntity
  8
BOTTOM_U_306E_U_30B3_U_30D
100
AcDbVertex
100
AcDb2dVertex
 10
41.63650251359313
 20
106.8237588928929
 30
0.0
  0
VERTEX
  5
330
330
321
100
AcDbEntity
  8
BOTTOM_U_306E_U_30B3_U_30D
100
AcDbVertex
100
AcDb2dVertex
 10
44.97860226001475
 20
107.5317977622955
 30
0.0
  0
VERTEX
  5
331
330
321
100
AcDbEntity
  8
BOTTOM_U_306E_U_30B3_U_30D
100
AcDbVertex
100
AcDb2dVertex
 10
48.34464710201204
 20
108.1220133192983
 30
0.0
  0
VERTEX
  5
332
330
321
100
AcDbEntity
  8
BOTTOM_U_306E_U_30B3_U_30D
100
AcDbVertex
100
AcDb2dVertex
 10
51.72296429513312
 20
108.6256465034145
 30
0.0
  0
VERTEX
  5
333
330
321
100
AcDbEntity
  8
BOTTOM_U_306E_U_30B3_U_30D
100
AcDbVertex
100
AcDb2dVertex
 10
53.42941664860567
 20
108.8619477654617
 30
0.0
  0
VERTEX
  5
334
330
321
100
AcDbEntity
  8
BOTTOM_U_306E_U_30B3_U_30D
100
AcDbVertex
100
AcDb2dVertex
 10
55.13765946189925
 20
109.0865361308319
 30
0.0
  0
VERTEX
  5
335
330
321
100
AcDbEntity
  8
BOTTOM_U_306E_U_30B3_U_30D
100
AcDbVertex
100
AcDb2dVertex
 10
56.84885572269698
 20
109.2856155577744
 30
0.0
  0
VERTEX
  5
336
330
321
100
AcDbEntity
  8
BOTTOM_U_306E_U_30B3_U_30D
100
AcDbVertex
100
AcDb2dVertex
 10
58.56416841868261
 20
109.445390004536
 30
0.0
  0
VERTEX
  5
337
330
321
100
AcDbEntity
  8
BOTTOM_U_306E_U_30B3_U_30D
100
AcDbVertex
100
AcDb2dVertex
 10
60.29710179076721
 20
109.5579410734905
 30
0.0
  0
VERTEX
  5
338
330
321
100
AcDbEntity
  8
BOTTOM_U_306E_U_30B3_U_30D
100
AcDbVertex
100
AcDb2dVertex
 10
62.03193962576209
 20
109.6343457492075
 30
0.0
  0
VERTEX
  5
339
330
321
100
AcDbEntity
  8
BOTTOM_U_306E_U_30B3_U_30D
100
AcDbVertex
100
AcDb2dVertex
 10
63.76766650504938
 20
109.6925872367481
 30
0.0
  0
VERTEX
  5
33A
330
321
100
AcDbEntity
  8
BOTTOM_U_306E_U_30B3_U_30D
100
AcDbVertex
100
AcDb2dVertex
 10
65.50326701001123
 20
109.7506487411729
 30
0.0
  0
VERTEX
  5
33B
330
321
100
AcDbEntity
  8
BOTTOM_U_306E_U_30B3_U_30D
100
AcDbVertex
100
AcDb2dVertex
 10
67.23450552223547
 20
109.8094564581455
 30
0.0
  0
VERTEX
  5
33C
330
321
100
AcDbEntity
  8
BOTTOM_U_306E_U_30B3_U_30D
100
AcDbVertex
100
AcDb2dVertex
 10
68.96628633044814
 20
109.8487472784209
 30
0.0
  0
VERTEX
  5
33D
330
321
100
AcDbEntity
  8
BOTTOM_U_306E_U_30B3_U_30D
100
AcDbVertex
100
AcDb2dVertex
 10
70.69823993262816
 20
109.8542388638909
 30
0.0
  0
VERTEX
  5
33E
330
321
100
AcDbEntity
  8
BOTTOM_U_306E_U_30B3_U_30D
100
AcDbVertex
100
AcDb2dVertex
 10
72.42999682675438
 20
109.8116488764475
 30
0.0
  0
VERTEX
  5
33F
330
321
100
AcDbEntity
  8
BOTTOM_U_306E_U_30B3_U_30D
100
AcDbVertex
100
AcDb2dVertex
 10
74.17327719909841
 20
109.7296801567893
 30
0.0
  0
VERTEX
  5
340
330
321
100
AcDbEntity
  8
BOTTOM_U_306E_U_30B3_U_30D
100
AcDbVertex
100
AcDb2dVertex
 10
75.91590490156364
 20
109.6340817839494
 30
0.0
  0
VERTEX
  5
341
330
321
100
AcDbEntity
  8
BOTTOM_U_306E_U_30B3_U_30D
100
AcDbVertex
100
AcDb2dVertex
 10
77.65834162891493
 20
109.5346286308713
 30
0.0
  0
VERTEX
  5
342
330
321
100
AcDbEntity
  8
BOTTOM_U_306E_U_30B3_U_30D
100
AcDbVertex
100
AcDb2dVertex
 10
79.40104907591784
 20
109.4410955704973
 30
0.0
  0
VERTEX
  5
343
330
321
100
AcDbEntity
  8
BOTTOM_U_306E_U_30B3_U_30D
100
AcDbVertex
100
AcDb2dVertex
 10
81.12023783847374
 20
109.344408101095
 30
0.0
  0
VERTEX
  5
344
330
321
100
AcDbEntity
  8
BOTTOM_U_306E_U_30B3_U_30D
100
AcDbVertex
100
AcDb2dVertex
 10
82.8373850044916
 20
109.2179347676753
 30
0.0
  0
VERTEX
  5
345
330
321
100
AcDbEntity
  8
BOTTOM_U_306E_U_30B3_U_30D
100
AcDbVertex
100
AcDb2dVertex
 10
84.55052896461191
 20
109.0486378179711
 30
0.0
  0
VERTEX
  5
346
330
321
100
AcDbEntity
  8
BOTTOM_U_306E_U_30B3_U_30D
100
AcDbVertex
100
AcDb2dVertex
 10
86.25770810947517
 20
108.8234794997173
 30
0.0
  0
VERTEX
  5
347
330
321
100
AcDbEntity
  8
BOTTOM_U_306E_U_30B3_U_30D
100
AcDbVertex
100
AcDb2dVertex
 10
87.96654380540305
 20
108.5525907840509
 30
0.0
  0
VERTEX
  5
348
330
321
100
AcDbEntity
  8
BOTTOM_U_306E_U_30B3_U_30D
100
AcDbVertex
100
AcDb2dVertex
 10
89.67206015609858
 20
108.2607723490346
 30
0.0
  0
VERTEX
  5
349
330
321
100
AcDbEntity
  8
BOTTOM_U_306E_U_30B3_U_30D
100
AcDbVertex
100
AcDb2dVertex
 10
91.37495291666188
 20
107.9537339310407
 30
0.0
  0
VERTEX
  5
34A
330
321
100
AcDbEntity
  8
BOTTOM_U_306E_U_30B3_U_30D
100
AcDbVertex
100
AcDb2dVertex
 10
93.07591784219335
 20
107.6371852664417
 30
0.0
  0
VERTEX
  5
34B
330
321
100
AcDbEntity
  8
BOTTOM_U_306E_U_30B3_U_30D
100
AcDbVertex
100
AcDb2dVertex
 10
96.46796795809605
 20
106.9771787215156
 30
0.0
  0
VERTEX
  5
34C
330
321
100
AcDbEntity
  8
BOTTOM_U_306E_U_30B3_U_30D
100
AcDbVertex
100
AcDb2dVertex
 10
99.8497419808309
 20
106.2661808588609
 30
0.0
  0
VERTEX
  5
34D
330
321
100
AcDbEntity
  8
BOTTOM_U_306E_U_30B3_U_30D
100
AcDbVertex
100
AcDb2dVertex
 10
103.2178324240479
 20
105.4938084124544
 30
0.0
  0
VERTEX
  5
34E
330
321
100
AcDbEntity
  8
BOTTOM_U_306E_U_30B3_U_30D
100
AcDbVertex
100
AcDb2dVertex
 10
106.5688318013971
 20
104.6496781162719
 30
0.0
  0
VERTEX
  5
34F
330
321
100
AcDbEntity
  8
BOTTOM_U_306E_U_30B3_U_30D
100
AcDbVertex
100
AcDb2dVertex
 10
109.8313153782267
 20
103.7542297185612
 30
0.0
  0
VERTEX
  5
350
330
321
100
AcDbEntity
  8
BOTTOM_U_306E_U_30B3_U_30D
100
AcDbVertex
100
AcDb2dVertex
 10
113.0719927082671
 20
102.7806484402762
 30
0.0
  0
VERTEX
  5
351
330
321
100
AcDbEntity
  8
BOTTOM_U_306E_U_30B3_U_30D
100
AcDbVertex
100
AcDb2dVertex
 10
116.2792310576661
 20
101.7046297037834
 30
0.0
  0
VERTEX
  5
352
330
321
100
AcDbEntity
  8
BOTTOM_U_306E_U_30B3_U_30D
100
AcDbVertex
100
AcDb2dVertex
 10
119.4413976925705
 20
100.5018689314505
 30
0.0
  0
VERTEX
  5
353
330
321
100
AcDbEntity
  8
BOTTOM_U_306E_U_30B3_U_30D
100
AcDbVertex
100
AcDb2dVertex
 10
122.5108290851696
 20
99.18042403775559
 30
0.0
  0
VERTEX
  5
354
330
321
100
AcDbEntity
  8
BOTTOM_U_306E_U_30B3_U_30D
100
AcDbVertex
100
AcDb2dVertex
 10
125.5276663628323
 20
97.74333171214772
 30
0.0
  0
VERTEX
  5
355
330
321
100
AcDbEntity
  8
BOTTOM_U_306E_U_30B3_U_30D
100
AcDbVertex
100
AcDb2dVertex
 10
128.4953260230909
 20
96.20616016090342
 30
0.0
  0
VERTEX
  5
356
330
321
100
AcDbEntity
  8
BOTTOM_U_306E_U_30B3_U_30D
100
AcDbVertex
100
AcDb2dVertex
 10
131.4172245634769
 20
94.58447759029855
 30
0.0
  0
VERTEX
  5
357
330
321
100
AcDbEntity
  8
BOTTOM_U_306E_U_30B3_U_30D
100
AcDbVertex
100
AcDb2dVertex
 10
137.2317254032088
 20
91.1228583182035
 30
0.0
  0
VERTEX
  5
358
330
321
100
AcDbEntity
  8
BOTTOM_U_306E_U_30B3_U_30D
100
AcDbVertex
100
AcDb2dVertex
 10
142.9739370744064
 20
87.54169758869197
 30
0.0
  0
VERTEX
  5
359
330
321
100
AcDbEntity
  8
BOTTOM_U_306E_U_30B3_U_30D
100
AcDbVertex
100
AcDb2dVertex
 10
148.7187278014744
 20
83.96486595542378
 30
0.0
  0
VERTEX
  5
35A
330
321
100
AcDbEntity
  8
BOTTOM_U_306E_U_30B3_U_30D
100
AcDbVertex
100
AcDb2dVertex
 10
154.5409658088171
 20
80.51623397205802
 30
0.0
  0
VERTEX
  5
35B
330
321
100
AcDbEntity
  8
BOTTOM_U_306E_U_30B3_U_30D
100
AcDbVertex
100
AcDb2dVertex
 10
155.8467882109828
 20
79.78415567647234
 30
0.0
  0
VERTEX
  5
35C
330
321
100
AcDbEntity
  8
BOTTOM_U_306E_U_30B3_U_30D
100
AcDbVertex
100
AcDb2dVertex
 10
157.1573159799311
 20
79.06050712090213
 30
0.0
  0
VERTEX
  5
35D
330
321
100
AcDbEntity
  8
BOTTOM_U_306E_U_30B3_U_30D
100
AcDbVertex
100
AcDb2dVertex
 10
158.4673500871788
 20
78.33598144068772
 30
0.0
  0
VERTEX
  5
35E
330
321
100
AcDbEntity
  8
BOTTOM_U_306E_U_30B3_U_30D
100
AcDbVertex
100
AcDb2dVertex
 10
159.7716915042397
 20
77.60127177116942
 30
0.0
  0
VERTEX
  5
35F
330
321
100
AcDbEntity
  8
BOTTOM_U_306E_U_30B3_U_30D
100
AcDbVertex
100
AcDb2dVertex
 10
161.1047933565462
 20
76.82167509736705
 30
0.0
  0
VERTEX
  5
360
330
321
100
AcDbEntity
  8
BOTTOM_U_306E_U_30B3_U_30D
100
AcDbVertex
100
AcDb2dVertex
 10
162.4236790060944
 20
76.01841949196069
 30
0.0
  0
VERTEX
  5
361
330
321
100
AcDbEntity
  8
BOTTOM_U_306E_U_30B3_U_30D
100
AcDbVertex
100
AcDb2dVertex
 10
163.7304779089022
 20
75.19552128477366
 30
0.0
  0
VERTEX
  5
362
330
321
100
AcDbEntity
  8
BOTTOM_U_306E_U_30B3_U_30D
100
AcDbVertex
100
AcDb2dVertex
 10
165.027319520988
 20
74.3569968056293
 30
0.0
  0
SEQEND
  5
363
330
321
100
AcDbEntity
  8
BOTTOM_U_306E_U_30B3_U_30D
  0
POLYLINE
  5
364
330
1F
100
AcDbEntity
  8
BOTTOM_U_306E_U_30B3_U_30D
100
AcDb2dPolyline
 66
     1
 10
0.0
 20
0.0
 30
0.0
  0
VERTEX
  5
365
330
364
100
AcDbEntity
  8
BOTTOM_U_306E_U_30B3_U_30D
100
AcDbVertex
100
AcDb2dVertex
 10
165.027319520988
 20
74.3569968056293
 30
0.0
  0
VERTEX
  5
366
330
364
100
AcDbEntity
  8
BOTTOM_U_306E_U_30B3_U_30D
100
AcDbVertex
100
AcDb2dVertex
 10
165.7802462549928
 20
74.11752337834871
 30
0.0
  0
VERTEX
  5
367
330
364
100
AcDbEntity
  8
BOTTOM_U_306E_U_30B3_U_30D
100
AcDbVertex
100
AcDb2dVertex
 10
166.5037759864595
 20
74.10190480778601
 30
0.0
  0
VERTEX
  5
368
330
364
100
AcDbEntity
  8
BOTTOM_U_306E_U_30B3_U_30D
100
AcDbVertex
100
AcDb2dVertex
 10
167.1738415080232
 20
74.33708214799063
 30
0.0
  0
VERTEX
  5
369
330
364
100
AcDbEntity
  8
BOTTOM_U_306E_U_30B3_U_30D
100
AcDbVertex
100
AcDb2dVertex
 10
167.7663756123183
 20
74.849996453012
 30
0.0
  0
SEQEND
  5
36A
330
364
100
AcDbEntity
  8
BOTTOM_U_306E_U_30B3_U_30D
  0
POLYLINE
  5
36B
330
1F
100
AcDbEntity
  8
BOTTOM_U_306E_U_30B3_U_30D
100
AcDb2dPolyline
 66
     1
 10
0.0
 20
0.0
 30
0.0
  0
VERTEX
  5
36C
330
36B
100
AcDbEntity
  8
BOTTOM_U_306E_U_30B3_U_30D
100
AcDbVertex
100
AcDb2dVertex
 10
167.7663756123183
 20
74.849996453012
 30
0.0
  0
VERTEX
  5
36D
330
36B
100
AcDbEntity
  8
BOTTOM_U_306E_U_30B3_U_30D
100
AcDbVertex
100
AcDb2dVertex
 10
171.2933999192933
 20
80.95898175220505
 30
0.0
  0
VERTEX
  5
36E
330
36B
100
AcDbEntity
  8
BOTTOM_U_306E_U_30B3_U_30D
100
AcDbVertex
100
AcDb2dVertex
 10
174.82042422626
 20
87.06796705140322
 30
0.0
  0
VERTEX
  5
36F
330
36B
100
AcDbEntity
  8
BOTTOM_U_306E_U_30B3_U_30D
100
AcDbVertex
100
AcDb2dVertex
 10
178.3474485332235
 20
93.17695235060332
 30
0.0
  0
VERTEX
  5
370
330
36B
100
AcDbEntity
  8
BOTTOM_U_306E_U_30B3_U_30D
100
AcDbVertex
100
AcDb2dVertex
 10
181.8744728401877
 20
99.28593764980276
 30
0.0
  0
VERTEX
  5
371
330
36B
100
AcDbEntity
  8
BOTTOM_U_306E_U_30B3_U_30D
100
AcDbVertex
100
AcDb2dVertex
 10
182.9959690483923
 20
101.2284260629136
 30
0.0
  0
VERTEX
  5
372
330
36B
100
AcDbEntity
  8
BOTTOM_U_306E_U_30B3_U_30D
100
AcDbVertex
100
AcDb2dVertex
 10
184.1174652565949
 20
103.1709144760244
 30
0.0
  0
VERTEX
  5
373
330
36B
100
AcDbEntity
  8
BOTTOM_U_306E_U_30B3_U_30D
100
AcDbVertex
100
AcDb2dVertex
 10
185.2389614648008
 20
105.1134028891339
 30
0.0
  0
VERTEX
  5
374
330
36B
100
AcDbEntity
  8
BOTTOM_U_306E_U_30B3_U_30D
100
AcDbVertex
100
AcDb2dVertex
 10
186.3604576730125
 20
107.0558913022396
 30
0.0
  0
SEQEND
  5
375
330
36B
100
AcDbEntity
  8
BOTTOM_U_306E_U_30B3_U_30D
  0
POLYLINE
  5
376
330
1F
100
AcDbEntity
  8
BOTTOM_U_306E_U_30B3_U_30D
100
AcDb2dPolyline
 66
     1
 10
0.0
 20
0.0
 30
0.0
  0
VERTEX
  5
377
330
376
100
AcDbEntity
  8
BOTTOM_U_306E_U_30B3_U_30D
100
AcDbVertex
100
AcDb2dVertex
 10
186.3604576730125
 20
162.8533340360451
 30
0.0
  0
VERTEX
  5
378
330
376
100
AcDbEntity
  8
BOTTOM_U_306E_U_30B3_U_30D
100
AcDbVertex
100
AcDb2dVertex
 10
186.3604576730125
 20
155.811705558366
 30
0.0
  0
VERTEX
  5
379
330
376
100
AcDbEntity
  8
BOTTOM_U_306E_U_30B3_U_30D
100
AcDbVertex
100
AcDb2dVertex
 10
186.3604576730125
 20
148.7700770806868
 30
0.0
  0
VERTEX
  5
37A
330
376
100
AcDbEntity
  8
BOTTOM_U_306E_U_30B3_U_30D
100
AcDbVertex
100
AcDb2dVertex
 10
186.3604576730125
 20
141.7284486030076
 30
0.0
  0
VERTEX
  5
37B
330
376
100
AcDbEntity
  8
BOTTOM_U_306E_U_30B3_U_30D
100
AcDbVertex
100
AcDb2dVertex
 10
186.3604576730125
 20
134.6868201253288
 30
0.0
  0
VERTEX
  5
37C
330
376
100
AcDbEntity
  8
BOTTOM_U_306E_U_30B3_U_30D
100
AcDbVertex
100
AcDb2dVertex
 10
186.3604576730125
 20
128.5514200820218
 30
0.0
  0
VERTEX
  5
37D
330
376
100
AcDbEntity
  8
BOTTOM_U_306E_U_30B3_U_30D
100
AcDbVertex
100
AcDb2dVertex
 10
186.3604576730125
 20
120.8713557137842
 30
0.0
  0
VERTEX
  5
37E
330
376
100
AcDbEntity
  8
BOTTOM_U_306E_U_30B3_U_30D
100
AcDbVertex
100
AcDb2dVertex
 10
186.3604576730125
 20
113.1912913455466
 30
0.0
  0
VERTEX
  5
37F
330
376
100
AcDbEntity
  8
BOTTOM_U_306E_U_30B3_U_30D
100
AcDbVertex
100
AcDb2dVertex
 10
186.3604576730125
 20
107.0558913022396
 30
0.0
  0
SEQEND
  5
380
330
376
100
AcDbEntity
  8
BOTTOM_U_306E_U_30B3_U_30D
  0
POLYLINE
  5
381
330
1F
100
AcDbEntity
  8
BOTTOM_U_306E_U_30B3_U_30D
100
AcDb2dPolyline
 66
     1
 10
0.0
 20
0.0
 30
0.0
  0
VERTEX
  5
382
330
381
100
AcDbEntity
  8
BOTTOM_U_306E_U_30B3_U_30D
100
AcDbVertex
100
AcDb2dVertex
 10
29.53954227301256
 20
164.1777741534784
 30
0.0
  0
VERTEX
  5
383
330
381
100
AcDbEntity
  8
BOTTOM_U_306E_U_30B3_U_30D
100
AcDbVertex
100
AcDb2dVertex
 10
29.53954227301256
 20
164.5913770945516
 30
0.0
  0
VERTEX
  5
384
330
381
100
AcDbEntity
  8
BOTTOM_U_306E_U_30B3_U_30D
100
AcDbVertex
100
AcDb2dVertex
 10
29.53954227301256
 20
165.0049800356245
 30
0.0
  0
VERTEX
  5
385
330
381
100
AcDbEntity
  8
BOTTOM_U_306E_U_30B3_U_30D
100
AcDbVertex
100
AcDb2dVertex
 10
29.53954227301256
 20
165.4185829766976
 30
0.0
  0
VERTEX
  5
386
330
381
100
AcDbEntity
  8
BOTTOM_U_306E_U_30B3_U_30D
100
AcDbVertex
100
AcDb2dVertex
 10
29.53954227301256
 20
165.8321859177708
 30
0.0
  0
VERTEX
  5
387
330
381
100
AcDbEntity
  8
BOTTOM_U_306E_U_30B3_U_30D
100
AcDbVertex
100
AcDb2dVertex
 10
29.52074724595361
 20
166.2464366972556
 30
0.0
  0
VERTEX
  5
388
330
381
100
AcDbEntity
  8
BOTTOM_U_306E_U_30B3_U_30D
100
AcDbVertex
100
AcDb2dVertex
 10
29.49504416274056
 20
166.6633454949815
 30
0.0
  0
VERTEX
  5
389
330
381
100
AcDbEntity
  8
BOTTOM_U_306E_U_30B3_U_30D
100
AcDbVertex
100
AcDb2dVertex
 10
29.50845602032005
 20
167.0765780382519
 30
0.0
  0
VERTEX
  5
38A
330
381
100
AcDbEntity
  8
BOTTOM_U_306E_U_30B3_U_30D
100
AcDbVertex
100
AcDb2dVertex
 10
29.60700581563842
 20
167.4798000543693
 30
0.0
  0
VERTEX
  5
38B
330
381
100
AcDbEntity
  8
BOTTOM_U_306E_U_30B3_U_30D
100
AcDbVertex
100
AcDb2dVertex
 10
29.76914427168985
 20
167.7873209977126
 30
0.0
  0
VERTEX
  5
38C
330
381
100
AcDbEntity
  8
BOTTOM_U_306E_U_30B3_U_30D
100
AcDbVertex
100
AcDb2dVertex
 10
29.98332064808869
 20
168.0611889864126
 30
0.0
  0
VERTEX
  5
38D
330
381
100
AcDbEntity
  8
BOTTOM_U_306E_U_30B3_U_30D
100
AcDbVertex
100
AcDb2dVertex
 10
30.22912907533372
 20
168.3105318452743
 30
0.0
  0
VERTEX
  5
38E
330
381
100
AcDbEntity
  8
BOTTOM_U_306E_U_30B3_U_30D
100
AcDbVertex
100
AcDb2dVertex
 10
30.48616368392278
 20
168.544477399101
 30
0.0
  0
VERTEX
  5
38F
330
381
100
AcDbEntity
  8
BOTTOM_U_306E_U_30B3_U_30D
100
AcDbVertex
100
AcDb2dVertex
 10
30.79367693014551
 20
168.8137468938081
 30
0.0
  0
VERTEX
  5
390
330
381
100
AcDbEntity
  8
BOTTOM_U_306E_U_30B3_U_30D
100
AcDbVertex
100
AcDb2dVertex
 10
31.10697437534698
 20
169.0762491560849
 30
0.0
  0
VERTEX
  5
391
330
381
100
AcDbEntity
  8
BOTTOM_U_306E_U_30B3_U_30D
100
AcDbVertex
100
AcDb2dVertex
 10
31.42544066070482
 20
169.3324797644844
 30
0.0
  0
VERTEX
  5
392
330
381
100
AcDbEntity
  8
BOTTOM_U_306E_U_30B3_U_30D
100
AcDbVertex
100
AcDb2dVertex
 10
31.74846042739696
 20
169.5829342975609
 30
0.0
  0
VERTEX
  5
393
330
381
100
AcDbEntity
  8
BOTTOM_U_306E_U_30B3_U_30D
100
AcDbVertex
100
AcDb2dVertex
 10
33.11098383309984
 20
170.6044596168284
 30
0.0
  0
VERTEX
  5
394
330
381
100
AcDbEntity
  8
BOTTOM_U_306E_U_30B3_U_30D
100
AcDbVertex
100
AcDb2dVertex
 10
34.49007697861548
 20
171.6035330999688
 30
0.0
  0
VERTEX
  5
395
330
381
100
AcDbEntity
  8
BOTTOM_U_306E_U_30B3_U_30D
100
AcDbVertex
100
AcDb2dVertex
 10
35.88639147730055
 20
172.5783374819874
 30
0.0
  0
VERTEX
  5
396
330
381
100
AcDbEntity
  8
BOTTOM_U_306E_U_30B3_U_30D
100
AcDbVertex
100
AcDb2dVertex
 10
37.30057894251134
 20
173.5270554978897
 30
0.0
  0
VERTEX
  5
397
330
381
100
AcDbEntity
  8
BOTTOM_U_306E_U_30B3_U_30D
100
AcDbVertex
100
AcDb2dVertex
 10
40.10167942072152
 20
175.259412021754
 30
0.0
  0
VERTEX
  5
398
330
381
100
AcDbEntity
  8
BOTTOM_U_306E_U_30B3_U_30D
100
AcDbVertex
100
AcDb2dVertex
 10
42.98572992252927
 20
176.8488253590129
 30
0.0
  0
VERTEX
  5
399
330
381
100
AcDbEntity
  8
BOTTOM_U_306E_U_30B3_U_30D
100
AcDbVertex
100
AcDb2dVertex
 10
45.93679892107059
 20
178.3121824423157
 30
0.0
  0
VERTEX
  5
39A
330
381
100
AcDbEntity
  8
BOTTOM_U_306E_U_30B3_U_30D
100
AcDbVertex
100
AcDb2dVertex
 10
48.93895488948144
 20
179.6663702043112
 30
0.0
  0
VERTEX
  5
39B
330
381
100
AcDbEntity
  8
BOTTOM_U_306E_U_30B3_U_30D
100
AcDbVertex
100
AcDb2dVertex
 10
52.05578318000759
 20
180.9646821542955
 30
0.0
  0
VERTEX
  5
39C
330
381
100
AcDbEntity
  8
BOTTOM_U_306E_U_30B3_U_30D
100
AcDbVertex
100
AcDb2dVertex
 10
55.20735669674178
 20
182.1766428475026
 30
0.0
  0
VERTEX
  5
39D
330
381
100
AcDbEntity
  8
BOTTOM_U_306E_U_30B3_U_30D
100
AcDbVertex
100
AcDb2dVertex
 10
58.39367350076019
 20
183.293329780194
 30
0.0
  0
VERTEX
  5
39E
330
381
100
AcDbEntity
  8
BOTTOM_U_306E_U_30B3_U_30D
100
AcDbVertex
100
AcDb2dVertex
 10
61.6147316531374
 20
184.3058204486298
 30
0.0
  0
VERTEX
  5
39F
330
381
100
AcDbEntity
  8
BOTTOM_U_306E_U_30B3_U_30D
100
AcDbVertex
100
AcDb2dVertex
 10
63.25969565205008
 20
184.7607216740006
 30
0.0
  0
VERTEX
  5
3A0
330
381
100
AcDbEntity
  8
BOTTOM_U_306E_U_30B3_U_30D
100
AcDbVertex
100
AcDb2dVertex
 10
64.91578407172413
 20
185.1728631968202
 30
0.0
  0
VERTEX
  5
3A1
330
381
100
AcDbEntity
  8
BOTTOM_U_306E_U_30B3_U_30D
100
AcDbVertex
100
AcDb2dVertex
 10
66.5768606166824
 20
185.565620237827
 30
0.0
  0
VERTEX
  5
3A2
330
381
100
AcDbEntity
  8
BOTTOM_U_306E_U_30B3_U_30D
100
AcDbVertex
100
AcDb2dVertex
 10
68.23678899144835
 20
185.9623680177605
 30
0.0
  0
VERTEX
  5
3A3
330
381
100
AcDbEntity
  8
BOTTOM_U_306E_U_30B3_U_30D
100
AcDbVertex
100
AcDb2dVertex
 10
69.06754435299183
 20
186.1681523541065
 30
0.0
  0
VERTEX
  5
3A4
330
381
100
AcDbEntity
  8
BOTTOM_U_306E_U_30B3_U_30D
100
AcDbVertex
100
AcDb2dVertex
 10
69.89892067133894
 20
186.371743680512
 30
0.0
  0
VERTEX
  5
3A5
330
381
100
AcDbEntity
  8
BOTTOM_U_306E_U_30B3_U_30D
100
AcDbVertex
100
AcDb2dVertex
 10
70.73284530856397
 20
186.5640921715751
 30
0.0
  0
VERTEX
  5
3A6
330
381
100
AcDbEntity
  8
BOTTOM_U_306E_U_30B3_U_30D
100
AcDbVertex
100
AcDb2dVertex
 10
71.57124562674214
 20
186.7361480018948
 30
0.0
  0
VERTEX
  5
3A7
330
381
100
AcDbEntity
  8
BOTTOM_U_306E_U_30B3_U_30D
100
AcDbVertex
100
AcDb2dVertex
 10
72.421764151158
 20
186.8858355907173
 30
0.0
  0
VERTEX
  5
3A8
330
381
100
AcDbEntity
  8
BOTTOM_U_306E_U_30B3_U_30D
100
AcDbVertex
100
AcDb2dVertex
 10
73.27477281278026
 20
187.0204832389175
 30
0.0
  0
VERTEX
  5
3A9
330
381
100
AcDbEntity
  8
BOTTOM_U_306E_U_30B3_U_30D
100
AcDbVertex
100
AcDb2dVertex
 10
74.1287312599284
 20
187.1493848480884
 30
0.0
  0
VERTEX
  5
3AA
330
381
100
AcDbEntity
  8
BOTTOM_U_306E_U_30B3_U_30D
100
AcDbVertex
100
AcDb2dVertex
 10
74.98209914092156
 20
187.2818343198238
 30
0.0
  0
VERTEX
  5
3AB
330
381
100
AcDbEntity
  8
BOTTOM_U_306E_U_30B3_U_30D
100
AcDbVertex
100
AcDb2dVertex
 10
76.6798229673539
 20
187.5661410937266
 30
0.0
  0
VERTEX
  5
3AC
330
381
100
AcDbEntity
  8
BOTTOM_U_306E_U_30B3_U_30D
100
AcDbVertex
100
AcDb2dVertex
 10
78.37746712532615
 20
187.8527044963599
 30
0.0
  0
VERTEX
  5
3AD
330
381
100
AcDbEntity
  8
BOTTOM_U_306E_U_30B3_U_30D
100
AcDbVertex
100
AcDb2dVertex
 10
80.07890050888815
 20
188.1129867075257
 30
0.0
  0
VERTEX
  5
3AE
330
381
100
AcDbEntity
  8
BOTTOM_U_306E_U_30B3_U_30D
100
AcDbVertex
100
AcDb2dVertex
 10
81.78799201208976
 20
188.3184499070251
 30
0.0
  0
VERTEX
  5
3AF
330
381
100
AcDbEntity
  8
BOTTOM_U_306E_U_30B3_U_30D
100
AcDbVertex
100
AcDb2dVertex
 10
83.52234875168702
 20
188.468573582045
 30
0.0
  0
VERTEX
  5
3B0
330
381
100
AcDbEntity
  8
BOTTOM_U_306E_U_30B3_U_30D
100
AcDbVertex
100
AcDb2dVertex
 10
85.25886988366493
 20
188.5908059532566
 30
0.0
  0
VERTEX
  5
3B1
330
381
100
AcDbEntity
  8
BOTTOM_U_306E_U_30B3_U_30D
100
AcDbVertex
100
AcDb2dVertex
 10
86.99609688649751
 20
188.7040421173134
 30
0.0
  0
VERTEX
  5
3B2
330
381
100
AcDbEntity
  8
BOTTOM_U_306E_U_30B3_U_30D
100
AcDbVertex
100
AcDb2dVertex
 10
88.73257123865781
 20
188.8271771708696
 30
0.0
  0
VERTEX
  5
3B3
330
381
100
AcDbEntity
  8
BOTTOM_U_306E_U_30B3_U_30D
100
AcDbVertex
100
AcDb2dVertex
 10
89.58561222961286
 20
188.896917703449
 30
0.0
  0
VERTEX
  5
3B4
330
381
100
AcDbEntity
  8
BOTTOM_U_306E_U_30B3_U_30D
100
AcDbVertex
100
AcDb2dVertex
 10
90.43858886279887
 20
188.9680835914079
 30
0.0
  0
VERTEX
  5
3B5
330
381
100
AcDbEntity
  8
BOTTOM_U_306E_U_30B3_U_30D
100
AcDbVertex
100
AcDb2dVertex
 10
91.29207915929481
 20
189.031788189779
 30
0.0
  0
VERTEX
  5
3B6
330
381
100
AcDbEntity
  8
BOTTOM_U_306E_U_30B3_U_30D
100
AcDbVertex
100
AcDb2dVertex
 10
92.1466611401803
 20
189.079144853594
 30
0.0
  0
VERTEX
  5
3B7
330
381
100
AcDbEntity
  8
BOTTOM_U_306E_U_30B3_U_30D
100
AcDbVertex
100
AcDb2dVertex
 10
93.0112933686629
 20
189.1015829011877
 30
0.0
  0
VERTEX
  5
3B8
330
381
100
AcDbEntity
  8
BOTTOM_U_306E_U_30B3_U_30D
100
AcDbVertex
100
AcDb2dVertex
 10
93.87615418685492
 20
189.1013677625544
 30
0.0
  0
VERTEX
  5
3B9
330
381
100
AcDbEntity
  8
BOTTOM_U_306E_U_30B3_U_30D
100
AcDbVertex
100
AcDb2dVertex
 10
94.74103178581434
 20
189.0870264495029
 30
0.0
  0
VERTEX
  5
3BA
330
381
100
AcDbEntity
  8
BOTTOM_U_306E_U_30B3_U_30D
100
AcDbVertex
100
AcDb2dVertex
 10
95.60571435659824
 20
189.0670859738426
 30
0.0
  0
VERTEX
  5
3BB
330
381
100
AcDbEntity
  8
BOTTOM_U_306E_U_30B3_U_30D
100
AcDbVertex
100
AcDb2dVertex
 10
97.34410273809497
 20
189.0369516599051
 30
0.0
  0
VERTEX
  5
3BC
330
381
100
AcDbEntity
  8
BOTTOM_U_306E_U_30B3_U_30D
100
AcDbVertex
100
AcDb2dVertex
 10
99.08266691662841
 20
189.0186010897858
 30
0.0
  0
VERTEX
  5
3BD
330
381
100
AcDbEntity
  8
BOTTOM_U_306E_U_30B3_U_30D
100
AcDbVertex
100
AcDb2dVertex
 10
100.8212283243683
 20
189.0000904272622
 30
0.0
  0
VERTEX
  5
3BE
330
381
100
AcDbEntity
  8
BOTTOM_U_306E_U_30B3_U_30D
100
AcDbVertex
100
AcDb2dVertex
 10
102.5596083934856
 20
188.9694758361116
 30
0.0
  0
VERTEX
  5
3BF
330
381
100
AcDbEntity
  8
BOTTOM_U_306E_U_30B3_U_30D
100
AcDbVertex
100
AcDb2dVertex
 10
106.0406363265397
 20
188.8052182304679
 30
0.0
  0
VERTEX
  5
3C0
330
381
100
AcDbEntity
  8
BOTTOM_U_306E_U_30B3_U_30D
100
AcDbVertex
100
AcDb2dVertex
 10
109.5129386503078
 20
188.5145653912566
 30
0.0
  0
VERTEX
  5
3C1
330
381
100
AcDbEntity
  8
BOTTOM_U_306E_U_30B3_U_30D
100
AcDbVertex
100
AcDb2dVertex
 10
112.9800210773545
 20
188.1561017573121
 30
0.0
  0
VERTEX
  5
3C2
330
381
100
AcDbEntity
  8
BOTTOM_U_306E_U_30B3_U_30D
100
AcDbVertex
100
AcDb2dVertex
 10
116.4453893202463
 20
187.7884117674687
 30
0.0
  0
VERTEX
  5
3C3
330
381
100
AcDbEntity
  8
BOTTOM_U_306E_U_30B3_U_30D
100
AcDbVertex
100
AcDb2dVertex
 10
118.1601943788754
 20
187.5793013777037
 30
0.0
  0
VERTEX
  5
3C4
330
381
100
AcDbEntity
  8
BOTTOM_U_306E_U_30B3_U_30D
100
AcDbVertex
100
AcDb2dVertex
 10
119.8669587534487
 20
187.3136149271984
 30
0.0
  0
VERTEX
  5
3C5
330
381
100
AcDbEntity
  8
BOTTOM_U_306E_U_30B3_U_30D
100
AcDbVertex
100
AcDb2dVertex
 10
121.5675589345253
 20
187.0087455899603
 30
0.0
  0
VERTEX
  5
3C6
330
381
100
AcDbEntity
  8
BOTTOM_U_306E_U_30B3_U_30D
100
AcDbVertex
100
AcDb2dVertex
 10
123.2638714126641
 20
186.6820865399963
 30
0.0
  0
VERTEX
  5
3C7
330
381
100
AcDbEntity
  8
BOTTOM_U_306E_U_30B3_U_30D
100
AcDbVertex
100
AcDb2dVertex
 10
124.9780079604059
 20
186.3488302274911
 30
0.0
  0
VERTEX
  5
3C8
330
381
100
AcDbEntity
  8
BOTTOM_U_306E_U_30B3_U_30D
100
AcDbVertex
100
AcDb2dVertex
 10
126.6931188830957
 20
186.0206154803392
 30
0.0
  0
VERTEX
  5
3C9
330
381
100
AcDbEntity
  8
BOTTOM_U_306E_U_30B3_U_30D
100
AcDbVertex
100
AcDb2dVertex
 10
128.4093638177429
 20
185.6984010446216
 30
0.0
  0
VERTEX
  5
3CA
330
381
100
AcDbEntity
  8
BOTTOM_U_306E_U_30B3_U_30D
100
AcDbVertex
100
AcDb2dVertex
 10
130.1269024013557
 20
185.3831456664195
 30
0.0
  0
VERTEX
  5
3CB
330
381
100
AcDbEntity
  8
BOTTOM_U_306E_U_30B3_U_30D
100
AcDbVertex
100
AcDb2dVertex
 10
130.958364065582
 20
185.2360538863021
 30
0.0
  0
VERTEX
  5
3CC
330
381
100
AcDbEntity
  8
BOTTOM_U_306E_U_30B3_U_30D
100
AcDbVertex
100
AcDb2dVertex
 10
131.7899683522801
 20
185.0893231895433
 30
0.0
  0
VERTEX
  5
3CD
330
381
100
AcDbEntity
  8
BOTTOM_U_306E_U_30B3_U_30D
100
AcDbVertex
100
AcDb2dVertex
 10
132.6197124084667
 20
184.9330280431497
 30
0.0
  0
VERTEX
  5
3CE
330
381
100
AcDbEntity
  8
BOTTOM_U_306E_U_30B3_U_30D
100
AcDbVertex
100
AcDb2dVertex
 10
133.4455933811601
 20
184.7572429141287
 30
0.0
  0
VERTEX
  5
3CF
330
381
100
AcDbEntity
  8
BOTTOM_U_306E_U_30B3_U_30D
100
AcDbVertex
100
AcDb2dVertex
 10
134.2618574646279
 20
184.5540501221894
 30
0.0
  0
VERTEX
  5
3D0
330
381
100
AcDbEntity
  8
BOTTOM_U_306E_U_30B3_U_30D
100
AcDbVertex
100
AcDb2dVertex
 10
135.0719463586806
 20
184.3277487243526
 30
0.0
  0
VERTEX
  5
3D1
330
381
100
AcDbEntity
  8
BOTTOM_U_306E_U_30B3_U_30D
100
AcDbVertex
100
AcDb2dVertex
 10
135.878572541575
 20
184.0888205250915
 30
0.0
  0
VERTEX
  5
3D2
330
381
100
AcDbEntity
  8
BOTTOM_U_306E_U_30B3_U_30D
100
AcDbVertex
100
AcDb2dVertex
 10
136.68444849157
 20
183.847747328878
 30
0.0
  0
VERTEX
  5
3D3
330
381
100
AcDbEntity
  8
BOTTOM_U_306E_U_30B3_U_30D
100
AcDbVertex
100
AcDb2dVertex
 10
138.3401517237671
 20
183.3688050606775
 30
0.0
  0
VERTEX
  5
3D4
330
381
100
AcDbEntity
  8
BOTTOM_U_306E_U_30B3_U_30D
100
AcDbVertex
100
AcDb2dVertex
 10
140.000312435769
 20
182.9056095577518
 30
0.0
  0
VERTEX
  5
3D5
330
381
100
AcDbEntity
  8
BOTTOM_U_306E_U_30B3_U_30D
100
AcDbVertex
100
AcDb2dVertex
 10
141.6629340633458
 20
182.4511846797614
 30
0.0
  0
VERTEX
  5
3D6
330
381
100
AcDbEntity
  8
BOTTOM_U_306E_U_30B3_U_30D
100
AcDbVertex
100
AcDb2dVertex
 10
143.3260200422689
 20
181.9985542863665
 30
0.0
  0
VERTEX
  5
3D7
330
381
100
AcDbEntity
  8
BOTTOM_U_306E_U_30B3_U_30D
100
AcDbVertex
100
AcDb2dVertex
 10
144.9669515196587
 20
181.5540924814157
 30
0.0
  0
VERTEX
  5
3D8
330
381
100
AcDbEntity
  8
BOTTOM_U_306E_U_30B3_U_30D
100
AcDbVertex
100
AcDb2dVertex
 10
146.606542510857
 20
181.1040439971737
 30
0.0
  0
VERTEX
  5
3D9
330
381
100
AcDbEntity
  8
BOTTOM_U_306E_U_30B3_U_30D
100
AcDbVertex
100
AcDb2dVertex
 10
148.2390834483012
 20
180.6300444386134
 30
0.0
  0
VERTEX
  5
3DA
330
381
100
AcDbEntity
  8
BOTTOM_U_306E_U_30B3_U_30D
100
AcDbVertex
100
AcDb2dVertex
 10
149.8588647644268
 20
180.1137294107079
 30
0.0
  0
VERTEX
  5
3DB
330
381
100
AcDbEntity
  8
BOTTOM_U_306E_U_30B3_U_30D
100
AcDbVertex
100
AcDb2dVertex
 10
151.4710359140948
 20
179.5503921349992
 30
0.0
  0
VERTEX
  5
3DC
330
381
100
AcDbEntity
  8
BOTTOM_U_306E_U_30B3_U_30D
100
AcDbVertex
100
AcDb2dVertex
 10
153.0740804160033
 20
178.9616938736656
 30
0.0
  0
VERTEX
  5
3DD
330
381
100
AcDbEntity
  8
BOTTOM_U_306E_U_30B3_U_30D
100
AcDbVertex
100
AcDb2dVertex
 10
154.6730815728452
 20
178.3618087646132
 30
0.0
  0
VERTEX
  5
3DE
330
381
100
AcDbEntity
  8
BOTTOM_U_306E_U_30B3_U_30D
100
AcDbVertex
100
AcDb2dVertex
 10
156.2731226873138
 20
177.7649109457476
 30
0.0
  0
VERTEX
  5
3DF
330
381
100
AcDbEntity
  8
BOTTOM_U_306E_U_30B3_U_30D
100
AcDbVertex
100
AcDb2dVertex
 10
162.8090539003402
 20
175.3730185969873
 30
0.0
  0
VERTEX
  5
3E0
330
381
100
AcDbEntity
  8
BOTTOM_U_306E_U_30B3_U_30D
100
AcDbVertex
100
AcDb2dVertex
 10
169.3597554703986
 20
173.0216639015019
 30
0.0
  0
VERTEX
  5
3E1
330
381
100
AcDbEntity
  8
BOTTOM_U_306E_U_30B3_U_30D
100
AcDbVertex
100
AcDb2dVertex
 10
175.9298048096837
 20
170.7253001002512
 30
0.0
  0
VERTEX
  5
3E2
330
381
100
AcDbEntity
  8
BOTTOM_U_306E_U_30B3_U_30D
100
AcDbVertex
100
AcDb2dVertex
 10
182.5237793303892
 20
168.4983804341946
 30
0.0
  0
VERTEX
  5
3E3
330
381
100
AcDbEntity
  8
BOTTOM_U_306E_U_30B3_U_30D
100
AcDbVertex
100
AcDb2dVertex
 10
183.4036742658566
 20
168.2089939192857
 30
0.0
  0
VERTEX
  5
3E4
330
381
100
AcDbEntity
  8
BOTTOM_U_306E_U_30B3_U_30D
100
AcDbVertex
100
AcDb2dVertex
 10
184.2751918005725
 20
167.8670112626654
 30
0.0
  0
VERTEX
  5
3E5
330
381
100
AcDbEntity
  8
BOTTOM_U_306E_U_30B3_U_30D
100
AcDbVertex
100
AcDb2dVertex
 10
185.073935060654
 20
167.4049968442292
 30
0.0
  0
VERTEX
  5
3E6
330
381
100
AcDbEntity
  8
BOTTOM_U_306E_U_30B3_U_30D
100
AcDbVertex
100
AcDb2dVertex
 10
185.7355071722183
 20
166.7555150438728
 30
0.0
  0
VERTEX
  5
3E7
330
381
100
AcDbEntity
  8
BOTTOM_U_306E_U_30B3_U_30D
100
AcDbVertex
100
AcDb2dVertex
 10
186.188988543571
 20
165.8566149485643
 30
0.0
  0
VERTEX
  5
3E8
330
381
100
AcDbEntity
  8
BOTTOM_U_306E_U_30B3_U_30D
100
AcDbVertex
100
AcDb2dVertex
 10
186.3685033119571
 20
164.8751194836315
 30
0.0
  0
VERTEX
  5
3E9
330
381
100
AcDbEntity
  8
BOTTOM_U_306E_U_30B3_U_30D
100
AcDbVertex
100
AcDb2dVertex
 10
186.3877576356727
 20
163.8582765845544
 30
0.0
  0
VERTEX
  5
3EA
330
381
100
AcDbEntity
  8
BOTTOM_U_306E_U_30B3_U_30D
100
AcDbVertex
100
AcDb2dVertex
 10
186.3604576730125
 20
162.853334186814
 30
0.0
  0
SEQEND
  5
3EB
330
381
100
AcDbEntity
  8
BOTTOM_U_306E_U_30B3_U_30D
  0
POLYLINE
  5
3EC
330
1F
100
AcDbEntity
  8
BOTTOM_U_306E_U_30B3_U_30D
100
AcDb2dPolyline
 66
     1
 10
0.0
 20
0.0
 30
0.0
  0
VERTEX
  5
3ED
330
3EC
100
AcDbEntity
  8
BOTTOM_U_306E_U_30B3_U_30D
100
AcDbVertex
100
AcDb2dVertex
 10
123.6335637419985
 20
125.4157712313667
 30
0.0
  0
VERTEX
  5
3EE
330
3EC
100
AcDbEntity
  8
BOTTOM_U_306E_U_30B3_U_30D
100
AcDbVertex
100
AcDb2dVertex
 10
123.9990895269663
 20
125.1749092523366
 30
0.0
  0
VERTEX
  5
3EF
330
3EC
100
AcDbEntity
  8
BOTTOM_U_306E_U_30B3_U_30D
100
AcDbVertex
100
AcDb2dVertex
 10
124.2630836724404
 20
124.8244620488053
 30
0.0
  0
VERTEX
  5
3F0
330
3EC
100
AcDbEntity
  8
BOTTOM_U_306E_U_30B3_U_30D
100
AcDbVertex
100
AcDb2dVertex
 10
124.3924084172286
 20
124.4088716938321
 30
0.0
  0
VERTEX
  5
3F1
330
3EC
100
AcDbEntity
  8
BOTTOM_U_306E_U_30B3_U_30D
100
AcDbVertex
100
AcDb2dVertex
 10
124.3539260001376
 20
123.972580260476
 30
0.0
  0
VERTEX
  5
3F2
330
3EC
100
AcDbEntity
  8
BOTTOM_U_306E_U_30B3_U_30D
100
AcDbVertex
100
AcDb2dVertex
 10
124.1435088046002
 20
123.6130825232785
 30
0.0
  0
VERTEX
  5
3F3
330
3EC
100
AcDbEntity
  8
BOTTOM_U_306E_U_30B3_U_30D
100
AcDbVertex
100
AcDb2dVertex
 10
123.805948499002
 20
123.3693688875269
 30
0.0
  0
VERTEX
  5
3F4
330
3EC
100
AcDbEntity
  8
BOTTOM_U_306E_U_30B3_U_30D
100
AcDbVertex
100
AcDb2dVertex
 10
123.4004513529788
 20
123.2595019535807
 30
0.0
  0
VERTEX
  5
3F5
330
3EC
100
AcDbEntity
  8
BOTTOM_U_306E_U_30B3_U_30D
100
AcDbVertex
100
AcDb2dVertex
 10
122.9862236361671
 20
123.3015443217973
 30
0.0
  0
VERTEX
  5
3F6
330
3EC
100
AcDbEntity
  8
BOTTOM_U_306E_U_30B3_U_30D
100
AcDbVertex
100
AcDb2dVertex
 10
122.6139700778691
 20
123.512176246699
 30
0.0
  0
VERTEX
  5
3F7
330
3EC
100
AcDbEntity
  8
BOTTOM_U_306E_U_30B3_U_30D
100
AcDbVertex
100
AcDb2dVertex
 10
122.3495312024356
 20
123.8487910638345
 30
0.0
  0
VERTEX
  5
3F8
330
3EC
100
AcDbEntity
  8
BOTTOM_U_306E_U_30B3_U_30D
100
AcDbVertex
100
AcDb2dVertex
 10
122.2209250227115
 20
124.2572777674218
 30
0.0
  0
VERTEX
  5
3F9
330
3EC
100
AcDbEntity
  8
BOTTOM_U_306E_U_30B3_U_30D
100
AcDbVertex
100
AcDb2dVertex
 10
122.2561695515392
 20
124.683525351678
 30
0.0
  0
VERTEX
  5
3FA
330
3EC
100
AcDbEntity
  8
BOTTOM_U_306E_U_30B3_U_30D
100
AcDbVertex
100
AcDb2dVertex
 10
122.4663092474282
 20
125.0511850997273
 30
0.0
  0
VERTEX
  5
3FB
330
3EC
100
AcDbEntity
  8
BOTTOM_U_306E_U_30B3_U_30D
100
AcDbVertex
100
AcDb2dVertex
 10
122.8030086498102
 20
125.3019231025062
 30
0.0
  0
VERTEX
  5
3FC
330
3EC
100
AcDbEntity
  8
BOTTOM_U_306E_U_30B3_U_30D
100
AcDbVertex
100
AcDb2dVertex
 10
123.2106370506716
 20
125.4265236997929
 30
0.0
  0
VERTEX
  5
3FD
330
3EC
100
AcDbEntity
  8
BOTTOM_U_306E_U_30B3_U_30D
100
AcDbVertex
100
AcDb2dVertex
 10
123.6335637419985
 20
125.4157712313667
 30
0.0
  0
SEQEND
  5
3FE
330
3EC
100
AcDbEntity
  8
BOTTOM_U_306E_U_30B3_U_30D
  0
POLYLINE
  5
3FF
330
1F
100
AcDbEntity
  8
BOTTOM_U_306E_U_30B3_U_30D
100
AcDb2dPolyline
 66
     1
 10
0.0
 20
0.0
 30
0.0
  0
VERTEX
  5
400
330
3FF
100
AcDbEntity
  8
BOTTOM_U_306E_U_30B3_U_30D
100
AcDbVertex
100
AcDb2dVertex
 10
49.83050158671234
 20
132.4493221208885
 30
0.0
  0
VERTEX
  5
401
330
3FF
100
AcDbEntity
  8
BOTTOM_U_306E_U_30B3_U_30D
100
AcDbVertex
100
AcDb2dVertex
 10
50.19602737167916
 20
132.2084601418578
 30
0.0
  0
VERTEX
  5
402
330
3FF
100
AcDbEntity
  8
BOTTOM_U_306E_U_30B3_U_30D
100
AcDbVertex
100
AcDb2dVertex
 10
50.46002151715385
 20
131.8580129383264
 30
0.0
  0
VERTEX
  5
403
330
3FF
100
AcDbEntity
  8
BOTTOM_U_306E_U_30B3_U_30D
100
AcDbVertex
100
AcDb2dVertex
 10
50.58934626194237
 20
131.4424225833539
 30
0.0
  0
VERTEX
  5
404
330
3FF
100
AcDbEntity
  8
BOTTOM_U_306E_U_30B3_U_30D
100
AcDbVertex
100
AcDb2dVertex
 10
50.55086384485201
 20
131.0061311499978
 30
0.0
  0
VERTEX
  5
405
330
3FF
100
AcDbEntity
  8
BOTTOM_U_306E_U_30B3_U_30D
100
AcDbVertex
100
AcDb2dVertex
 10
50.3404466493153
 20
130.6466334128003
 30
0.0
  0
VERTEX
  5
406
330
3FF
100
AcDbEntity
  8
BOTTOM_U_306E_U_30B3_U_30D
100
AcDbVertex
100
AcDb2dVertex
 10
50.00288634371642
 20
130.4029197770487
 30
0.0
  0
VERTEX
  5
407
330
3FF
100
AcDbEntity
  8
BOTTOM_U_306E_U_30B3_U_30D
100
AcDbVertex
100
AcDb2dVertex
 10
49.59738919769288
 20
130.2930528431025
 30
0.0
  0
VERTEX
  5
408
330
3FF
100
AcDbEntity
  8
BOTTOM_U_306E_U_30B3_U_30D
100
AcDbVertex
100
AcDb2dVertex
 10
49.18316148088156
 20
130.3350952113191
 30
0.0
  0
VERTEX
  5
409
330
3FF
100
AcDbEntity
  8
BOTTOM_U_306E_U_30B3_U_30D
100
AcDbVertex
100
AcDb2dVertex
 10
48.81090792258323
 20
130.5457271362208
 30
0.0
  0
VERTEX
  5
40A
330
3FF
100
AcDbEntity
  8
BOTTOM_U_306E_U_30B3_U_30D
100
AcDbVertex
100
AcDb2dVertex
 10
48.54646904715035
 20
130.8823419533563
 30
0.0
  0
VERTEX
  5
40B
330
3FF
100
AcDbEntity
  8
BOTTOM_U_306E_U_30B3_U_30D
100
AcDbVertex
100
AcDb2dVertex
 10
48.41786286742592
 20
131.2908286569436
 30
0.0
  0
VERTEX
  5
40C
330
3FF
100
AcDbEntity
  8
BOTTOM_U_306E_U_30B3_U_30D
100
AcDbVertex
100
AcDb2dVertex
 10
48.4531073962536
 20
131.7170762411998
 30
0.0
  0
VERTEX
  5
40D
330
3FF
100
AcDbEntity
  8
BOTTOM_U_306E_U_30B3_U_30D
100
AcDbVertex
100
AcDb2dVertex
 10
48.66324709214269
 20
132.0847359892491
 30
0.0
  0
VERTEX
  5
40E
330
3FF
100
AcDbEntity
  8
BOTTOM_U_306E_U_30B3_U_30D
100
AcDbVertex
100
AcDb2dVertex
 10
48.99994649452461
 20
132.3354739920273
 30
0.0
  0
VERTEX
  5
40F
330
3FF
100
AcDbEntity
  8
BOTTOM_U_306E_U_30B3_U_30D
100
AcDbVertex
100
AcDb2dVertex
 10
49.4075748953857
 20
132.4600745893147
 30
0.0
  0
VERTEX
  5
410
330
3FF
100
AcDbEntity
  8
BOTTOM_U_306E_U_30B3_U_30D
100
AcDbVertex
100
AcDb2dVertex
 10
49.83050158671234
 20
132.4493221208885
 30
0.0
  0
SEQEND
  5
411
330
3FF
100
AcDbEntity
  8
BOTTOM_U_306E_U_30B3_U_30D
  0
POLYLINE
  5
412
330
1F
100
AcDbEntity
  8
BOTTOM_U_306E_U_30B3_U_30D
100
AcDb2dPolyline
 66
     1
 10
0.0
 20
0.0
 30
0.0
  0
VERTEX
  5
413
330
412
100
AcDbEntity
  8
BOTTOM_U_306E_U_30B3_U_30D
100
AcDbVertex
100
AcDb2dVertex
 10
160.1079278043021
 20
102.4897541911234
 30
0.0
  0
VERTEX
  5
414
330
412
100
AcDbEntity
  8
BOTTOM_U_306E_U_30B3_U_30D
100
AcDbVertex
100
AcDb2dVertex
 10
160.4734535892699
 20
102.2488922120934
 30
0.0
  0
VERTEX
  5
415
330
412
100
AcDbEntity
  8
BOTTOM_U_306E_U_30B3_U_30D
100
AcDbVertex
100
AcDb2dVertex
 10
160.7374477347439
 20
101.898445008562
 30
0.0
  0
VERTEX
  5
416
330
412
100
AcDbEntity
  8
BOTTOM_U_306E_U_30B3_U_30D
100
AcDbVertex
100
AcDb2dVertex
 10
160.8667724795321
 20
101.4828546535889
 30
0.0
  0
VERTEX
  5
417
330
412
100
AcDbEntity
  8
BOTTOM_U_306E_U_30B3_U_30D
100
AcDbVertex
100
AcDb2dVertex
 10
160.8282900624411
 20
101.0465632202328
 30
0.0
  0
VERTEX
  5
418
330
412
100
AcDbEntity
  8
BOTTOM_U_306E_U_30B3_U_30D
100
AcDbVertex
100
AcDb2dVertex
 10
160.6178728669038
 20
100.6870654830353
 30
0.0
  0
VERTEX
  5
419
330
412
100
AcDbEntity
  8
BOTTOM_U_306E_U_30B3_U_30D
100
AcDbVertex
100
AcDb2dVertex
 10
160.2803125613055
 20
100.4433518472837
 30
0.0
  0
VERTEX
  5
41A
330
412
100
AcDbEntity
  8
BOTTOM_U_306E_U_30B3_U_30D
100
AcDbVertex
100
AcDb2dVertex
 10
159.8748154152823
 20
100.3334849133375
 30
0.0
  0
VERTEX
  5
41B
330
412
100
AcDbEntity
  8
BOTTOM_U_306E_U_30B3_U_30D
100
AcDbVertex
100
AcDb2dVertex
 10
159.4605876984707
 20
100.375527281554
 30
0.0
  0
VERTEX
  5
41C
330
412
100
AcDbEntity
  8
BOTTOM_U_306E_U_30B3_U_30D
100
AcDbVertex
100
AcDb2dVertex
 10
159.0883341401727
 20
100.5861592064558
 30
0.0
  0
VERTEX
  5
41D
330
412
100
AcDbEntity
  8
BOTTOM_U_306E_U_30B3_U_30D
100
AcDbVertex
100
AcDb2dVertex
 10
158.8238952647391
 20
100.9227740235913
 30
0.0
  0
VERTEX
  5
41E
330
412
100
AcDbEntity
  8
BOTTOM_U_306E_U_30B3_U_30D
100
AcDbVertex
100
AcDb2dVertex
 10
158.695289085015
 20
101.3312607271786
 30
0.0
  0
VERTEX
  5
41F
330
412
100
AcDbEntity
  8
BOTTOM_U_306E_U_30B3_U_30D
100
AcDbVertex
100
AcDb2dVertex
 10
158.7305336138427
 20
101.7575083114348
 30
0.0
  0
VERTEX
  5
420
330
412
100
AcDbEntity
  8
BOTTOM_U_306E_U_30B3_U_30D
100
AcDbVertex
100
AcDb2dVertex
 10
158.9406733097318
 20
102.1251680594841
 30
0.0
  0
VERTEX
  5
421
330
412
100
AcDbEntity
  8
BOTTOM_U_306E_U_30B3_U_30D
100
AcDbVertex
100
AcDb2dVertex
 10
159.2773727121137
 20
102.3759060622623
 30
0.0
  0
VERTEX
  5
422
330
412
100
AcDbEntity
  8
BOTTOM_U_306E_U_30B3_U_30D
100
AcDbVertex
100
AcDb2dVertex
 10
159.6850011129751
 20
102.5005066595497
 30
0.0
  0
VERTEX
  5
423
330
412
100
AcDbEntity
  8
BOTTOM_U_306E_U_30B3_U_30D
100
AcDbVertex
100
AcDb2dVertex
 10
160.1079278043021
 20
102.4897541911234
 30
0.0
  0
SEQEND
  5
424
330
412
100
AcDbEntity
  8
BOTTOM_U_306E_U_30B3_U_30D
  0
ENDSEC
  0
SECTION
  2
OBJECTS
  0
DICTIONARY
  5
C
330
0
100
AcDbDictionary
  3
ACAD_GROUP
350
D
  3
ACAD_LAYOUT
350
1A
  3
ACAD_MATERIAL
350
3B
  3
ACAD_MLEADERSTYLE
350
448
  3
ACAD_MLINESTYLE
350
17
  3
ACAD_PLOTSETTINGS
350
19
  3
ACAD_VISUALSTYLE
350
2A
  3
ACDBHEADERROUNDTRIPXREC
350
426
  3
ACDBVARIABLEDICTIONARY
350
446
  0
DICTIONARY
  5
D
102
{ACAD_REACTORS
330
C
102
}
330
C
100
AcDbDictionary
  0
DICTIONARY
  5
1A
102
{ACAD_REACTORS
330
C
102
}
330
C
100
AcDbDictionary
  0
DICTIONARY
  5
3B
102
{ACAD_REACTORS
330
C
102
}
330
C
100
AcDbDictionary
  3
BYBLOCK
350
3D
  3
BYLAYER
350
3C
  3
GLOBAL
350
3E
  0
DICTIONARY
  5
448
102
{ACAD_REACTORS
330
C
102
}
330
C
100
AcDbDictionary
  0
DICTIONARY
  5
17
102
{ACAD_REACTORS
330
C
102
}
330
C
100
AcDbDictionary
  3
STANDARD
350
18
  0
DICTIONARY
  5
19
102
{ACAD_REACTORS
330
C
102
}
330
C
100
AcDbDictionary
  0
DICTIONARY
  5
2A
102
{ACAD_REACTORS
330
C
102
}
330
C
100
AcDbDictionary
  3
2DWIREFRAME
350
2F
  3
3D_HIDDEN
350
31
  3
3DWIREFRAME
350
30
  3
BASIC
350
32
  3
BRIGHTEN
350
36
  3
COLORCHANGE
350
3A
  3
CONCEPTUAL
350
34
  3
DIM
350
35
  3
FACEPATTERN
350
39
  3
FLAT
350
2B
  3
FLATWITHEDGES
350
2C
  3
GOURAUD
350
2D
  3
GOURAUDWITHEDGES
350
2E
  3
LINEPATTERN
350
38
  3
REALISTIC
350
33
  3
THICKEN
350
37
  0
DICTIONARY
  5
426
102
{ACAD_REACTORS
330
C
102
}
330
C
100
AcDbDictionary
  3
CEPSNTYPE
350
42F
  3
DIMSTYLEDATA
350
445
  3
FINGERPRINTGUID
350
430
  3
HYPERLINKBASE
350
429
  3
INSUNITS
350
42E
  3
LAYOUTDICT
350
42B
  3
LWETCUNION
350
42D
  3
PLOTSETDICT
350
42C
  3
PSVPSCALE
350
432
  3
PUCSBASE
350
435
  3
PUCSORGBACK
350
43B
  3
PUCSORGBOTTOM
350
437
  3
PUCSORGFRONT
350
43A
  3
PUCSORGLEFT
350
438
  3
PUCSORGRIGHT
350
439
  3
PUCSORGTOP
350
436
  3
PUCSORTHOREF
350
433
  3
PUCSORTHOVIEW
350
434
  3
STYLESHEET
350
42A
  3
TSTACKALIGN
350
427
  3
TSTACKSIZE
350
428
  3
UCSBASE
350
43E
  3
UCSORGBACK
350
444
  3
UCSORGBOTTOM
350
440
  3
UCSORGFRONT
350
443
  3
UCSORGLEFT
350
441
  3
UCSORGRIGHT
350
442
  3
UCSORGTOP
350
43F
  3
UCSORTHOREF
350
43C
  3
UCSORTHOVIEW
350
43D
  3
VERSIONGUID
350
431
  0
DICTIONARY
  5
446
102
{ACAD_REACTORS
330
C
102
}
330
C
100
AcDbDictionary
  3
DIMASSOC
350
449
  3
HIDETEXT
350
44A
  0
MATERIAL
  5
3D
102
{ACAD_REACTORS
330
3B
102
}
102
{ACAD_XDICTIONARY
360
44D
102
}
330
3B
100
AcDbMaterial
  1
ByBlock
  0
MATERIAL
  5
3C
102
{ACAD_REACTORS
330
3B
102
}
102
{ACAD_XDICTIONARY
360
44B
102
}
330
3B
100
AcDbMaterial
  1
ByLayer
  0
MATERIAL
  5
3E
102
{ACAD_REACTORS
330
3B
102
}
102
{ACAD_XDICTIONARY
360
44F
102
}
330
3B
100
AcDbMaterial
  1
Global
  0
MLINESTYLE
  5
18
102
{ACAD_REACTORS
330
17
102
}
330
17
100
AcDbMlineStyle
  2
Standard
 70
     0
  3

 62
   256
 51
90.0
 52
90.0
 71
     2
 49
0.5
 62
   256
  6
BYLAYER
 49
-0.5
 62
   256
  6
BYLAYER
  0
ACAD_PROXY_OBJECT
  5
2F
102
{ACAD_REACTORS
330
2A
102
}
330
2A
100
AcDbProxyObject
 90
      499
 91
      501
 93
      436
310
42CC9915DA5C99599C985B595049028333333333333E3BF0000000000000FB0107901411070040501600405405064090741402480A0340
1001
ACAD
1000
AcDbSavedByObjectVersion
1070
     0
  0
ACAD_PROXY_OBJECT
  5
31
102
{ACAD_REACTORS
330
2A
102
}
330
2A
100
AcDbProxyObject
 90
      499
 91
      501
 93
      500
310
424CD108121A5919195B90640502408333333333333E3BF0000000000000FB01079024090700405020000000000001110200405405064090740C02480A0340
1001
ACAD
1000
AcDbSavedByObjectVersion
1070
     0
  0
ACAD_PROXY_OBJECT
  5
30
102
{ACAD_REACTORS
330
2A
102
}
330
2A
100
AcDbProxyObject
 90
      499
 91
      501
 93
      436
310
42CCD915DA5C99599C985B595059028333333333333E3BF0000000000000FB0107901411070040501600405405064090741402480A0340
1001
ACAD
1000
AcDbSavedByObjectVersion
1070
     0
  0
ACAD_PROXY_OBJECT
  5
32
102
{ACAD_REACTORS
330
2A
102
}
330
2A
100
AcDbProxyObject
 90
      499
 91
      501
 93
      388
310
4150985CDA58D07406404333333333333E3BF0000000000000FB0107A41107004050150841D405064090741402480A0350
1001
ACAD
1000
AcDbSavedByObjectVersion
1070
     0
  0
ACAD_PROXY_OBJECT
  5
36
102
{ACAD_REACTORS
330
2A
102
}
330
2A
100
AcDbProxyObject
 90
      499
 91
      501
 93
      428
310
42109C9A59DA1D195B90C409028333333333333E3BF0000000000000FB010790141107004050150841D405064090741402480A029950
1001
ACAD
1000
AcDbSavedByObjectVersion
1070
     0
  0
ACAD_PROXY_OBJECT
  5
3A
102
{ACAD_REACTORS
330
2A
102
}
330
2A
100
AcDbProxyObject
 90
      499
 91
      501
 93
      452
310
42D0DBDB1BDC90DA185B99D95104090240C333333333333E3BF0000000000000FB0108901411070040501508421405064090741402480A0350
1001
ACAD
1000
AcDbSavedByObjectVersion
1070
     0
  0
ACAD_PROXY_OBJECT
  5
34
102
{ACAD_REACTORS
330
2A
102
}
330
2A
100
AcDbProxyObject
 90
      499
 91
      501
 93
      500
310
4290DBDB98D95C1D1D585B10940D028333333333333E3BF0000000000000FB0107902409070040501000000000000111010841D405064090740C02480A0340
1001
ACAD
1000
AcDbSavedByObjectVersion
1070
     0
  0
ACAD_PROXY_OBJECT
  5
35
102
{ACAD_REACTORS
330
2A
102
}
330
2A
100
AcDbProxyObject
 90
      499
 91
      501
 93
      412
310
40D11A5B50B409028333333333333E3BF0000000000000FB010790141107004050150841D405064090741402480A02677FFFFFD0
1001
ACAD
1000
AcDbSavedByObjectVersion
1070
     0
  0
ACAD_PROXY_OBJECT
  5
39
102
{ACAD_REACTORS
330
2A
102
}
330
2A
100
AcDbProxyObject
 90
      499
 91
      501
 93
      444
310
42D19858D95C185D1D195C9B90F409028333333333333E3BF0000000000000FB010790141107004050150841D405064090741402480A0350
1001
ACAD
1000
AcDbSavedByObjectVersion
1070
     0
  0
ACAD_PROXY_OBJECT
  5
2B
102
{ACAD_REACTORS
330
2A
102
}
330
2A
100
AcDbProxyObject
 90
      499
 91
      501
 93
      388
310
41119B185D240901404333333333333E3BF0000000000000F9010740A41107004050150841D405064090741402480A1B50
1001
ACAD
1000
AcDbSavedByObjectVersion
1070
     0
  0
ACAD_PROXY_OBJECT
  5
2C
102
{ACAD_REACTORS
330
2A
102
}
330
2A
100
AcDbProxyObject
 90
      499
 91
      501
 93
      476
310
43519B185D15DA5D1A115919D95CD0140901404333333333333E3BF0000000000000F9010740901411070040501600405405064090741402480A1B50
1001
ACAD
1000
AcDbSavedByObjectVersion
1070
     0
  0
ACAD_PROXY_OBJECT
  5
2D
102
{ACAD_REACTORS
330
2A
102
}
330
2A
100
AcDbProxyObject
 90
      499
 91
      501
 93
      412
310
41D1DBDD5C985D5910240902404333333333333E3BF0000000000000F9010740A411070040501641D405064090741402480A1B50
1001
ACAD
1000
AcDbSavedByObjectVersion
1070
     0
  0
ACAD_PROXY_OBJECT
  5
2E
102
{ACAD_REACTORS
330
2A
102
}
330
2A
100
AcDbProxyObject
 90
      499
 91
      501
 93
      500
310
4411DBDD5C985D5915DA5D1A115919D95CD0340902404333333333333E3BF0000000000000F9010740901411070040501600405405064090741402480A1B50
1001
ACAD
1000
AcDbSavedByObjectVersion
1070
     0
  0
ACAD_PROXY_OBJECT
  5
38
102
{ACAD_REACTORS
330
2A
102
}
330
2A
100
AcDbProxyObject
 90
      499
 91
      501
 93
      444
310
42D31A5B995C185D1D195C9B90E409028333333333333E3BF0000000000000FB010790141107004050750841D405064090741402483A0350
1001
ACAD
1000
AcDbSavedByObjectVersion
1070
     0
  0
ACAD_PROXY_OBJECT
  5
33
102
{ACAD_REACTORS
330
2A
102
}
330
2A
100
AcDbProxyObject
 90
      499
 91
      501
 93
      420
310
425499585B1A5CDD1A58D08409028333333333333E3BF0000000000000FB01079019070040501508421405064090741402480A1B40
1001
ACAD
1000
AcDbSavedByObjectVersion
1070
     0
  0
ACAD_PROXY_OBJECT
  5
37
102
{ACAD_REACTORS
330
2A
102
}
330
2A
100
AcDbProxyObject
 90
      499
 91
      501
 93
      412
310
41D51A1A58DAD95B90D409028333333333333E3BF0000000000000FB010790141107004050150C41D405064090741402480A0350
1001
ACAD
1000
AcDbSavedByObjectVersion
1070
     0
  0
XRECORD
  5
42F
102
{ACAD_REACTORS
330
426
102
}
330
426
100
AcDbXrecord
 90
        0
  0
XRECORD
  5
445
102
{ACAD_REACTORS
330
426
102
}
330
426
100
AcDbXrecord
1000
DSTYLE
1002
{
1070
   340
340
11
1002
}
  0
XRECORD
  5
430
102
{ACAD_REACTORS
330
426
102
}
330
426
100
AcDbXrecord
  1
{82E56E4E-4C4C-4C06-923F-556B4F2A67AE}
  0
XRECORD
  5
429
102
{ACAD_REACTORS
330
426
102
}
330
426
100
AcDbXrecord
  1

  0
XRECORD
  5
42E
102
{ACAD_REACTORS
330
426
102
}
330
426
100
AcDbXrecord
 90
        1
  0
XRECORD
  5
42B
102
{ACAD_REACTORS
330
426
102
}
330
426
100
AcDbXrecord
340
1A
  0
XRECORD
  5
42D
102
{ACAD_REACTORS
330
426
102
}
330
426
100
AcDbXrecord
 90
    10269
  0
XRECORD
  5
42C
102
{ACAD_REACTORS
330
426
102
}
330
426
100
AcDbXrecord
340
19
  0
XRECORD
  5
432
102
{ACAD_REACTORS
330
426
102
}
330
426
100
AcDbXrecord
 40
0.0
  0
XRECORD
  5
435
102
{ACAD_REACTORS
330
426
102
}
330
426
100
AcDbXrecord
340
0
  0
XRECORD
  5
43B
102
{ACAD_REACTORS
330
426
102
}
330
426
100
AcDbXrecord
 10
0.0
 20
0.0
 30
0.0
  0
XRECORD
  5
437
102
{ACAD_REACTORS
330
426
102
}
330
426
100
AcDbXrecord
 10
0.0
 20
0.0
 30
0.0
  0
XRECORD
  5
43A
102
{ACAD_REACTORS
330
426
102
}
330
426
100
AcDbXrecord
 10
0.0
 20
0.0
 30
0.0
  0
XRECORD
  5
438
102
{ACAD_REACTORS
330
426
102
}
330
426
100
AcDbXrecord
 10
0.0
 20
0.0
 30
0.0
  0
XRECORD
  5
439
102
{ACAD_REACTORS
330
426
102
}
330
426
100
AcDbXrecord
 10
0.0
 20
0.0
 30
0.0
  0
XRECORD
  5
436
102
{ACAD_REACTORS
330
426
102
}
330
426
100
AcDbXrecord
 10
0.0
 20
0.0
 30
0.0
  0
XRECORD
  5
433
102
{ACAD_REACTORS
330
426
102
}
330
426
100
AcDbXrecord
340
0
  0
XRECORD
  5
434
102
{ACAD_REACTORS
330
426
102
}
330
426
100
AcDbXrecord
 70
     0
  0
XRECORD
  5
42A
102
{ACAD_REACTORS
330
426
102
}
330
426
100
AcDbXrecord
  1

  0
XRECORD
  5
427
102
{ACAD_REACTORS
330
426
102
}
330
426
100
AcDbXrecord
 90
        1
  0
XRECORD
  5
428
102
{ACAD_REACTORS
330
426
102
}
330
426
100
AcDbXrecord
 90
       70
  0
XRECORD
  5
43E
102
{ACAD_REACTORS
330
426
102
}
330
426
100
AcDbXrecord
340
0
  0
XRECORD
  5
444
102
{ACAD_REACTORS
330
426
102
}
330
426
100
AcDbXrecord
 10
0.0
 20
0.0
 30
0.0
  0
XRECORD
  5
440
102
{ACAD_REACTORS
330
426
102
}
330
426
100
AcDbXrecord
 10
0.0
 20
0.0
 30
0.0
  0
XRECORD
  5
443
102
{ACAD_REACTORS
330
426
102
}
330
426
100
AcDbXrecord
 10
0.0
 20
0.0
 30
0.0
  0
XRECORD
  5
441
102
{ACAD_REACTORS
330
426
102
}
330
426
100
AcDbXrecord
 10
0.0
 20
0.0
 30
0.0
  0
XRECORD
  5
442
102
{ACAD_REACTORS
330
426
102
}
330
426
100
AcDbXrecord
 10
0.0
 20
0.0
 30
0.0
  0
XRECORD
  5
43F
102
{ACAD_REACTORS
330
426
102
}
330
426
100
AcDbXrecord
 10
0.0
 20
0.0
 30
0.0
  0
XRECORD
  5
43C
102
{ACAD_REACTORS
330
426
102
}
330
426
100
AcDbXrecord
340
0
  0
XRECORD
  5
43D
102
{ACAD_REACTORS
330
426
102
}
330
426
100
AcDbXrecord
 70
     0
  0
XRECORD
  5
431
102
{ACAD_REACTORS
330
426
102
}
330
426
100
AcDbXrecord
  1
{FAEB1C32-E019-11D5-929B-00C0DF256EC4}
  0
DICTIONARYVAR
  5
449
102
{ACAD_REACTORS
330
446
102
}
330
446
100
DictionaryVariables
280
     0
  1
2
  0
DICTIONARYVAR
  5
44A
102
{ACAD_REACTORS
330
446
102
}
330
446
100
DictionaryVariables
280
     0
  1
1
  0
DICTIONARY
  5
44D
330
3D
100
AcDbDictionary
280
     1
  3
ACAD_XREC_ROUNDTRIP
360
44E
  0
DICTIONARY
  5
44B
330
3C
100
AcDbDictionary
280
     1
  3
ACAD_XREC_ROUNDTRIP
360
44C
  0
DICTIONARY
  5
44F
330
3E
100
AcDbDictionary
280
     1
  3
ACAD_XREC_ROUNDTRIP
360
450
  0
XRECORD
  5
44E
102
{ACAD_REACTORS
330
44D
102
}
330
44D
100
AcDbXrecord
102
MATERIAL
148
0.0
149
0.0
149
0.0
 93
        0
 94
      127
282
     0
 72
     1
 77
     1
171
     1
175
     1
179
     1
273
     0
  0
XRECORD
  5
44C
102
{ACAD_REACTORS
330
44B
102
}
330
44B
100
AcDbXrecord
102
MATERIAL
148
0.0
149
0.0
149
0.0
 93
        0
 94
      127
282
     0
 72
     1
 77
     1
171
     1
175
     1
179
     1
273
     0
  0
XRECORD
  5
450
102
{ACAD_REACTORS
330
44F
102
}
330
44F
100
AcDbXrecord
102
MATERIAL
148
0.0
149
0.0
149
0.0
 93
        0
 94
      127
282
     0
 72
     1
 77
     1
171
     1
175
     1
179
     1
273
     0
  0
ENDSEC
  0
EOF
